<?xml version="1.0" standalone="no"?>
<!DOCTYPE svg PUBLIC "-//W3C//DTD SVG 1.1//EN" "http://www.w3.org/Graphics/SVG/1.1/DTD/svg11.dtd" >
<svg>
<metadata>
Created by FontForge 20090914 at Sun Apr 18 07:58:30 2021
 By www-data
Copyright &#194;&#169; 2016 by Radomir Tinkov. All rights reserved.
</metadata>
<defs>
<font id="Gilroy-SemiBold" horiz-adv-x="630" >
  <font-face 
    font-family="Gilroy SemiBold"
    font-weight="600"
    font-stretch="normal"
    units-per-em="1000"
    panose-1="0 0 7 0 0 0 0 0 0 0"
    ascent="800"
    descent="-200"
    x-height="500"
    cap-height="700"
    bbox="-382 -255.002 1064 970"
    underline-thickness="50"
    underline-position="-150"
    unicode-range="U+0020-U+FB02"
  />
<missing-glyph horiz-adv-x="500" 
d="M410 800v-1000h-317v1000h317zM333 733h-165v-33h65v-37h-66v-33h166v33h-66v37h66v33zM267 604h-100v-104h166v34h-66v70zM233 570v-36h-33v36h33zM333 473h-166v-33h66v-37h-66v-33h100v70h66v33zM333 413h-33v-66h-133v-34h166v100zM333 291h-100v-56h34v23h33v-47
h-100v80h-33v-113h166v113zM333 118h-166v-113h166v113zM300 85v-47h-100v47h100zM333 -18h-166v-33h70l-70 -47v-33h166v33h-102l70 47h32v33z" />
    <glyph glyph-name="fi" unicode="fi" horiz-adv-x="543" 
d="M481 500v-499.999h-108v396h-166v-396h-108v396h-76v104h76v10c0 135.333 75.333 203 226 203c35.333 0 72.333 -4.33301 111 -13v-99c-35.333 5.33301 -72.333 8 -111 8c-40 0 -69.667 -7.33301 -89 -22s-29 -40.334 -29 -77.001v-10h274z" />
    <glyph glyph-name="fl" unicode="fl" horiz-adv-x="543" 
d="M325 713c47.333 0 99.333 -6 156 -18v-695h-108v617c-10.667 0.666992 -26.667 1 -48 1c-78.667 0 -118 -36 -118 -108v-10h93v-104h-93v-396h-108v396h-76v104h76v10c0 135.333 75.333 203 226 203z" />
    <glyph glyph-name="f_f" unicode="ff" horiz-adv-x="600" 
d="M600 619c-78.667 7.33301 -118 -25.6689 -118 -99.002v-20h118v-104h-118v-396h-108v396h-167v-396h-108v396h-76v104h76v10c0 68.667 19.167 120.834 57.5 156.501s94.5 51.167 168.5 46.5v-104c-78.667 7.33301 -118 -25.667 -118 -99v-10h167v20
c0 68.667 19.167 120.834 57.5 156.501s94.5 51.167 168.5 46.5v-104z" />
    <glyph glyph-name="f_f_i" unicode="ffi" horiz-adv-x="818" 
d="M756 500v-500h-108v396h-166v-396h-108v396h-167v-396h-108v396h-76v104h76v10c0 68.667 19.167 120.834 57.5 156.501s94.5 51.167 168.5 46.5v-104c-78.667 7.33301 -118 -25.667 -118 -99v-10h167v20c0 135.333 75.333 203 226 203c35.333 0 72.333 -4.33301 111 -13
v-99c-35.333 5.33301 -72.333 8 -111 8c-40 0 -69.667 -7.33301 -89 -22s-29 -40.334 -29 -77.001v-20h274z" />
    <glyph glyph-name="f_f_l" unicode="ffl" horiz-adv-x="818" 
d="M600 723c47.333 0 99.333 -6.00098 156 -18.001v-705h-108v627c-10.667 0.666992 -26.667 1 -48 1c-78.667 0 -118 -36 -118 -108v-20h93v-104h-93v-396h-108v396h-167v-396h-108v396h-76v104h76v10c0 68.667 19.167 120.834 57.5 156.501s94.5 51.167 168.5 46.5v-104
c-78.667 7.33301 -118 -25.667 -118 -99v-10h167v20c0 135.333 75.333 203 226 203z" />
    <glyph glyph-name=".notdef" horiz-adv-x="500" 
d="M410 800v-1000h-317v1000h317zM333 733h-165v-33h65v-37h-66v-33h166v33h-66v37h66v33zM267 604h-100v-104h166v34h-66v70zM233 570v-36h-33v36h33zM333 473h-166v-33h66v-37h-66v-33h100v70h66v33zM333 413h-33v-66h-133v-34h166v100zM333 291h-100v-56h34v23h33v-47
h-100v80h-33v-113h166v113zM333 118h-166v-113h166v113zM300 85v-47h-100v47h100zM333 -18h-166v-33h70l-70 -47v-33h166v33h-102l70 47h32v33z" />
    <glyph glyph-name="space" unicode=" " horiz-adv-x="250" 
 />
    <glyph glyph-name="exclam" unicode="!" horiz-adv-x="255" 
d="M85 220l-22 280v200h130v-200l-23 -280h-85zM128 -12c-20.667 0 -38.332 7.33301 -52.999 22s-22 32.334 -22 53.001s7.16699 38.334 21.5 53.001s32.166 22 53.499 22c20.667 0 38.334 -7.33301 53.001 -22s22 -32.334 22 -53.001s-7.33301 -38.334 -22 -53.001
s-32.334 -22 -53.001 -22z" />
    <glyph glyph-name="quotedbl" unicode="&#x22;" horiz-adv-x="355" 
d="M60 480l-15 220h105l-15 -220h-75zM220 480l-15 220h105l-15 -220h-75z" />
    <glyph glyph-name="numbersign" unicode="#" horiz-adv-x="610" 
d="M571 400h-112l-16 -100h112l-13 -85h-113l-28 -165h-89l28 165h-112l-28 -165h-89l28 165h-114l14 85h114l16 100h-114l14 85h115l27 165h89l-27 -165h112l27 165h89l-27 -165h111zM354 300l16 100h-112l-16 -100h112z" />
    <glyph glyph-name="dollar" unicode="$" horiz-adv-x="549" 
d="M519 192c0 -56.667 -18.168 -102.833 -54.501 -138.5s-83.833 -57.167 -142.5 -64.5v-89h-65v88c-55.333 3.33301 -102.666 18.333 -141.999 45s-67.666 63 -84.999 109l99 57c23.333 -58.667 66 -91.334 128 -98.001v208c-30 11.333 -54.333 21.5 -73 30.5
s-38.5 21.5 -59.5 37.5s-36.667 35.5 -47 58.5s-15.5 49.833 -15.5 80.5c0 56 18.667 101.333 56 136s83.666 54.667 138.999 60v88h65v-89c89.333 -12 151.333 -57.667 186 -137l-97 -56c-17.333 43.333 -47 69.666 -89 78.999v-198c21.333 -8 37.5 -14.333 48.5 -19
s25.667 -11.667 44 -21s32.5 -18.666 42.5 -27.999s20.5 -20.666 31.5 -33.999s18.833 -28.833 23.5 -46.5s7 -37.167 7 -58.5zM176.999 516.001c0 -20.667 6.16699 -37.668 18.5 -51.001s32.833 -26.666 61.5 -39.999v174c-24.667 -4 -44.167 -13.333 -58.5 -28
s-21.5 -33 -21.5 -55zM321.999 102c26.667 5.33301 47 15.999 61 31.999s21 35 21 57s-6.66699 39.833 -20 53.5s-34 26.834 -62 39.501v-182z" />
    <glyph glyph-name="percent" unicode="%" horiz-adv-x="747" 
d="M214 393c-46.667 0 -85.667 15.5 -117 46.5s-47 68.833 -47 113.5s15.667 82.5 47 113.5s70.333 46.5 117 46.5s85.5 -15.333 116.5 -46s46.5 -68.667 46.5 -114c0 -44.667 -15.5 -82.5 -46.5 -113.5s-69.833 -46.5 -116.5 -46.5zM213 481c21.333 0 38.666 7 51.999 21
s20 31 20 51c0 20.667 -6.66699 38 -20 52s-30.666 21 -51.999 21c-20.667 0 -37.667 -7 -51 -21s-20 -31.333 -20 -52c0 -20 6.66699 -37 20 -51s30.333 -21 51 -21zM109 103l461 513l54 -31l-461 -514zM534 -12c-46.667 0 -85.667 15.5 -117 46.5s-47 68.833 -47 113.5
s15.667 82.5 47 113.5s70.333 46.5 117 46.5c46 0 84.667 -15.5 116 -46.5s47 -68.833 47 -113.5s-15.667 -82.5 -47 -113.5s-70 -46.5 -116 -46.5zM533 76c21.333 0 38.666 7 51.999 21s20 31 20 51c0 20.667 -6.66699 38 -20 52s-30.666 21 -51.999 21
c-20.667 0 -37.667 -7 -51 -21s-20 -31.333 -20 -52c0 -20 6.66699 -37 20 -51s30.333 -21 51 -21z" />
    <glyph glyph-name="ampersand" unicode="&#x26;" horiz-adv-x="668" 
d="M645 35l-93.002 -54.001l-67 72c-55.333 -44 -120.333 -66 -195 -66c-71.333 0 -129.166 18.333 -173.499 55s-66.5 86.667 -66.5 150c0 42 10.5 80.667 31.5 116s51.5 63.666 91.5 84.999c-26.667 36.667 -40 77.334 -40 122.001c0 58.667 20.5 106.334 61.5 143.001
s91.5 55 151.5 55c48 0 91.333 -12.667 130 -38s67.334 -61.333 86.001 -108l-98 -56c-9.33301 28 -24.333 50 -45 66s-44.667 24 -72 24c-28 0 -51.5 -8.16699 -70.5 -24.5s-28.5 -37.833 -28.5 -64.5c0 -14 3 -28 9 -42s12.5 -25.5 19.5 -34.5s17.5 -20.833 31.5 -35.5
l170 -184c16.667 34 28.667 74.667 36 122l98 -56c-12 -56 -31.333 -105.333 -58 -148zM295.998 93.999c44.667 0 83.333 12.333 116 37l-172 185c-49.333 -24.667 -74 -63 -74 -115c0 -32.667 11.333 -58.667 34 -78s54.667 -29 96 -29z" />
    <glyph glyph-name="quotesingle" unicode="'" horiz-adv-x="195" 
d="M60 480l-15 220h105l-15 -220h-75z" />
    <glyph glyph-name="parenleft" unicode="(" horiz-adv-x="293" 
d="M165 -100c-73.333 146.667 -110 296.667 -110 450s36.667 303.333 110 450h108c-73.333 -146.667 -110 -296.667 -110 -450s36.667 -303.333 110 -450h-108z" />
    <glyph glyph-name="parenright" unicode=")" horiz-adv-x="293" 
d="M128 -100h-108c73.333 146.667 110 296.667 110 450s-36.667 303.333 -110 450h108c73.333 -146.667 110 -296.667 110 -450s-36.667 -303.333 -110 -450z" />
    <glyph glyph-name="asterisk" unicode="*" horiz-adv-x="396" 
d="M341 609v-72l-90 6l53 -72l-62 -38l-44 83l-44 -83l-62 38l54 72l-91 -6v72l91 -6l-54 72l62 38l44 -83l44 83l62 -38l-53 -72z" />
    <glyph glyph-name="plus" unicode="+" horiz-adv-x="550" 
d="M495 401v-102h-169v-169h-102v169h-169v102h169v169h102v-169h169z" />
    <glyph glyph-name="comma" unicode="," horiz-adv-x="265" 
d="M213 120l-70 -260h-90l40 260h120z" />
    <glyph glyph-name="hyphen" unicode="-" horiz-adv-x="510" 
d="M70 252v104h370v-104h-370z" />
    <glyph glyph-name="period" unicode="." horiz-adv-x="255" 
d="M128 -12c-20.667 0 -38.332 7.33301 -52.999 22s-22 32.334 -22 53.001s7.16699 38.334 21.5 53.001s32.166 22 53.499 22c20.667 0 38.334 -7.33301 53.001 -22s22 -32.334 22 -53.001s-7.33301 -38.334 -22 -53.001s-32.334 -22 -53.001 -22z" />
    <glyph glyph-name="slash" unicode="/" horiz-adv-x="525" 
d="M90 -100h-55l400 900h55z" />
    <glyph glyph-name="zero" unicode="0" 
d="M315 -13c-86.667 0 -154.167 33 -202.5 99s-72.5 154 -72.5 264s24.167 198 72.5 264s115.833 99 202.5 99s154.167 -33 202.5 -99s72.5 -154 72.5 -264s-24.167 -198 -72.5 -264s-115.833 -99 -202.5 -99zM315 99c52 0 91.667 21.667 119 65s41 105.333 41 186
s-13.667 142.667 -41 186s-67 65 -119 65c-51.333 0 -90.833 -21.667 -118.5 -65s-41.5 -105.333 -41.5 -186s13.833 -142.667 41.5 -186s67.167 -65 118.5 -65z" />
    <glyph glyph-name="one" unicode="1" horiz-adv-x="372" 
d="M197 700h100v-700h-115v577l-141 -40l-28 98z" />
    <glyph glyph-name="two" unicode="2" horiz-adv-x="529" 
d="M31 0l-0.000976562 90.002l244 249c59.333 59.333 89 110.666 89 153.999c0 34 -10.167 60.5 -30.5 79.5s-46.166 28.5 -77.499 28.5c-58.667 0 -102 -29 -130 -87l-97 57c22 46.667 53 82 93 106s84.333 36 133 36c61.333 0 114 -19.333 158 -58s66 -91.334 66 -158.001
c0 -71.333 -39.667 -147.333 -119 -228l-158 -158h290v-111h-461z" />
    <glyph glyph-name="three" unicode="3" horiz-adv-x="540" 
d="M334 414c50.667 -12 91.8311 -35.5 123.498 -70.5s47.5 -78.833 47.5 -131.5c0 -70 -23.667 -125 -71 -165s-105.333 -60 -174 -60c-53.333 0 -101.166 12.333 -143.499 37s-72.833 60.667 -91.5 108l98 57c20.667 -60 66.334 -90 137.001 -90
c40 0 71.667 10.167 95 30.5s35 47.833 35 82.5s-11.667 62 -35 82s-55 30 -95 30h-26l-46 69l151 199h-293v108h430v-98z" />
    <glyph glyph-name="four" unicode="4" horiz-adv-x="580" 
d="M563 233v-107h-80v-126h-116v126h-344v107l241 467h125l-241 -467h219v182h116v-182h80z" />
    <glyph glyph-name="five" unicode="5" horiz-adv-x="545" 
d="M275 436c66.667 0 123 -19.834 169 -59.501s69 -94.5 69 -164.5s-23.667 -125 -71 -165s-105.333 -60 -174 -60c-55.333 0 -104.333 12.833 -147 38.5s-73 62.834 -91 111.501l99 57c18.667 -63.333 65 -95 139 -95c39.333 0 70.833 10.167 94.5 30.5
s35.5 47.833 35.5 82.5s-11.667 62 -35 82s-54.333 30 -93 30h-204l27 376h390v-108h-284l-12 -156h88z" />
    <glyph glyph-name="six" unicode="6" horiz-adv-x="545" 
d="M273 465c72.667 0 132 -22.167 178 -66.5s69 -101.833 69 -172.5s-23 -128.167 -69 -172.5s-105.333 -66.5 -178 -66.5c-73.333 0 -133 22.167 -179 66.5s-69 101.833 -69 172.5c0 53.333 14 100.333 42 141l222 333h131l-160 -235h13zM273 96
c38.667 0 70.334 11.833 95.001 35.5s37 55.167 37 94.5s-12.333 70.833 -37 94.5s-56.334 35.5 -95.001 35.5c-39.333 0 -71.333 -11.833 -96 -35.5s-37 -55.167 -37 -94.5s12.333 -70.833 37 -94.5s56.667 -35.5 96 -35.5z" />
    <glyph glyph-name="seven" unicode="7" horiz-adv-x="490" 
d="M15 700h445v-100l-246 -600h-121l242 590h-320v110z" />
    <glyph glyph-name="eight" unicode="8" horiz-adv-x="561" 
d="M423 364c68.667 -38 102.999 -94.667 102.999 -170c0 -64 -22.333 -114.5 -67 -151.5s-104 -55.5 -178 -55.5s-133.5 18.5 -178.5 55.5s-67.5 87.5 -67.5 151.5c0 36 9 68.833 27 98.5s43.333 53.5 76 71.5c-52.667 34.667 -79 84 -79 148s21.333 113.5 64 148.5
s95.334 52.5 158.001 52.5c62 0 114.5 -17.5 157.5 -52.5s64.5 -84.5 64.5 -148.5s-26.667 -113.333 -80 -148zM280.999 604c-31.333 0 -57 -8.33301 -77 -25s-30 -40.667 -30 -72c0 -30 10.167 -53.667 30.5 -71s45.833 -26 76.5 -26c30 0 55.333 8.66699 76 26
s31 41 31 71c0 31.333 -10.167 55.333 -30.5 72s-45.833 25 -76.5 25zM280.999 96c38.667 0 70 9.5 94 28.5s36 45.833 36 80.5s-12 61.5 -36 80.5s-55.333 28.5 -94 28.5c-39.333 0 -71 -9.5 -95 -28.5s-36 -45.833 -36 -80.5s12 -61.5 36 -80.5s55.667 -28.5 95 -28.5z
" />
    <glyph glyph-name="nine" unicode="9" horiz-adv-x="545" 
d="M520 474c0 -53.333 -14 -100.333 -42 -141l-221 -333h-132l160 235h-12c-72.667 0 -132.167 22.167 -178.5 66.5s-69.5 101.833 -69.5 172.5s23.167 128.167 69.5 172.5s105.833 66.5 178.5 66.5s132 -22.167 178 -66.5s69 -101.833 69 -172.5zM140 474
c0 -38.667 12.5 -70 37.5 -94s56.833 -36 95.5 -36s70.334 11.833 95.001 35.5s37 55.167 37 94.5s-12.333 70.833 -37 94.5s-56.334 35.5 -95.001 35.5s-70.5 -11.833 -95.5 -35.5s-37.5 -55.167 -37.5 -94.5z" />
    <glyph glyph-name="colon" unicode=":" horiz-adv-x="255" 
d="M128 363c-20.667 0 -38.332 7.33496 -52.999 22.002s-22 32.334 -22 53.001c0 21.333 7.16699 39.166 21.5 53.499s32.166 21.5 53.499 21.5c20.667 0 38.334 -7.33301 53.001 -22s22 -32.334 22 -53.001s-7.33301 -38.334 -22 -53.001s-32.334 -22 -53.001 -22z
M128.002 -11.998c-20.667 0 -38.332 7.33301 -52.999 22s-22 32.334 -22 53.001s7.16699 38.334 21.5 53.001s32.166 22 53.499 22c20.667 0 38.334 -7.33301 53.001 -22s22 -32.334 22 -53.001s-7.33301 -38.334 -22 -53.001s-32.334 -22 -53.001 -22z" />
    <glyph glyph-name="semicolon" unicode=";" horiz-adv-x="268" 
d="M141 363c-20.667 0 -38.334 7.33496 -53.001 22.002s-22 32.334 -22 53.001c0 21.333 7.33301 39.166 22 53.499s32.334 21.5 53.001 21.5s38.334 -7.33301 53.001 -22s22 -32.334 22 -53.001s-7.33301 -38.334 -22 -53.001s-32.334 -22 -53.001 -22zM213 120.002
l-70 -260h-90l40 260h120z" />
    <glyph glyph-name="less" unicode="&#x3c;" horiz-adv-x="525" 
d="M475 585v-114l-303 -121l303 -121v-114l-425 185v100z" />
    <glyph glyph-name="equal" unicode="=" horiz-adv-x="530" 
d="M50 402v102h430v-102h-430zM50 197v102h430v-102h-430z" />
    <glyph glyph-name="greater" unicode="&#x3e;" horiz-adv-x="525" 
d="M50 585l425 -185v-100l-425 -185v114l303 121l-303 121v114z" />
    <glyph glyph-name="question" unicode="?" horiz-adv-x="546" 
d="M200 220c0 27.333 5.99902 52.666 17.999 75.999s26.667 43.5 44 60.5l52 49c17.333 15.667 32 32.667 44 51s18 37.5 18 57.5c0 28 -9.66699 49.5 -29 64.5s-45.333 22.5 -78 22.5c-31.333 0 -58.333 -8 -81 -24s-39 -38.667 -49 -68l-99 56
c18.667 47.333 48.834 83.833 90.501 109.5s88.834 38.5 141.501 38.5c59.333 0 110.666 -17 153.999 -51s65 -81 65 -141c0 -28 -6 -54.167 -18 -78.5s-26.667 -45.166 -44 -62.499l-52 -50.5c-17.333 -16.333 -32 -33.833 -44 -52.5s-18 -37.667 -18 -57h-115z
M257.999 -12c-20.667 0 -38.332 7.33301 -52.999 22s-22 32.334 -22 53.001s7.16699 38.334 21.5 53.001s32.166 22 53.499 22c20.667 0 38.334 -7.33301 53.001 -22s22 -32.334 22 -53.001s-7.33301 -38.334 -22 -53.001s-32.334 -22 -53.001 -22z" />
    <glyph glyph-name="at" unicode="@" horiz-adv-x="784" 
d="M399 612c70.667 0 133.33 -17.1699 187.997 -51.5029s95.334 -77.166 122.001 -128.499s40 -105.333 40 -162c0 -70 -14.667 -123.333 -44 -160s-66 -55 -110 -55c-66 0 -107.667 27.333 -125 82c-25.333 -32.667 -59.666 -49 -102.999 -49c-44 0 -80.333 15.5 -109 46.5
s-43 69.5 -43 115.5c0 46.667 14.333 85.5 43 116.5s65 46.5 109 46.5c38.667 0 70.667 -13.333 96 -40v30h92v-226c0 -54 20.333 -81 61 -81c28.667 0 52.167 14.5 70.5 43.5s27.5 72.5 27.5 130.5c0 88 -30.167 161.667 -90.5 221s-135.166 89 -224.499 89
c-91.333 0 -169 -31.667 -233 -95s-96 -141.666 -96 -234.999c0 -95.333 32.833 -174.166 98.5 -236.499s148.5 -93.5 248.5 -93.5c63.333 0 119 8.66699 167 26v-34c-49.333 -16 -105 -24 -167 -24c-109.333 0 -200.333 34.167 -273 102.5s-109 154.833 -109 259.5
c0 100.667 34.833 186.167 104.5 256.5s156.167 105.5 259.5 105.5zM385.996 171.997c22 0 40.333 7.16699 55 21.5s22 33.166 22 56.499s-7.33301 42.333 -22 57s-33 22 -55 22c-22.667 0 -41.334 -7.33301 -56.001 -22s-22 -33.667 -22 -57s7.33301 -42.166 22 -56.499
s33.334 -21.5 56.001 -21.5z" />
    <glyph glyph-name="A" unicode="A" horiz-adv-x="655" 
d="M526 0l-49 141h-298l-49 -141h-125l254 700h138l253 -700h-124zM217 249h222l-111 316z" />
    <glyph glyph-name="B" unicode="B" horiz-adv-x="610" 
d="M482 363c30.667 -16 54.668 -37.999 72.001 -65.999s26 -60.333 26 -97c0 -57.333 -20.333 -105 -61 -143s-90.334 -57 -149.001 -57h-300v700h278c57.333 0 105.833 -18.5 145.5 -55.5s59.5 -83.167 59.5 -138.5c0 -60.667 -23.667 -108.334 -71 -143.001z
M348.001 592.001h-163v-184h163c25.333 0 46.666 8.83301 63.999 26.5s26 39.5 26 65.5s-8.66699 47.833 -26 65.5s-38.666 26.5 -63.999 26.5zM370.001 108.001c26.667 0 49.167 9.5 67.5 28.5s27.5 42.167 27.5 69.5s-9.16699 50.5 -27.5 69.5s-40.833 28.5 -67.5 28.5
h-185v-196h185z" />
    <glyph glyph-name="C" unicode="C" horiz-adv-x="732" 
d="M401 -13c-105.333 0 -192.665 34.8301 -261.998 104.497s-104 155.834 -104 258.501s34.667 188.834 104 258.501s156.666 104.5 261.999 104.5c63.333 0 121.833 -15 175.5 -45s95.5 -70.667 125.5 -122l-100 -58c-18.667 34.667 -45.834 62.167 -81.501 82.5
s-75.5 30.5 -119.5 30.5c-74.667 0 -135.167 -23.667 -181.5 -71s-69.5 -107.333 -69.5 -180s23.167 -132.667 69.5 -180s106.833 -71 181.5 -71c44 0 84 10.167 120 30.5s63 47.833 81 82.5l100 -57c-29.333 -51.333 -70.833 -92.166 -124.5 -122.499
s-112.5 -45.5 -176.5 -45.5z" />
    <glyph glyph-name="D" unicode="D" horiz-adv-x="715" 
d="M345 700c96 0 175.833 -33.667 239.5 -101s95.5 -150.333 95.5 -249c0 -98 -31.833 -180.833 -95.5 -248.5s-143.5 -101.5 -239.5 -101.5h-275v700h275zM345 110c66 0 119.833 22.668 161.5 68.001s62.5 102.666 62.5 171.999c0 70 -20.833 127.5 -62.5 172.5
s-95.5 67.5 -161.5 67.5h-160v-480h160z" />
    <glyph glyph-name="E" unicode="E" horiz-adv-x="530" 
d="M185 110h310v-110h-425v700h420v-110h-305v-182h280v-109h-280v-189z" />
    <glyph glyph-name="F" unicode="F" horiz-adv-x="518" 
d="M480 590h-295v-196h285v-110h-285v-284h-115v700h410v-110z" />
    <glyph glyph-name="G" unicode="G" horiz-adv-x="786" 
d="M751 362v-47.998c0 -96 -31.667 -174.5 -95 -235.5s-146 -91.5 -248 -91.5c-108 0 -197.167 35 -267.5 105s-105.5 156 -105.5 258c0 101.333 35.167 187.166 105.5 257.499s157.5 105.5 261.5 105.5c65.333 0 125 -15 179 -45s96 -70.333 126 -121l-99 -57
c-18.667 33.333 -46.334 60.166 -83.001 80.499s-77.667 30.5 -123 30.5c-73.333 0 -133.666 -24 -180.999 -72s-71 -108 -71 -180s23.833 -131.667 71.5 -179s110.167 -71 187.5 -71c62 0 112.5 14.5 151.5 43.5s63.833 67.833 74.5 116.5h-234v103h350z" />
    <glyph glyph-name="H" unicode="H" horiz-adv-x="670" 
d="M485 700h115v-700h-115v303h-300v-303h-115v700h115v-287h300v287z" />
    <glyph glyph-name="I" unicode="I" horiz-adv-x="255" 
d="M70 700h115v-700h-115v700z" />
    <glyph glyph-name="J" unicode="J" horiz-adv-x="564" 
d="M260 -13c-108.667 0 -183.667 42.667 -225 128l99 58c22.667 -49.333 65 -74 127 -74c40 0 70.833 9.83301 92.5 29.5s32.5 47.5 32.5 83.5v488h115v-488c0 -72 -22.667 -127.5 -68 -166.5s-103 -58.5 -173 -58.5z" />
    <glyph glyph-name="K" unicode="K" horiz-adv-x="603" 
d="M598 0h-137l-276 333v-333h-115v700h115v-314l266 314h137l-283 -341z" />
    <glyph glyph-name="L" unicode="L" horiz-adv-x="485" 
d="M185 110h285v-110h-400v700h115v-590z" />
    <glyph glyph-name="M" unicode="M" horiz-adv-x="810" 
d="M740 700v-700h-115v499l-213 -352h-14l-213 353v-500h-115v700h124l211 -350l212 350h123z" />
    <glyph glyph-name="N" unicode="N" horiz-adv-x="675" 
d="M490 700h115v-700h-90l-330 475v-475h-115v700h90l330 -475v475z" />
    <glyph glyph-name="O" unicode="O" horiz-adv-x="796" 
d="M398 -13c-101.333 0 -187.166 35.167 -257.499 105.5s-105.5 156.166 -105.5 257.499s35.167 187.166 105.5 257.499s156.166 105.5 257.499 105.5s187.166 -35.167 257.499 -105.5s105.5 -156.166 105.5 -257.499s-35.167 -187.166 -105.5 -257.499
s-156.166 -105.5 -257.499 -105.5zM398 99c70 0 128.833 23.833 176.5 71.5s71.5 107.5 71.5 179.5s-23.833 131.833 -71.5 179.5s-106.5 71.5 -176.5 71.5s-128.833 -23.833 -176.5 -71.5s-71.5 -107.5 -71.5 -179.5s23.833 -131.833 71.5 -179.5s106.5 -71.5 176.5 -71.5z
" />
    <glyph glyph-name="P" unicode="P" horiz-adv-x="590" 
d="M328 700c66 0 121.167 -22 165.5 -66s66.5 -98.667 66.5 -164c0 -64.667 -22.167 -119.167 -66.5 -163.5s-99.5 -66.5 -165.5 -66.5h-143v-240h-115v700h258zM328 348c34 0 62 11.5 84 34.5s33 52.167 33 87.5s-11 64.5 -33 87.5s-50 34.5 -84 34.5h-143v-244h143z" />
    <glyph glyph-name="Q" unicode="Q" horiz-adv-x="801" 
d="M761 350c0 -93.333 -30.668 -173.999 -92.001 -241.999l74 -76l-81 -73l-77 79c-58.667 -34 -121 -51 -187 -51c-100.667 0 -186.334 35.167 -257.001 105.5s-106 156.166 -106 257.499s35.333 187.166 106 257.499s156.334 105.5 257.001 105.5
s186.334 -35.167 257.001 -105.5s106 -156.166 106 -257.499zM397.999 99.001c37.333 0 72.333 7.66699 105 23l-128 131l81 73l134 -137c37.333 46 56 99.667 56 161c0 71.333 -24 131 -72 179s-106.667 72 -176 72s-128 -24 -176 -72s-72 -107.667 -72 -179
s24 -131 72 -179s106.667 -72 176 -72z" />
    <glyph glyph-name="R" unicode="R" horiz-adv-x="613" 
d="M469 0l-148.001 255.001h-136v-255h-115v700h280c62.667 0 115.834 -21.833 159.501 -65.5s65.5 -96.834 65.5 -159.501c0 -44.667 -12.833 -85.5 -38.5 -122.5s-59.167 -63.833 -100.5 -80.5l159 -272h-126zM184.999 592.001v-234.002h165c30.667 0 56.667 11.333 78 34
s32 50.334 32 83.001s-10.667 60.334 -32 83.001s-47.333 34 -78 34h-165z" />
    <glyph glyph-name="S" unicode="S" horiz-adv-x="581" 
d="M303 -13c-67.333 0 -124.498 15.332 -171.498 45.999s-79.833 72.667 -98.5 126l99 58c28 -78.667 86 -118 174 -118c43.333 0 75.833 8.5 97.5 25.5s32.5 39.167 32.5 66.5c0 28.667 -11.667 50.5 -35 65.5s-64.666 31.5 -123.999 49.5
c-33.333 10 -60.333 19.333 -81 28s-42.5 20.834 -65.5 36.501s-40.167 35.167 -51.5 58.5s-17 50.666 -17 81.999c0 62 22 111.167 66 147.5s97 54.5 159 54.5c56 0 105 -13.667 147 -41s74.333 -65 97 -113l-97 -56c-29.333 65.333 -78.333 98 -147 98
c-33.333 0 -60 -7.83301 -80 -23.5s-30 -36.834 -30 -63.501c0 -26 10.167 -46.5 30.5 -61.5s57.166 -30.833 110.499 -47.5c26.667 -8.66699 46.167 -15.167 58.5 -19.5s29.666 -11.166 51.999 -20.499s39.166 -18.666 50.499 -27.999s23.5 -21 36.5 -35
s22.167 -30 27.5 -48s8 -38.333 8 -61c0 -63.333 -22.833 -113.5 -68.5 -150.5s-105.5 -55.5 -179.5 -55.5z" />
    <glyph glyph-name="T" unicode="T" horiz-adv-x="540" 
d="M525 700v-110h-197v-590h-115v590h-198v110h510z" />
    <glyph glyph-name="U" unicode="U" horiz-adv-x="655" 
d="M328 -13c-78 0 -141.667 22.167 -191 66.5s-74 103.833 -74 178.5v468h115v-461c0 -42.667 12.5 -76.667 37.5 -102s62.5 -38 112.5 -38s87.5 12.667 112.5 38s37.5 59.333 37.5 102v461h115v-468c0 -74.667 -24.667 -134.167 -74 -178.5s-113 -66.5 -191 -66.5z" />
    <glyph glyph-name="V" unicode="V" horiz-adv-x="634" 
d="M248 0l-243 700h126l186 -561l187 561h125l-243 -700h-138z" />
    <glyph glyph-name="W" unicode="W" horiz-adv-x="999" 
d="M218 0l-198 700h121l147 -547l159 547h106l158 -547l147 547h121l-198 -700h-133l-148 511l-149 -511h-133z" />
    <glyph glyph-name="X" unicode="X" horiz-adv-x="600" 
d="M585 0h-131l-154 253l-154 -253h-131l220 360l-207 340h130l142 -233l142 233h131l-207 -340z" />
    <glyph glyph-name="Y" unicode="Y" horiz-adv-x="613" 
d="M608 700l-244 -422v-278h-115v278l-244 422h131l171 -310l170 310h131z" />
    <glyph glyph-name="Z" unicode="Z" horiz-adv-x="530" 
d="M181 110h322v-110h-465v95l314 495h-307v110h450v-95z" />
    <glyph glyph-name="bracketleft" unicode="[" horiz-adv-x="300" 
d="M280 696h-117v-692h117v-104h-225v900h225v-104z" />
    <glyph glyph-name="backslash" unicode="\" horiz-adv-x="525" 
d="M435 -100l-400 900h55l400 -900h-55z" />
    <glyph glyph-name="bracketright" unicode="]" horiz-adv-x="300" 
d="M245 800v-900h-225v104h117v692h-117v104h225z" />
    <glyph glyph-name="asciicircum" unicode="^" horiz-adv-x="540" 
d="M314 700l186 -320h-118l-112 197l-111 -197h-119l186 320h88z" />
    <glyph glyph-name="underscore" unicode="_" horiz-adv-x="520" 
d="M35 -161v104h450v-104h-450z" />
    <glyph glyph-name="grave" unicode="`" horiz-adv-x="250" 
d="M230 565l-80 135h-130l106 -135h104z" />
    <glyph glyph-name="a" unicode="a" 
d="M459 500h108v-500h-108v72c-40.667 -56.667 -99 -85 -175 -85c-68.667 0 -127.334 25.5 -176.001 76.5s-73 113.167 -73 186.5c0 74 24.333 136.333 73 187s107.334 76 176.001 76c76 0 134.333 -28 175 -84v71zM301 90c45.333 0 83 15.167 113 45.5s45 68.5 45 114.5
s-15 84.167 -45 114.5s-67.667 45.5 -113 45.5s-83 -15.167 -113 -45.5s-45 -68.5 -45 -114.5s15 -84.167 45 -114.5s67.667 -45.5 113 -45.5z" />
    <glyph glyph-name="b" unicode="b" 
d="M346 513c68.667 0 127.334 -25.333 176.001 -76s73 -113 73 -187c0 -73.333 -24.333 -135.5 -73 -186.5s-107.334 -76.5 -176.001 -76.5c-76 0 -134.333 28.333 -175 85v-72h-108v700h108v-271c40.667 56 99 84 175 84zM329 90c45.333 0 83 15.167 113 45.5
s45 68.5 45 114.5s-15 84.167 -45 114.5s-67.667 45.5 -113 45.5s-83 -15.167 -113 -45.5s-45 -68.5 -45 -114.5s15 -84.167 45 -114.5s67.667 -45.5 113 -45.5z" />
    <glyph glyph-name="c" unicode="c" horiz-adv-x="542" 
d="M299 -13c-75.333 0 -138.166 25.332 -188.499 75.999s-75.5 113 -75.5 187c0 74.667 25.167 137.167 75.5 187.5s113.166 75.5 188.499 75.5c48.667 0 93 -11.667 133 -35s70 -54.666 90 -93.999l-93 -54c-11.333 24 -28.5 42.833 -51.5 56.5s-49.5 20.5 -79.5 20.5
c-44 0 -80.833 -15 -110.5 -45s-44.5 -67.333 -44.5 -112s14.833 -82 44.5 -112s66.5 -45 110.5 -45c29.333 0 55.833 7 79.5 21s41.5 32.667 53.5 56l93 -53c-21.333 -40 -52 -71.667 -92 -95s-84.333 -35 -133 -35z" />
    <glyph glyph-name="d" unicode="d" 
d="M459 700h108v-700h-108v72c-40.667 -56.667 -99 -85 -175 -85c-68.667 0 -127.334 25.5 -176.001 76.5s-73 113.167 -73 186.5c0 74 24.333 136.333 73 187s107.334 76 176.001 76c76 0 134.333 -28 175 -84v271zM301 90c45.333 0 83 15.167 113 45.5s45 68.5 45 114.5
s-15 84.167 -45 114.5s-67.667 45.5 -113 45.5s-83 -15.167 -113 -45.5s-45 -68.5 -45 -114.5s15 -84.167 45 -114.5s67.667 -45.5 113 -45.5z" />
    <glyph glyph-name="e" unicode="e" horiz-adv-x="582" 
d="M148 204c8 -38 26.334 -67.168 55.001 -87.501s63.667 -30.5 105 -30.5c57.333 0 100.333 20.667 129 62l89 -52c-49.333 -72.667 -122.333 -109 -219 -109c-81.333 0 -147 24.833 -197 74.5s-75 112.5 -75 188.5c0 74.667 24.667 137.167 74 187.5
s112.666 75.5 189.999 75.5c73.333 0 133.5 -25.667 180.5 -77s70.5 -113.666 70.5 -186.999c0 -11.333 -1.33301 -26.333 -4 -45h-398zM147.001 291.999l293.998 -0.000976562c-7.33301 40.667 -24.166 71.334 -50.499 92.001s-57.166 31 -92.499 31
c-40 0 -73.333 -11 -100 -33s-43.667 -52 -51 -90z" />
    <glyph glyph-name="f" unicode="f" horiz-adv-x="325" 
d="M325 609c-78.667 7.33301 -118 -25.668 -118 -99.001v-10h118v-104h-118v-396h-108v396h-76v104h76v10c0 68.667 19.167 120.834 57.5 156.501s94.5 51.167 168.5 46.5v-104z" />
    <glyph glyph-name="g" unicode="g" 
d="M461 500l106 0.00292969v-477c0 -76 -25 -134.333 -75 -175s-110.667 -61 -182 -61c-115.333 0 -194.333 40.333 -237 121l93 54c26 -51.333 74.667 -77 146 -77c46.667 0 83.167 12.167 109.5 36.5s39.5 58.166 39.5 101.499v61c-40.667 -58 -98.667 -87 -174 -87
c-70.667 0 -130.334 25.167 -179.001 75.5s-73 111.166 -73 182.499s24.333 132.166 73 182.499s108.334 75.5 179.001 75.5c75.333 0 133.333 -29 174 -87v74zM302 98.0029c45.333 0 83.166 15 113.499 45s45.5 67.333 45.5 112s-15.167 82 -45.5 112
s-68.166 45 -113.499 45s-83.166 -15 -113.499 -45s-45.5 -67.333 -45.5 -112s15.167 -82 45.5 -112s68.166 -45 113.499 -45z" />
    <glyph glyph-name="h" unicode="h" horiz-adv-x="571" 
d="M326 513c57.333 0 103.666 -18.332 138.999 -54.999s53 -87 53 -151v-307h-108v296c0 37.333 -10 66 -30 86s-47.333 30 -82 30c-38 0 -68.667 -11.833 -92 -35.5s-35 -59.834 -35 -108.501v-268h-108v700h108v-264c32.667 51.333 84.334 77 155.001 77z" />
    <glyph glyph-name="i" unicode="i" horiz-adv-x="233" 
d="M117 575c-18.667 0 -34.8301 6.83301 -48.4971 20.5s-20.5 29.834 -20.5 48.501s6.66699 34.834 20 48.501s29.666 20.5 48.999 20.5s35.666 -6.83301 48.999 -20.5s20 -29.834 20 -48.501s-6.83301 -34.834 -20.5 -48.501s-29.834 -20.5 -48.501 -20.5zM63.0039 0v500
h108v-500h-108z" />
    <glyph glyph-name="j" unicode="j" horiz-adv-x="253" 
d="M136 575c-18.667 0 -34.834 6.83301 -48.501 20.5s-20.5 29.834 -20.5 48.501s6.83301 34.834 20.5 48.501s29.834 20.5 48.501 20.5s34.834 -6.83301 48.501 -20.5s20.5 -29.834 20.5 -48.501s-6.83301 -34.834 -20.5 -48.501s-29.834 -20.5 -48.501 -20.5zM82 -20v520
h108v-520c0 -138.667 -68.333 -203 -205 -193v104c33.333 -3.33301 57.833 2 73.5 16s23.5 38.333 23.5 73z" />
    <glyph glyph-name="k" unicode="k" horiz-adv-x="515" 
d="M505 0h-129l-205 231v-231h-108v700h108v-421l194 221h132l-220 -245z" />
    <glyph glyph-name="l" unicode="l" horiz-adv-x="233" 
d="M63 0v730h108v-730h-108z" />
    <glyph glyph-name="m" unicode="m" horiz-adv-x="851" 
d="M609 513c56.667 0 102.334 -18.334 137.001 -55.001s52 -86 52 -148v-310h-108v303c0 34.667 -8.66699 61.5 -26 80.5s-41 28.5 -71 28.5c-33.333 0 -59.833 -11 -79.5 -33s-29.5 -55 -29.5 -99v-280h-108v303c0 34.667 -8.16699 61.5 -24.5 80.5s-39.5 28.5 -69.5 28.5
c-32.667 0 -59.334 -11.167 -80.001 -33.5s-31 -55.166 -31 -98.499v-280h-108v500h108v-60c32 48.667 79.667 73 143 73c64 0 111.333 -26.333 142 -79c33.333 52.667 84.333 79 153 79z" />
    <glyph glyph-name="n" unicode="n" horiz-adv-x="571" 
d="M326 513c57.333 0 103.666 -18.332 138.999 -54.999s53 -87 53 -151v-307h-108v296c0 37.333 -10 66 -30 86s-47.333 30 -82 30c-38 0 -68.667 -11.833 -92 -35.5s-35 -59.834 -35 -108.501v-268h-108v500h108v-64c32.667 51.333 84.334 77 155.001 77z" />
    <glyph glyph-name="o" unicode="o" horiz-adv-x="598" 
d="M299 -13c-73.333 0 -135.666 25.333 -186.999 76s-77 113 -77 187s25.667 136.333 77 187s113.666 76 186.999 76c74 0 136.5 -25.333 187.5 -76s76.5 -113 76.5 -187s-25.5 -136.333 -76.5 -187s-113.5 -76 -187.5 -76zM299 92c44 0 81 15 111 45s45 67.667 45 113
s-15 83 -45 113s-67 45 -111 45s-81 -15 -111 -45s-45 -67.667 -45 -113s15 -83 45 -113s67 -45 111 -45z" />
    <glyph glyph-name="p" unicode="p" 
d="M346 513c68.667 0 127.334 -25.5 176.001 -76.5s73 -113.167 73 -186.5c0 -74 -24.333 -136.333 -73 -187s-107.334 -76 -176.001 -76c-76 0 -134.333 28 -175 84v-271h-108v700h108v-72c40.667 56.667 99 85 175 85zM329 90c45.333 0 83 15.167 113 45.5
s45 68.5 45 114.5s-15 84.167 -45 114.5s-67.667 45.5 -113 45.5s-83 -15.167 -113 -45.5s-45 -68.5 -45 -114.5s15 -84.167 45 -114.5s67.667 -45.5 113 -45.5z" />
    <glyph glyph-name="q" unicode="q" 
d="M459 500h108v-700h-108v271c-40.667 -56 -99 -84 -175 -84c-68.667 0 -127.334 25.333 -176.001 76s-73 113 -73 187c0 73.333 24.333 135.5 73 186.5s107.334 76.5 176.001 76.5c76 0 134.333 -28.333 175 -85v72zM301 90c45.333 0 83 15.167 113 45.5s45 68.5 45 114.5
s-15 84.167 -45 114.5s-67.667 45.5 -113 45.5s-83 -15.167 -113 -45.5s-45 -68.5 -45 -114.5s15 -84.167 45 -114.5s67.667 -45.5 113 -45.5z" />
    <glyph glyph-name="r" unicode="r" horiz-adv-x="342" 
d="M171 416c27.333 62 78.667 92.998 154 92.998v-117c-41.333 2.66699 -77.333 -7.16602 -108 -29.499s-46 -59.166 -46 -110.499v-252h-108v500h108v-84z" />
    <glyph glyph-name="s" unicode="s" horiz-adv-x="461" 
d="M160 362c0 -16.667 9.16699 -29.835 27.5 -39.502s40.666 -18 66.999 -25s52.833 -15.167 79.5 -24.5s49.167 -25.166 67.5 -47.499s27.5 -50.5 27.5 -84.5c0 -48 -18.5 -85.667 -55.5 -113s-83.5 -41 -139.5 -41c-49.333 0 -91.666 10.333 -126.999 31
s-61 49.334 -77 86.001l93 54c17.333 -48 54.333 -72 111 -72s85 18.667 85 56c0 16 -9.16699 29 -27.5 39s-40.666 18.5 -66.999 25.5s-52.833 15.167 -79.5 24.5s-49.167 24.833 -67.5 46.5s-27.5 49.167 -27.5 82.5c0 46 17.5 83 52.5 111s78.5 42 130.5 42
c41.333 0 78.166 -9.16699 110.499 -27.5s57.166 -43.833 74.499 -76.5l-91 -51c-17.333 38 -48.666 57 -93.999 57c-20.667 0 -38 -4.5 -52 -13.5s-21 -22.167 -21 -39.5z" />
    <glyph glyph-name="t" unicode="t" horiz-adv-x="382" 
d="M342 396l-123.998 0.000976562v-240c0 -20.667 4.66699 -35.5 14 -44.5s23.166 -14 41.499 -15s41.166 -0.833008 68.499 0.5v-97c-82.667 -10 -142 -2.83301 -178 21.5s-54 69.166 -54 134.499v240h-92v104h92v108l108 32v-140h124v-104z" />
    <glyph glyph-name="u" unicode="u" horiz-adv-x="571" 
d="M400 500l108 -0.000976562v-500h-108v64c-32.667 -51.333 -84.334 -77 -155.001 -77c-57.333 0 -103.666 18.333 -138.999 55s-53 87 -53 151v307h108v-296c0 -37.333 10 -66 30 -86s47.333 -30 82 -30c38 0 68.667 11.833 92 35.5s35 59.834 35 108.501v268z" />
    <glyph glyph-name="v" unicode="v" horiz-adv-x="525" 
d="M402 500h118l-195 -500h-125l-195 500h118l140 -380z" />
    <glyph glyph-name="w" unicode="w" horiz-adv-x="770" 
d="M639 500h114l-157 -500h-106l-104 337l-105 -337h-106l-157 500h114l97 -345l105 345h103l104 -345z" />
    <glyph glyph-name="x" unicode="x" horiz-adv-x="520" 
d="M510 0h-125l-124 171l-125 -171h-126l188 257l-178 243h125l115 -158l115 158h126l-178 -244z" />
    <glyph glyph-name="y" unicode="y" horiz-adv-x="520" 
d="M400 500l115 -0.000976562l-192 -516c-48 -129.333 -129.333 -190.666 -244 -183.999v101c34 -2 61.333 5.16699 82 21.5s37.667 41.833 51 76.5l5 10l-212 491h118l149 -363z" />
    <glyph glyph-name="z" unicode="z" horiz-adv-x="473" 
d="M192 102h243v-102h-390v72l234 326h-224v102h370v-72z" />
    <glyph glyph-name="braceleft" unicode="{" horiz-adv-x="357" 
d="M337 -108c-133.333 -10 -200 49.665 -200 178.998v154c0 31.333 -7 51.833 -21 61.5s-36 13.834 -66 12.501v105c30 -1.33301 52 2.83398 66 12.501s21 30.167 21 61.5v154c0 128.667 66.667 188 200 178v-104c-32 4 -55.333 0.666992 -70 -10s-22 -32 -22 -64v-154
c0 -64 -21.667 -106 -65 -126c43.333 -21.333 65 -63.666 65 -126.999v-154c0 -32 7.33301 -53.333 22 -64s38 -14.334 70 -11.001v-104z" />
    <glyph glyph-name="bar" unicode="|" horiz-adv-x="248" 
d="M70 -200v920h108v-920h-108z" />
    <glyph glyph-name="braceright" unicode="}" horiz-adv-x="357" 
d="M20 -108v104.002c32 -3.33301 55.333 0.333984 70 11.001s22 32 22 64v154c0 63.333 21.667 105.666 65 126.999c-43.333 20 -65 62 -65 126v154c0 32 -7.33301 53.333 -22 64s-38 14 -70 10v104c133.333 10 200 -49.333 200 -178v-154c0 -31.333 7 -51.833 21 -61.5
s36 -13.834 66 -12.501v-105c-30 1.33301 -52 -2.83398 -66 -12.501s-21 -30.167 -21 -61.5v-154c0 -129.333 -66.667 -189 -200 -179z" />
    <glyph glyph-name="asciitilde" unicode="~" horiz-adv-x="597" 
d="M457 433l89.999 -43c-17.333 -62.667 -48.166 -102.5 -92.499 -119.5s-96.833 -9.5 -157.5 22.5c-50.667 26 -86.667 37 -108 33s-37.666 -24.333 -48.999 -61l-90 43c17.333 62.667 48.5 102.5 93.5 119.5s97.5 9.5 157.5 -22.5
c51.333 -26 87.166 -36.833 107.499 -32.5s36.5 24.5 48.5 60.5z" />
    <glyph glyph-name="exclamdown" unicode="&#xa1;" horiz-adv-x="255" 
d="M128 512c20.667 0 38.332 -7.33301 52.999 -22s22 -32.334 22 -53.001s-7.33301 -38.334 -22 -53.001s-32.334 -22 -53.001 -22c-21.333 0 -39.166 7.33301 -53.499 22s-21.5 32.334 -21.5 53.001s7.33301 38.334 22 53.001s32.334 22 53.001 22zM84.998 280h85l23 -280
v-200h-130v200z" />
    <glyph glyph-name="cent" unicode="&#xa2;" horiz-adv-x="542" 
d="M431 270l92.999 -53.001c-21.333 -40 -52 -71.667 -92 -95s-84.333 -35 -133 -35c-23.333 0 -44.666 2.33301 -63.999 7l-30 -94h-55l36 111c-46 20.667 -82.667 52.334 -110 95.001s-41 90.667 -41 144c0 74.667 25.167 137.167 75.5 187.5s113.166 75.5 188.499 75.5
c18 0 34 -1.33301 48 -4l29 91h55l-34 -105c56.667 -22.667 98.334 -59.667 125.001 -111l-93 -54c-13.333 28.667 -35 49.667 -65 63l-96 -297c10 -2 20 -3 30 -3c29.333 0 55.833 7 79.5 21s41.5 32.667 53.5 56zM142.999 349.999c0 -29.333 6.83301 -56 20.5 -80
s32.167 -42.667 55.5 -56l94 292c-3.33301 0.666992 -8.33301 1 -15 1c-44 0 -80.833 -15 -110.5 -45s-44.5 -67.333 -44.5 -112z" />
    <glyph glyph-name="sterling" unicode="&#xa3;" horiz-adv-x="583" 
d="M230 111l340 0.000976562v-111h-535v111h80v168h-65v101h65v118c0 69.333 21.333 122.5 64 159.5s93 55.5 151 55.5c49.333 0 92 -12.333 128 -37s63 -59.334 81 -104.001l-98 -56c-19.333 56.667 -55.333 85 -108 85c-29.333 0 -53.833 -9 -73.5 -27
s-29.5 -44.667 -29.5 -80v-114h213v-101h-213v-168z" />
    <glyph glyph-name="currency" unicode="&#xa4;" horiz-adv-x="546" 
d="M487 350c0 -50 -15.333 -94 -46 -132l70 -70l-36 -36l-70 71c-38 -29.333 -82 -44 -132 -44c-49.333 0 -93 14.667 -131 44l-71 -71l-36 36l70 70c-30.667 38 -46 82 -46 132c0 50.667 15.333 95 46 133l-70 69l36 36l71 -70c38 28.667 81.667 43 131 43
c50 0 94 -14.333 132 -43l70 70l36 -36l-69 -70c30 -38.667 45 -82.667 45 -132zM273 242c30.667 0 56.167 10.167 76.5 30.5s30.5 46.166 30.5 77.499s-10.167 57.166 -30.5 77.499s-45.833 30.5 -76.5 30.5s-56.167 -10.167 -76.5 -30.5s-30.5 -46.166 -30.5 -77.499
s10.167 -57.166 30.5 -77.499s45.833 -30.5 76.5 -30.5z" />
    <glyph glyph-name="yen" unicode="&#xa5;" horiz-adv-x="593" 
d="M608 700l-198 -343h112v-73h-155l-3 -6v-44h158v-73h-158v-161h-115v161h-177v73h177v44l-3 6h-174v73h131l-198 343h131l171 -310l170 310h131z" />
    <glyph glyph-name="brokenbar" unicode="&#xa6;" horiz-adv-x="248" 
d="M70 350v370h108v-370h-108zM70 -200v370h108v-370h-108z" />
    <glyph glyph-name="section" unicode="&#xa7;" horiz-adv-x="531" 
d="M494 277c0 -50.667 -20.334 -92.9951 -61.001 -126.995c24.667 -26.667 37 -60.334 37 -101.001c0 -49.333 -18.167 -88.5 -54.5 -117.5s-82.833 -43.5 -139.5 -43.5c-109.333 0 -182 43 -218 129l96 54c18.667 -57.333 59.334 -86 122.001 -86
c26 0 46.833 5.66699 62.5 17s23.5 27 23.5 47c0 7.33301 -1.33301 14.166 -4 20.499s-7.16699 12.333 -13.5 18s-12.5 10.667 -18.5 15s-14.667 9.16602 -26 14.499l-27.5 13c-7 3.33301 -17.833 7.83301 -32.5 13.5s-25.667 10.167 -33 13.5
c-47.333 19.333 -84.833 42.166 -112.5 68.499s-41.5 61.166 -41.5 104.499c0 50.667 21.333 92.334 64 125.001c-22 27.333 -33 60.333 -33 99c0 48.667 17.667 87.334 53 116.001s79.333 43 132 43c43.333 0 82 -10.667 116 -32s59.667 -52 77 -92l-89 -49
c-22 50.667 -56.667 76 -104 76c-22 0 -40.333 -5.5 -55 -16.5s-22 -26.167 -22 -45.5c0 -5.33301 0.666992 -10.5 2 -15.5s3.83301 -9.83301 7.5 -14.5s7.16699 -8.83398 10.5 -12.501s8.5 -7.66699 15.5 -12l17.5 -10.5c4.66699 -2.66699 11.667 -6.16699 21 -10.5
l21.5 -10c5 -2.33301 13 -5.83301 24 -10.5s19.167 -8 24.5 -10c48.667 -20 87.167 -42.833 115.5 -68.5s42.5 -59.834 42.5 -102.501zM160.999 335.005c0 -21.333 8 -39 24 -53s39 -26.667 69 -38c64.667 -25.333 98 -38.333 100 -39c21.333 16 32 36.667 32 62
c0 22 -8.66699 39.833 -26 53.5s-42 26.834 -74 39.501c-4 1.33301 -17.167 6.5 -39.5 15.5s-39.5 16.167 -51.5 21.5c-22.667 -14.667 -34 -35.334 -34 -62.001z" />
    <glyph glyph-name="dieresis" unicode="&#xa8;" horiz-adv-x="350" 
d="M80 558c-16.667 0 -30.834 5.83301 -42.501 17.5s-17.5 25.834 -17.5 42.501s5.83301 30.834 17.5 42.501s25.834 17.5 42.501 17.5s30.834 -5.83301 42.501 -17.5s17.5 -25.834 17.5 -42.501s-5.83301 -30.834 -17.5 -42.501s-25.834 -17.5 -42.501 -17.5zM270 558
c-16.667 0 -30.834 5.83301 -42.501 17.5s-17.5 25.834 -17.5 42.501s5.83301 30.834 17.5 42.501s25.834 17.5 42.501 17.5s30.834 -5.83301 42.501 -17.5s17.5 -25.834 17.5 -42.501s-5.83301 -30.834 -17.5 -42.501s-25.834 -17.5 -42.501 -17.5z" />
    <glyph glyph-name="copyright" unicode="&#xa9;" horiz-adv-x="794" 
d="M397 -12c-100 0 -185.333 35.333 -256 106s-106 156 -106 256s35.333 185.333 106 256s156 106 256 106s185.333 -35.333 256 -106s106 -156 106 -256s-35.333 -185.333 -106 -256s-156 -106 -256 -106zM397 20c90.667 0 167.834 32.1689 231.501 96.502
s95.5 142.166 95.5 233.499s-31.833 169.166 -95.5 233.499s-140.834 96.5 -231.501 96.5c-90 0 -167 -32.167 -231 -96.5s-96 -142.166 -96 -233.499c0 -90.667 32 -168.334 96 -233.001s141 -97 231 -97zM400 156.002c-54.667 0 -100.999 19 -138.999 57
s-57 83.667 -57 137s19 99.166 57 137.499s84.333 57.5 139 57.5c35.333 0 67.666 -8.5 96.999 -25.5s52.666 -40.167 69.999 -69.5l-83 -48c-7.33301 14.667 -18.666 26.334 -33.999 35.001s-32.333 13 -51 13c-30 0 -54.167 -9.83301 -72.5 -29.5
s-27.5 -43.167 -27.5 -70.5c0 -26.667 9.16699 -50 27.5 -70s42.5 -30 72.5 -30c40.667 0 69.334 16.333 86.001 49l82 -48c-16.667 -29.333 -39.834 -52.5 -69.501 -69.5s-62.167 -25.5 -97.5 -25.5z" />
    <glyph glyph-name="guillemotleft" unicode="&#xab;" horiz-adv-x="527" 
d="M282 494l-110 -185l110 -185h-107l-110 185l110 185h107zM462 494l-110 -185l110 -185h-107l-110 185l110 185h107z" />
    <glyph glyph-name="logicalnot" unicode="&#xac;" horiz-adv-x="540" 
d="M50 401h440v-220h-108v118h-332v102z" />
    <glyph glyph-name="registered" unicode="&#xae;" horiz-adv-x="794" 
d="M397 712c100 0 185.333 -35.333 256 -106s106 -156 106 -256s-35.333 -185.333 -106 -256s-156 -106 -256 -106s-185.333 35.333 -256 106s-106 156 -106 256s35.333 185.333 106 256s156 106 256 106zM397 20c90.667 0 167.834 32.1689 231.501 96.502
s95.5 142.166 95.5 233.499s-31.833 169.166 -95.5 233.499s-140.834 96.5 -231.501 96.5c-90 0 -167 -32.167 -231 -96.5s-96 -142.166 -96 -233.499c0 -90.667 32 -168.334 96 -233.001s141 -97 231 -97zM549 414.002c0 -50 -19.667 -86.667 -59 -110l76 -139h-100
l-59 117h-45v-117h-92v370h137c41.333 0 75.333 -11.5 102 -34.5s40 -51.833 40 -86.5zM362 450.002v-88h40c17.333 0 30.833 4 40.5 12s14.5 18.667 14.5 32c0 29.333 -18.333 44 -55 44h-40z" />
    <glyph glyph-name="macron" unicode="&#xaf;" horiz-adv-x="320" 
d="M20 570v89h280v-89h-280z" />
    <glyph glyph-name="degree" unicode="&#xb0;" horiz-adv-x="396" 
d="M198 490c-46.667 0 -85.5 15.5 -116.5 46.5s-46.5 68.833 -46.5 113.5s15.5 82.5 46.5 113.5s69.833 46.5 116.5 46.5s85.5 -15.5 116.5 -46.5s46.5 -68.833 46.5 -113.5s-15.333 -82.5 -46 -113.5s-69.667 -46.5 -117 -46.5zM198 580c20.667 0 37.333 6.66699 50 20
s19 30 19 50s-6.5 36.667 -19.5 50s-29.5 20 -49.5 20s-36.5 -6.66699 -49.5 -20s-19.5 -30 -19.5 -50s6.5 -36.667 19.5 -50s29.5 -20 49.5 -20z" />
    <glyph glyph-name="plusminus" unicode="&#xb1;" horiz-adv-x="550" 
d="M326 484h169v-102h-169v-152h-102v152h-169v102h169v151h102v-151zM55 65v102h440v-102h-440z" />
    <glyph glyph-name="acute" unicode="&#xb4;" horiz-adv-x="250" 
d="M20 565h104l106 135h-130z" />
    <glyph glyph-name="uni00B5" unicode="&#xb5;" horiz-adv-x="613" 
d="M551 102h37v-102h-56c-50.667 -0 -86.334 19.333 -107.001 58c-33.333 -47.333 -83.666 -71 -150.999 -71c-40 0 -74.333 9.66699 -103 29v-216h-108v700h108v-296c0 -36.667 10 -65.167 30 -85.5s47 -30.5 81 -30.5c38.667 0 69.667 11.833 93 35.5s35 60.167 35 109.5
v267h108v-365c0 -10 3 -18 9 -24s14 -9 24 -9z" />
    <glyph glyph-name="paragraph" unicode="&#xb6;" horiz-adv-x="639" 
d="M595 700v-96h-61v-804h-102v804h-90v-804h-102v480c-58 0 -107.5 20.667 -148.5 62s-61.5 90.666 -61.5 147.999c0 58.667 20.5 108.334 61.5 149.001s90.5 61 148.5 61h355z" />
    <glyph glyph-name="periodcentered" unicode="&#xb7;" horiz-adv-x="255" 
d="M128 273c-20.667 0 -38.332 7.33496 -52.999 22.002s-22 32.334 -22 53.001c0 21.333 7.16699 39.166 21.5 53.499s32.166 21.5 53.499 21.5c20.667 0 38.334 -7.33301 53.001 -22s22 -32.334 22 -53.001s-7.33301 -38.334 -22 -53.001s-32.334 -22 -53.001 -22z" />
    <glyph glyph-name="cedilla" unicode="&#xb8;" horiz-adv-x="255" 
d="M157 -46c22.667 -4 41.333 -12.833 56 -26.5s22 -31.167 22 -52.5c0 -69.333 -71.667 -99.666 -215 -90.999v79c80.667 -6.66699 121 1.66602 121 24.999c0 18 -24.333 28 -73 30v82h89v-46z" />
    <glyph glyph-name="guillemotright" unicode="&#xbb;" horiz-adv-x="527" 
d="M172 494l110 -185l-110 -185h-107l110 185l-110 185h107zM352 494l110 -185l-110 -185h-107l110 185l-110 185h107z" />
    <glyph glyph-name="onequarter" unicode="&#xbc;" horiz-adv-x="817" 
d="M204 300h-92v306l-85 -25l-22 76l119 43h80v-400zM521 700h80l-400 -700h-80zM800 152v-84h-44v-68h-89v68h-193v84l135 248h99l-132 -248h91v79h89v-79h44z" />
    <glyph glyph-name="onehalf" unicode="&#xbd;" horiz-adv-x="812" 
d="M204 300h-92v306l-85 -25l-22 76l119 43h80v-400zM521 700h80l-400 -700h-80zM625 85h154.999v-85h-293v64l157 151c24.667 23.333 37 46.333 37 69c0 13.333 -4.66699 24 -14 32s-22 12 -38 12c-32 0 -55.333 -18 -70 -54l-75 42c12.667 30 31.334 53.667 56.001 71
s54.667 26 90 26c42 0 76.333 -11.667 103 -35s40 -53 40 -89c0 -43.333 -22 -86 -66 -128z" />
    <glyph glyph-name="threequarters" unicode="&#xbe;" horiz-adv-x="905" 
d="M319 419c0 -41.333 -13.667 -73.6689 -41 -97.002s-64.333 -35 -111 -35c-74.667 0 -125.334 29 -152.001 87l78 45c13.333 -33.333 38 -50 74 -50c19.333 0 34 4.5 44 13.5s15 21.167 15 36.5s-5.5 27.5 -16.5 36.5s-26.167 13.5 -45.5 13.5h-14l-36 55l75 91h-158v85
h270v-72l-78 -93c30.667 -7.33301 54.334 -21.166 71.001 -41.499s25 -45.166 25 -74.499zM609 699.997h80l-400 -700h-80zM888 151.997v-84h-44v-68h-89v68h-193v84l135 248h99l-132 -248h91v79h89v-79h44z" />
    <glyph glyph-name="questiondown" unicode="&#xbf;" horiz-adv-x="546" 
d="M288 512c20.667 0 38.332 -7.33301 52.999 -22s22 -32.334 22 -53.001s-7.16699 -38.334 -21.5 -53.001s-32.166 -22 -53.499 -22c-20.667 0 -38.334 7.33301 -53.001 22s-22 32.334 -22 53.001s7.33301 38.334 22 53.001s32.334 22 53.001 22zM345.998 280
c0 -27.333 -5.99902 -52.666 -17.999 -75.999s-26.667 -43.5 -44 -60.5l-52 -49c-17.333 -15.667 -32 -32.667 -44 -51s-18 -37.5 -18 -57.5c0 -28 9.66699 -49.5 29 -64.5s45.333 -22.5 78 -22.5c31.333 0 58.333 8 81 24s39 38.667 49 68l99 -56
c-18.667 -47.333 -48.834 -83.833 -90.501 -109.5s-88.834 -38.5 -141.501 -38.5c-59.333 0 -110.666 17 -153.999 51s-65 81 -65 141c0 28 6 54.167 18 78.5s26.667 45.166 44 62.499l52 50.5c17.333 16.333 32 33.833 44 52.5s18 37.667 18 57h115z" />
    <glyph glyph-name="Agrave" unicode="&#xc0;" horiz-adv-x="655" 
d="M403 765h-104l-106 135h130zM526 0l-49 141h-298l-49 -141h-125l254 700h138l253 -700h-124zM217 249h222l-111 316z" />
    <glyph glyph-name="Aacute" unicode="&#xc1;" horiz-adv-x="655" 
d="M468 900l-106 -135h-104l80 135h130zM526 0l-49 141h-298l-49 -141h-125l254 700h138l253 -700h-124zM217 249h222l-111 316z" />
    <glyph glyph-name="Acircumflex" unicode="&#xc2;" horiz-adv-x="655" 
d="M326 834l-53 -74h-110l106 140h113l106 -140h-110zM526 0l-49 141h-298l-49 -141h-125l254 700h138l253 -700h-124zM217 249h222l-111 316z" />
    <glyph glyph-name="Atilde" unicode="&#xc3;" horiz-adv-x="655" 
d="M320 790c-22 17.333 -38 24.833 -48 22.5s-15 -17.5 -15 -45.5h-89c0 46.667 8.66699 81.667 26 105s38.5 34.666 63.5 33.999s51.5 -10.334 79.5 -29.001c21.333 -17.333 37 -24.833 47 -22.5s15 17.5 15 45.5h89c0 -46.667 -8.5 -81.667 -25.5 -105
s-38 -34.666 -63 -33.999s-51.5 10.334 -79.5 29.001zM526 0l-49 141h-298l-49 -141h-125l254 700h138l253 -700h-124zM217 249h222l-111 316z" />
    <glyph glyph-name="Adieresis" unicode="&#xc4;" horiz-adv-x="655" 
d="M233 758c-16.667 0 -30.834 5.83301 -42.501 17.5s-17.5 25.834 -17.5 42.501s5.83301 30.834 17.5 42.501s25.834 17.5 42.501 17.5s30.834 -5.83301 42.501 -17.5s17.5 -25.834 17.5 -42.501s-5.83301 -30.834 -17.5 -42.501s-25.834 -17.5 -42.501 -17.5zM423 758
c-16.667 0 -30.834 5.83301 -42.501 17.5s-17.5 25.834 -17.5 42.501s5.83301 30.834 17.5 42.501s25.834 17.5 42.501 17.5s30.834 -5.83301 42.501 -17.5s17.5 -25.834 17.5 -42.501s-5.83301 -30.834 -17.5 -42.501s-25.834 -17.5 -42.501 -17.5zM526 0l-49 141h-298
l-49 -141h-125l254 700h138l253 -700h-124zM217 249h222l-111 316z" />
    <glyph glyph-name="Aring" unicode="&#xc5;" horiz-adv-x="655" 
d="M526 0l-48.999 141.001h-298l-49 -141h-125l246 677c-28.667 21.333 -43 50.666 -43 87.999c0 32 11.167 58.833 33.5 80.5s50.833 32.5 85.5 32.5c35.333 0 64.166 -10.667 86.499 -32s33.5 -48.333 33.5 -81c0 -36.667 -14 -66 -42 -88l245 -677h-124zM327.001 807.001
c-13.333 0 -23.833 -3.83301 -31.5 -11.5s-11.5 -17.834 -11.5 -30.501c0 -12 3.83301 -21.833 11.5 -29.5s18.167 -11.5 31.5 -11.5c14 0 24.833 3.83301 32.5 11.5s11.5 17.5 11.5 29.5c0 12.667 -3.83301 22.834 -11.5 30.501s-18.5 11.5 -32.5 11.5zM217.001 249.001
h222l-111 316z" />
    <glyph glyph-name="AE" unicode="&#xc6;" horiz-adv-x="880" 
d="M563 110h282v-110h-395v141h-236l-84 -141h-130l419 700h421v-110h-277v-182h257v-109h-257v-189zM278 249h172v288z" />
    <glyph glyph-name="Ccedilla" unicode="&#xc7;" horiz-adv-x="732" 
d="M401 99c44 0 84.001 10.166 120.001 30.499s63 47.833 81 82.5l100 -57c-25.333 -45.333 -60.5 -82.5 -105.5 -111.5s-94.833 -46.833 -149.5 -53.5v-36c22.667 -4 41.334 -12.833 56.001 -26.5s22 -31.167 22 -52.5c0 -69.333 -71.667 -99.666 -215 -90.999v79
c80.667 -6.66699 121 1.66602 121 24.999c0 18 -24.333 28 -73 30v71c-94.667 10 -172.167 49 -232.5 117s-90.5 149.333 -90.5 244c0 102.667 34.667 188.834 104 258.501s156.666 104.5 261.999 104.5c63.333 0 121.833 -15 175.5 -45s95.5 -70.667 125.5 -122l-100 -58
c-18.667 34.667 -45.834 62.167 -81.501 82.5s-75.5 30.5 -119.5 30.5c-74.667 0 -135.167 -23.667 -181.5 -71s-69.5 -107.333 -69.5 -180s23.167 -132.667 69.5 -180s106.833 -71 181.5 -71z" />
    <glyph glyph-name="Egrave" unicode="&#xc8;" horiz-adv-x="530" 
d="M356 765h-104l-106 135h130zM185 110h310v-110h-425v700h420v-110h-305v-182h280v-109h-280v-189z" />
    <glyph glyph-name="Eacute" unicode="&#xc9;" horiz-adv-x="530" 
d="M421 900l-106 -135h-104l80 135h130zM185 110h310v-110h-425v700h420v-110h-305v-182h280v-109h-280v-189z" />
    <glyph glyph-name="Ecircumflex" unicode="&#xca;" horiz-adv-x="530" 
d="M279 834l-53 -74h-110l106 140h113l106 -140h-110zM185 110h310v-110h-425v700h420v-110h-305v-182h280v-109h-280v-189z" />
    <glyph glyph-name="Edieresis" unicode="&#xcb;" horiz-adv-x="530" 
d="M186 758c-16.667 0 -30.834 5.83301 -42.501 17.5s-17.5 25.834 -17.5 42.501s5.83301 30.834 17.5 42.501s25.834 17.5 42.501 17.5s30.834 -5.83301 42.501 -17.5s17.5 -25.834 17.5 -42.501s-5.83301 -30.834 -17.5 -42.501s-25.834 -17.5 -42.501 -17.5zM376 758
c-16.667 0 -30.834 5.83301 -42.501 17.5s-17.5 25.834 -17.5 42.501s5.83301 30.834 17.5 42.501s25.834 17.5 42.501 17.5s30.834 -5.83301 42.501 -17.5s17.5 -25.834 17.5 -42.501s-5.83301 -30.834 -17.5 -42.501s-25.834 -17.5 -42.501 -17.5zM185 110h310v-110h-425
v700h420v-110h-305v-182h280v-109h-280v-189z" />
    <glyph glyph-name="Igrave" unicode="&#xcc;" horiz-adv-x="255" 
d="M203 765l-80 135h-130l106 -135h104zM70 700h115v-700h-115v700z" />
    <glyph glyph-name="Iacute" unicode="&#xcd;" horiz-adv-x="255" 
d="M58 765h104l106 135h-130zM70 700h115v-700h-115v700z" />
    <glyph glyph-name="Icircumflex" unicode="&#xce;" horiz-adv-x="255" 
d="M126 834l-53 -74h-110l106 140h113l106 -140h-110zM70 0v700h115v-700h-115z" />
    <glyph glyph-name="Idieresis" unicode="&#xcf;" horiz-adv-x="255" 
d="M33 758c-16.667 0 -30.834 5.83301 -42.501 17.5s-17.5 25.834 -17.5 42.501s5.83301 30.834 17.5 42.501s25.834 17.5 42.501 17.5s30.834 -5.83301 42.501 -17.5s17.5 -25.834 17.5 -42.501s-5.83301 -30.834 -17.5 -42.501s-25.834 -17.5 -42.501 -17.5zM223 758
c-16.667 0 -30.834 5.83301 -42.501 17.5s-17.5 25.834 -17.5 42.501s5.83301 30.834 17.5 42.501s25.834 17.5 42.501 17.5s30.834 -5.83301 42.501 -17.5s17.5 -25.834 17.5 -42.501s-5.83301 -30.834 -17.5 -42.501s-25.834 -17.5 -42.501 -17.5zM70 700h115v-700h-115
v700z" />
    <glyph glyph-name="Eth" unicode="&#xd0;" horiz-adv-x="745" 
d="M375 700c96 0 175.833 -33.667 239.5 -101s95.5 -150.333 95.5 -249c0 -98 -31.833 -180.833 -95.5 -248.5s-143.5 -101.5 -239.5 -101.5h-275v293h-75v104h75v303h275zM375 110c66 0 119.833 22.668 161.5 68.001s62.5 102.666 62.5 171.999
c0 70 -20.833 127.5 -62.5 172.5s-95.5 67.5 -161.5 67.5h-160v-193h180v-104h-180v-183h160z" />
    <glyph glyph-name="Ntilde" unicode="&#xd1;" horiz-adv-x="675" 
d="M173 767c0 46.667 8.66699 81.667 26 105s38.5 34.666 63.5 33.999s51.5 -10.334 79.5 -29.001c21.333 -17.333 37 -24.833 47 -22.5s15 17.5 15 45.5h89c0 -46.667 -8.5 -81.667 -25.5 -105s-38 -34.666 -63 -33.999s-51.5 10.334 -79.5 29.001
c-22 17.333 -38 24.833 -48 22.5s-15 -17.5 -15 -45.5h-89zM490 700h115v-700h-90l-330 475v-475h-115v700h90l330 -475v475z" />
    <glyph glyph-name="Ograve" unicode="&#xd2;" horiz-adv-x="796" 
d="M473 770l-80 135h-130l106 -135h104zM398 -13c-101.333 0 -187.166 35.167 -257.499 105.5s-105.5 156.166 -105.5 257.499s35.167 187.166 105.5 257.499s156.166 105.5 257.499 105.5s187.166 -35.167 257.499 -105.5s105.5 -156.166 105.5 -257.499
s-35.167 -187.166 -105.5 -257.499s-156.166 -105.5 -257.499 -105.5zM398 99c70 0 128.833 23.833 176.5 71.5s71.5 107.5 71.5 179.5s-23.833 131.833 -71.5 179.5s-106.5 71.5 -176.5 71.5s-128.833 -23.833 -176.5 -71.5s-71.5 -107.5 -71.5 -179.5
s23.833 -131.833 71.5 -179.5s106.5 -71.5 176.5 -71.5z" />
    <glyph glyph-name="Oacute" unicode="&#xd3;" horiz-adv-x="796" 
d="M328 770h104l106 135h-130zM398 -13c-101.333 0 -187.166 35.167 -257.499 105.5s-105.5 156.166 -105.5 257.499s35.167 187.166 105.5 257.499s156.166 105.5 257.499 105.5s187.166 -35.167 257.499 -105.5s105.5 -156.166 105.5 -257.499
s-35.167 -187.166 -105.5 -257.499s-156.166 -105.5 -257.499 -105.5zM398 99c70 0 128.833 23.833 176.5 71.5s71.5 107.5 71.5 179.5s-23.833 131.833 -71.5 179.5s-106.5 71.5 -176.5 71.5s-128.833 -23.833 -176.5 -71.5s-71.5 -107.5 -71.5 -179.5
s23.833 -131.833 71.5 -179.5s106.5 -71.5 176.5 -71.5z" />
    <glyph glyph-name="Ocircumflex" unicode="&#xd4;" horiz-adv-x="796" 
d="M396 839l-53 -74h-110l106 140h113l106 -140h-110zM398 713c101.333 0 187.166 -35.167 257.499 -105.5s105.5 -156.166 105.5 -257.499s-35.167 -187.166 -105.5 -257.499s-156.166 -105.5 -257.499 -105.5s-187.166 35.167 -257.499 105.5
s-105.5 156.166 -105.5 257.499s35.167 187.166 105.5 257.499s156.166 105.5 257.499 105.5zM398 99c70 0 128.833 23.833 176.5 71.5s71.5 107.5 71.5 179.5s-23.833 131.833 -71.5 179.5s-106.5 71.5 -176.5 71.5s-128.833 -23.833 -176.5 -71.5
s-71.5 -107.5 -71.5 -179.5s23.833 -131.833 71.5 -179.5s106.5 -71.5 176.5 -71.5z" />
    <glyph glyph-name="Otilde" unicode="&#xd5;" horiz-adv-x="796" 
d="M238 772c0 46.667 8.66699 81.667 26 105s38.5 34.666 63.5 33.999s51.5 -10.334 79.5 -29.001c21.333 -17.333 37 -24.833 47 -22.5s15 17.5 15 45.5h89c0 -46.667 -8.5 -81.667 -25.5 -105s-38 -34.666 -63 -33.999s-51.5 10.334 -79.5 29.001
c-22 17.333 -38 24.833 -48 22.5s-15 -17.5 -15 -45.5h-89zM398 -13c-101.333 0 -187.166 35.167 -257.499 105.5s-105.5 156.166 -105.5 257.499s35.167 187.166 105.5 257.499s156.166 105.5 257.499 105.5s187.166 -35.167 257.499 -105.5s105.5 -156.166 105.5 -257.499
s-35.167 -187.166 -105.5 -257.499s-156.166 -105.5 -257.499 -105.5zM398 99c70 0 128.833 23.833 176.5 71.5s71.5 107.5 71.5 179.5s-23.833 131.833 -71.5 179.5s-106.5 71.5 -176.5 71.5s-128.833 -23.833 -176.5 -71.5s-71.5 -107.5 -71.5 -179.5
s23.833 -131.833 71.5 -179.5s106.5 -71.5 176.5 -71.5z" />
    <glyph glyph-name="Odieresis" unicode="&#xd6;" horiz-adv-x="796" 
d="M303 763c-16.667 0 -30.834 5.83301 -42.501 17.5s-17.5 25.834 -17.5 42.501s5.83301 30.834 17.5 42.501s25.834 17.5 42.501 17.5s30.834 -5.83301 42.501 -17.5s17.5 -25.834 17.5 -42.501s-5.83301 -30.834 -17.5 -42.501s-25.834 -17.5 -42.501 -17.5zM493 763
c-16.667 0 -30.834 5.83301 -42.501 17.5s-17.5 25.834 -17.5 42.501s5.83301 30.834 17.5 42.501s25.834 17.5 42.501 17.5s30.834 -5.83301 42.501 -17.5s17.5 -25.834 17.5 -42.501s-5.83301 -30.834 -17.5 -42.501s-25.834 -17.5 -42.501 -17.5zM398 -13
c-101.333 0 -187.166 35.167 -257.499 105.5s-105.5 156.166 -105.5 257.499s35.167 187.166 105.5 257.499s156.166 105.5 257.499 105.5s187.166 -35.167 257.499 -105.5s105.5 -156.166 105.5 -257.499s-35.167 -187.166 -105.5 -257.499
s-156.166 -105.5 -257.499 -105.5zM398 99c70 0 128.833 23.833 176.5 71.5s71.5 107.5 71.5 179.5s-23.833 131.833 -71.5 179.5s-106.5 71.5 -176.5 71.5s-128.833 -23.833 -176.5 -71.5s-71.5 -107.5 -71.5 -179.5s23.833 -131.833 71.5 -179.5s106.5 -71.5 176.5 -71.5z
" />
    <glyph glyph-name="multiply" unicode="&#xd7;" horiz-adv-x="498" 
d="M448 478l-128 -128l128 -128l-72 -70l-127 127l-127 -127l-72 70l128 128l-128 128l72 70l127 -127l127 127z" />
    <glyph glyph-name="Oslash" unicode="&#xd8;" horiz-adv-x="804" 
d="M665 606c69.333 -69.333 104 -154.667 104 -256s-35.167 -187.166 -105.5 -257.499s-156.166 -105.5 -257.499 -105.5c-76.667 0 -145.334 21 -206.001 63l-48 -57l-61 35l56 66c-69.333 70.667 -104 156 -104 256c0 101.333 35.167 187.166 105.5 257.499
s156.166 105.5 257.499 105.5c76.667 0 145.334 -21 206.001 -63l48 57l61 -35zM158 349.999c0 -65.333 20.334 -121.667 61.001 -169l321 383c-40.667 24.667 -85.334 37 -134.001 37c-70 0 -128.833 -23.833 -176.5 -71.5s-71.5 -107.5 -71.5 -179.5zM406.001 98.998
c70 0 128.832 23.834 176.499 71.501s71.5 107.5 71.5 179.5c0 65.333 -20.333 121.666 -61 168.999l-321 -383c40.667 -24.667 85.334 -37 134.001 -37z" />
    <glyph glyph-name="Ugrave" unicode="&#xd9;" horiz-adv-x="655" 
d="M403 765l-80 135h-130l106 -135h104zM328 -13c-78 0 -141.667 22.167 -191 66.5s-74 103.833 -74 178.5v468h115v-461c0 -42.667 12.5 -76.667 37.5 -102s62.5 -38 112.5 -38s87.5 12.667 112.5 38s37.5 59.333 37.5 102v461h115v-468
c0 -74.667 -24.667 -134.167 -74 -178.5s-113 -66.5 -191 -66.5z" />
    <glyph glyph-name="Uacute" unicode="&#xda;" horiz-adv-x="655" 
d="M258 765h104l106 135h-130zM328 -13c-78 0 -141.667 22.167 -191 66.5s-74 103.833 -74 178.5v468h115v-461c0 -42.667 12.5 -76.667 37.5 -102s62.5 -38 112.5 -38s87.5 12.667 112.5 38s37.5 59.333 37.5 102v461h115v-468c0 -74.667 -24.667 -134.167 -74 -178.5
s-113 -66.5 -191 -66.5z" />
    <glyph glyph-name="Ucircumflex" unicode="&#xdb;" horiz-adv-x="655" 
d="M326 834l-53 -74h-110l106 140h113l106 -140h-110zM478 700h115v-468c0 -74.667 -24.667 -134.167 -74 -178.5s-113 -66.5 -191 -66.5s-141.667 22.167 -191 66.5s-74 103.833 -74 178.5v468h115v-461c0 -42.667 12.5 -76.667 37.5 -102s62.5 -38 112.5 -38
s87.5 12.667 112.5 38s37.5 59.333 37.5 102v461z" />
    <glyph glyph-name="Udieresis" unicode="&#xdc;" horiz-adv-x="655" 
d="M233 758c-16.667 0 -30.834 5.83301 -42.501 17.5s-17.5 25.834 -17.5 42.501s5.83301 30.834 17.5 42.501s25.834 17.5 42.501 17.5s30.834 -5.83301 42.501 -17.5s17.5 -25.834 17.5 -42.501s-5.83301 -30.834 -17.5 -42.501s-25.834 -17.5 -42.501 -17.5zM423 758
c-16.667 0 -30.834 5.83301 -42.501 17.5s-17.5 25.834 -17.5 42.501s5.83301 30.834 17.5 42.501s25.834 17.5 42.501 17.5s30.834 -5.83301 42.501 -17.5s17.5 -25.834 17.5 -42.501s-5.83301 -30.834 -17.5 -42.501s-25.834 -17.5 -42.501 -17.5zM328 -13
c-78 0 -141.667 22.167 -191 66.5s-74 103.833 -74 178.5v468h115v-461c0 -42.667 12.5 -76.667 37.5 -102s62.5 -38 112.5 -38s87.5 12.667 112.5 38s37.5 59.333 37.5 102v461h115v-468c0 -74.667 -24.667 -134.167 -74 -178.5s-113 -66.5 -191 -66.5z" />
    <glyph glyph-name="Yacute" unicode="&#xdd;" horiz-adv-x="613" 
d="M445 900l-106 -135h-104l80 135h130zM608 700l-244 -422v-278h-115v278l-244 422h131l171 -310l170 310h131z" />
    <glyph glyph-name="Thorn" unicode="&#xde;" horiz-adv-x="590" 
d="M330 580c65.333 0 120 -22 164 -66s66 -98.667 66 -164c0 -64.667 -22.167 -119.167 -66.5 -163.5s-98.833 -66.5 -163.5 -66.5h-145v-120h-115v700h115v-120h145zM330 228c32.667 0 60 11.5 82 34.5s33 52.167 33 87.5s-10.833 64.5 -32.5 87.5s-49.167 34.5 -82.5 34.5
h-145v-244h145z" />
    <glyph glyph-name="germandbls" unicode="&#xdf;" horiz-adv-x="530" 
d="M283 -5l-0.00195312 96c81.333 -6.66699 122 16 122 68c0 17.333 -6.66699 36.833 -20 58.5s-27.833 41.334 -43.5 59.001s-30.167 37.167 -43.5 58.5s-20 40.333 -20 57c0 18.667 11.833 43.167 35.5 73.5s35.5 55.166 35.5 74.499c0 22 -7.5 39.667 -22.5 53
s-34.833 20 -59.5 20c-27.333 0 -50.166 -8.33301 -68.499 -25s-27.5 -42.334 -27.5 -77.001v-511h-108v510c0 62.667 19 112.167 57 148.5s88.333 54.5 151 54.5c56.667 0 101.834 -15.5 135.501 -46.5s50.5 -68.833 50.5 -113.5c0 -23.333 -5.83301 -45 -17.5 -65
s-23.167 -37.5 -34.5 -52.5s-17 -27.833 -17 -38.5c0 -13.333 6.5 -29.5 19.5 -48.5s27.333 -37.333 43 -55s30 -40.167 43 -67.5s19.5 -54.666 19.5 -81.999c0 -50 -18.667 -89.167 -56 -117.5s-95.333 -38.833 -174 -31.5z" />
    <glyph glyph-name="agrave" unicode="&#xe0;" 
d="M383 565h-104l-106 135h130zM459 500h108v-500h-108v72c-40.667 -56.667 -99 -85 -175 -85c-68.667 0 -127.334 25.5 -176.001 76.5s-73 113.167 -73 186.5c0 74 24.333 136.333 73 187s107.334 76 176.001 76c76 0 134.333 -28 175 -84v71zM301 90
c45.333 0 83 15.167 113 45.5s45 68.5 45 114.5s-15 84.167 -45 114.5s-67.667 45.5 -113 45.5s-83 -15.167 -113 -45.5s-45 -68.5 -45 -114.5s15 -84.167 45 -114.5s67.667 -45.5 113 -45.5z" />
    <glyph glyph-name="aacute" unicode="&#xe1;" 
d="M448 700l-106 -135h-104l80 135h130zM459 500h108v-500h-108v72c-40.667 -56.667 -99 -85 -175 -85c-68.667 0 -127.334 25.5 -176.001 76.5s-73 113.167 -73 186.5c0 74 24.333 136.333 73 187s107.334 76 176.001 76c76 0 134.333 -28 175 -84v71zM301 90
c45.333 0 83 15.167 113 45.5s45 68.5 45 114.5s-15 84.167 -45 114.5s-67.667 45.5 -113 45.5s-83 -15.167 -113 -45.5s-45 -68.5 -45 -114.5s15 -84.167 45 -114.5s67.667 -45.5 113 -45.5z" />
    <glyph glyph-name="acircumflex" unicode="&#xe2;" 
d="M306 634l-53 -74h-110l106 140h113l106 -140h-110zM459 500h108v-500h-108v72c-40.667 -56.667 -99 -85 -175 -85c-68.667 0 -127.334 25.5 -176.001 76.5s-73 113.167 -73 186.5c0 74 24.333 136.333 73 187s107.334 76 176.001 76c76 0 134.333 -28 175 -84v71zM301 90
c45.333 0 83 15.167 113 45.5s45 68.5 45 114.5s-15 84.167 -45 114.5s-67.667 45.5 -113 45.5s-83 -15.167 -113 -45.5s-45 -68.5 -45 -114.5s15 -84.167 45 -114.5s67.667 -45.5 113 -45.5z" />
    <glyph glyph-name="atilde" unicode="&#xe3;" 
d="M300 590c-22 17.333 -38 24.833 -48 22.5s-15 -17.5 -15 -45.5h-89c0 46.667 8.66699 81.667 26 105s38.5 34.666 63.5 33.999s51.5 -10.334 79.5 -29.001c21.333 -17.333 37 -24.833 47 -22.5s15 17.5 15 45.5h89c0 -46.667 -8.5 -81.667 -25.5 -105
s-38 -34.666 -63 -33.999s-51.5 10.334 -79.5 29.001zM459 500h108v-500h-108v72c-40.667 -56.667 -99 -85 -175 -85c-68.667 0 -127.334 25.5 -176.001 76.5s-73 113.167 -73 186.5c0 74 24.333 136.333 73 187s107.334 76 176.001 76c76 0 134.333 -28 175 -84v71zM301 90
c45.333 0 83 15.167 113 45.5s45 68.5 45 114.5s-15 84.167 -45 114.5s-67.667 45.5 -113 45.5s-83 -15.167 -113 -45.5s-45 -68.5 -45 -114.5s15 -84.167 45 -114.5s67.667 -45.5 113 -45.5z" />
    <glyph glyph-name="adieresis" unicode="&#xe4;" 
d="M213 558c-16.667 0 -30.834 5.83301 -42.501 17.5s-17.5 25.834 -17.5 42.501s5.83301 30.834 17.5 42.501s25.834 17.5 42.501 17.5s30.834 -5.83301 42.501 -17.5s17.5 -25.834 17.5 -42.501s-5.83301 -30.834 -17.5 -42.501s-25.834 -17.5 -42.501 -17.5zM403 558
c-16.667 0 -30.834 5.83301 -42.501 17.5s-17.5 25.834 -17.5 42.501s5.83301 30.834 17.5 42.501s25.834 17.5 42.501 17.5s30.834 -5.83301 42.501 -17.5s17.5 -25.834 17.5 -42.501s-5.83301 -30.834 -17.5 -42.501s-25.834 -17.5 -42.501 -17.5zM459 500h108v-500h-108
v72c-40.667 -56.667 -99 -85 -175 -85c-68.667 0 -127.334 25.5 -176.001 76.5s-73 113.167 -73 186.5c0 74 24.333 136.333 73 187s107.334 76 176.001 76c76 0 134.333 -28 175 -84v71zM301 90c45.333 0 83 15.167 113 45.5s45 68.5 45 114.5s-15 84.167 -45 114.5
s-67.667 45.5 -113 45.5s-83 -15.167 -113 -45.5s-45 -68.5 -45 -114.5s15 -84.167 45 -114.5s67.667 -45.5 113 -45.5z" />
    <glyph glyph-name="aring" unicode="&#xe5;" 
d="M308 543c-34.667 0 -63.167 10.667 -85.5 32s-33.5 48 -33.5 80s11.167 58.833 33.5 80.5s50.833 32.5 85.5 32.5c35.333 0 64.166 -10.667 86.499 -32s33.5 -48.333 33.5 -81s-11.167 -59.5 -33.5 -80.5s-51.166 -31.5 -86.499 -31.5zM308 697
c-13.333 0 -23.833 -3.83301 -31.5 -11.5s-11.5 -17.834 -11.5 -30.501c0 -12 3.83301 -21.833 11.5 -29.5s18.167 -11.5 31.5 -11.5c14 0 24.833 3.83301 32.5 11.5s11.5 17.5 11.5 29.5c0 12.667 -3.83301 22.834 -11.5 30.501s-18.5 11.5 -32.5 11.5zM459 500h108v-500
h-108v72c-40.667 -56.667 -99 -85 -175 -85c-68.667 0 -127.334 25.5 -176.001 76.5s-73 113.167 -73 186.5c0 74 24.333 136.333 73 187s107.334 76 176.001 76c76 0 134.333 -28 175 -84v71zM301 90c45.333 0 83 15.167 113 45.5s45 68.5 45 114.5s-15 84.167 -45 114.5
s-67.667 45.5 -113 45.5s-83 -15.167 -113 -45.5s-45 -68.5 -45 -114.5s15 -84.167 45 -114.5s67.667 -45.5 113 -45.5z" />
    <glyph glyph-name="ae" unicode="&#xe6;" horiz-adv-x="1006" 
d="M573 204c8 -38 26.166 -67.168 54.499 -87.501s62.5 -30.5 102.5 -30.5c58.667 0 102.334 20.667 131.001 62l89 -52c-49.333 -72.667 -118 -109 -206 -109c-79.333 0 -140 29 -182 87v-74h-103v72c-40.667 -56.667 -99 -85 -175 -85
c-68.667 0 -127.334 25.5 -176.001 76.5s-73 113.167 -73 186.5c0 74 24.333 136.333 73 187s107.334 76 176.001 76c76 0 134.333 -28 175 -84v71h103v-74c42 58 100.667 87 176 87c73.333 0 131 -25.167 173 -75.5s63 -113.166 63 -188.499
c0 -11.333 -1.33301 -26.333 -4 -45h-397zM571.999 292.999h293.001c-6.66699 40.667 -23 71.167 -49 91.5s-56.667 30.5 -92 30.5c-40.667 0 -74.334 -10.833 -101.001 -32.5s-43.667 -51.5 -51 -89.5zM301 89.999c45.333 0 83 15.167 113 45.5s45 68.5 45 114.5
s-15 84.167 -45 114.5s-67.667 45.5 -113 45.5s-83 -15.167 -113 -45.5s-45 -68.5 -45 -114.5s15 -84.167 45 -114.5s67.667 -45.5 113 -45.5z" />
    <glyph glyph-name="ccedilla" unicode="&#xe7;" horiz-adv-x="542" 
d="M524 117c-17.333 -33.333 -41.832 -61.001 -73.499 -83.001s-66.834 -36.333 -105.501 -43v-37c22.667 -4 41.334 -12.833 56.001 -26.5s22 -31.167 22 -52.5c0 -69.333 -71.667 -99.666 -215 -90.999v79c80.667 -6.66699 121 1.66602 121 24.999c0 18 -24.333 28 -73 30
v72c-64.667 10 -117.667 39.167 -159 87.5s-62 105.833 -62 172.5c0 74.667 25.167 137.167 75.5 187.5s113.166 75.5 188.499 75.5c48.667 0 93 -11.667 133 -35s70 -54.666 90 -93.999l-93 -54c-11.333 24 -28.5 42.833 -51.5 56.5s-49.5 20.5 -79.5 20.5
c-44 0 -80.833 -15 -110.5 -45s-44.5 -67.333 -44.5 -112s14.833 -82 44.5 -112s66.5 -45 110.5 -45c29.333 0 55.833 7 79.5 21s41.5 32.667 53.5 56z" />
    <glyph glyph-name="egrave" unicode="&#xe8;" horiz-adv-x="582" 
d="M368 568h-104l-106 135h130zM148 204c8 -38 26.334 -67.168 55.001 -87.501s63.667 -30.5 105 -30.5c57.333 0 100.333 20.667 129 62l89 -52c-49.333 -72.667 -122.333 -109 -219 -109c-81.333 0 -147 24.833 -197 74.5s-75 112.5 -75 188.5
c0 74.667 24.667 137.167 74 187.5s112.666 75.5 189.999 75.5c73.333 0 133.5 -25.667 180.5 -77s70.5 -113.666 70.5 -186.999c0 -11.333 -1.33301 -26.333 -4 -45h-398zM147.001 291.999l293.998 -0.000976562c-7.33301 40.667 -24.166 71.334 -50.499 92.001
s-57.166 31 -92.499 31c-40 0 -73.333 -11 -100 -33s-43.667 -52 -51 -90z" />
    <glyph glyph-name="eacute" unicode="&#xe9;" horiz-adv-x="582" 
d="M433 703l-106 -135h-104l80 135h130zM148 204c8 -38 26.334 -67.168 55.001 -87.501s63.667 -30.5 105 -30.5c57.333 0 100.333 20.667 129 62l89 -52c-49.333 -72.667 -122.333 -109 -219 -109c-81.333 0 -147 24.833 -197 74.5s-75 112.5 -75 188.5
c0 74.667 24.667 137.167 74 187.5s112.666 75.5 189.999 75.5c73.333 0 133.5 -25.667 180.5 -77s70.5 -113.666 70.5 -186.999c0 -11.333 -1.33301 -26.333 -4 -45h-398zM147.001 291.999l293.998 -0.000976562c-7.33301 40.667 -24.166 71.334 -50.499 92.001
s-57.166 31 -92.499 31c-40 0 -73.333 -11 -100 -33s-43.667 -52 -51 -90z" />
    <glyph glyph-name="ecircumflex" unicode="&#xea;" horiz-adv-x="582" 
d="M291 637l-53 -74h-110l106 140h113l106 -140h-110zM148 204c8 -38 26.334 -67.168 55.001 -87.501s63.667 -30.5 105 -30.5c57.333 0 100.333 20.667 129 62l89 -52c-49.333 -72.667 -122.333 -109 -219 -109c-81.333 0 -147 24.833 -197 74.5s-75 112.5 -75 188.5
c0 74.667 24.667 137.167 74 187.5s112.666 75.5 189.999 75.5c73.333 0 133.5 -25.667 180.5 -77s70.5 -113.666 70.5 -186.999c0 -11.333 -1.33301 -26.333 -4 -45h-398zM147.001 291.999l293.998 -0.000976562c-7.33301 40.667 -24.166 71.334 -50.499 92.001
s-57.166 31 -92.499 31c-40 0 -73.333 -11 -100 -33s-43.667 -52 -51 -90z" />
    <glyph glyph-name="edieresis" unicode="&#xeb;" horiz-adv-x="582" 
d="M198 561c-16.667 0 -30.834 5.83301 -42.501 17.5s-17.5 25.834 -17.5 42.501s5.83301 30.834 17.5 42.501s25.834 17.5 42.501 17.5s30.834 -5.83301 42.501 -17.5s17.5 -25.834 17.5 -42.501s-5.83301 -30.834 -17.5 -42.501s-25.834 -17.5 -42.501 -17.5zM388 561
c-16.667 0 -30.834 5.83301 -42.501 17.5s-17.5 25.834 -17.5 42.501s5.83301 30.834 17.5 42.501s25.834 17.5 42.501 17.5s30.834 -5.83301 42.501 -17.5s17.5 -25.834 17.5 -42.501s-5.83301 -30.834 -17.5 -42.501s-25.834 -17.5 -42.501 -17.5zM148 204
c8 -38 26.334 -67.168 55.001 -87.501s63.667 -30.5 105 -30.5c57.333 0 100.333 20.667 129 62l89 -52c-49.333 -72.667 -122.333 -109 -219 -109c-81.333 0 -147 24.833 -197 74.5s-75 112.5 -75 188.5c0 74.667 24.667 137.167 74 187.5s112.666 75.5 189.999 75.5
c73.333 0 133.5 -25.667 180.5 -77s70.5 -113.666 70.5 -186.999c0 -11.333 -1.33301 -26.333 -4 -45h-398zM147.001 291.999l293.998 -0.000976562c-7.33301 40.667 -24.166 71.334 -50.499 92.001s-57.166 31 -92.499 31c-40 0 -73.333 -11 -100 -33s-43.667 -52 -51 -90z
" />
    <glyph glyph-name="igrave" unicode="&#xec;" horiz-adv-x="233" 
d="M167 560l-45 140h-125l66 -140h104zM171 0h-108v500h108v-500z" />
    <glyph glyph-name="iacute" unicode="&#xed;" horiz-adv-x="233" 
d="M64 560h104l66 140h-125zM63 0v500h108v-500h-108z" />
    <glyph glyph-name="icircumflex" unicode="&#xee;" horiz-adv-x="233" 
d="M117 622l-38 -62h-110l91 140h113l91 -140h-110zM63 0v500h108v-500h-108z" />
    <glyph glyph-name="idieresis" unicode="&#xef;" horiz-adv-x="233" 
d="M37 560c-16.667 0 -31 5.83301 -43 17.5s-18 25.834 -18 42.501s6 30.834 18 42.501s26.333 17.5 43 17.5s30.834 -5.83301 42.501 -17.5s17.5 -25.834 17.5 -42.501s-5.83301 -30.834 -17.5 -42.501s-25.834 -17.5 -42.501 -17.5zM197 560
c-16.667 0 -30.834 5.83301 -42.501 17.5s-17.5 25.834 -17.5 42.501s5.83301 30.834 17.5 42.501s25.834 17.5 42.501 17.5s30.834 -5.83301 42.501 -17.5s17.5 -25.834 17.5 -42.501s-5.83301 -30.834 -17.5 -42.501s-25.834 -17.5 -42.501 -17.5zM63 0v500h108v-500h-108
z" />
    <glyph glyph-name="eth" unicode="&#xf0;" horiz-adv-x="576" 
d="M495 370c30.667 -40.667 46 -87.334 46 -140.001c0 -72.667 -24.667 -131.167 -74 -175.5s-109 -66.5 -179 -66.5s-129.667 22.167 -179 66.5s-74 102.833 -74 175.5c0 72 26.833 130.333 80.5 175s116.167 61.334 187.5 50.001h1l-66 91l-123 -65v80l80 43l-70 96h124
l36 -49l117 62v-80l-74 -39zM288 90c41.333 0 75.834 12.667 103.501 38s41.5 59.333 41.5 102c0 32.667 -8 59.667 -24 81l-1 1c-26.667 36 -66.334 54 -119.001 54c-42.667 0 -77.667 -12.333 -105 -37s-41 -57.667 -41 -99c0 -42.667 13.833 -76.667 41.5 -102
s62.167 -38 103.5 -38z" />
    <glyph glyph-name="ntilde" unicode="&#xf1;" horiz-adv-x="571" 
d="M288 595c-22 17.333 -38 24.833 -48 22.5s-15 -17.5 -15 -45.5h-89c0 46.667 8.66699 81.667 26 105s38.5 34.666 63.5 33.999s51.5 -10.334 79.5 -29.001c21.333 -17.333 37 -24.833 47 -22.5s15 17.5 15 45.5h89c0 -46.667 -8.5 -81.667 -25.5 -105
s-38 -34.666 -63 -33.999s-51.5 10.334 -79.5 29.001zM326 513c57.333 0 103.666 -18.332 138.999 -54.999s53 -87 53 -151v-307h-108v296c0 37.333 -10 66 -30 86s-47.333 30 -82 30c-38 0 -68.667 -11.833 -92 -35.5s-35 -59.834 -35 -108.501v-268h-108v500h108v-64
c32.667 51.333 84.334 77 155.001 77z" />
    <glyph glyph-name="ograve" unicode="&#xf2;" horiz-adv-x="598" 
d="M374 570l-80 135h-130l106 -135h104zM299 -13c-73.333 0 -135.666 25.333 -186.999 76s-77 113 -77 187s25.667 136.333 77 187s113.666 76 186.999 76c74 0 136.5 -25.333 187.5 -76s76.5 -113 76.5 -187s-25.5 -136.333 -76.5 -187s-113.5 -76 -187.5 -76zM299 92
c44 0 81 15 111 45s45 67.667 45 113s-15 83 -45 113s-67 45 -111 45s-81 -15 -111 -45s-45 -67.667 -45 -113s15 -83 45 -113s67 -45 111 -45z" />
    <glyph glyph-name="oacute" unicode="&#xf3;" horiz-adv-x="598" 
d="M229 570h104l106 135h-130zM299 -13c-73.333 0 -135.666 25.333 -186.999 76s-77 113 -77 187s25.667 136.333 77 187s113.666 76 186.999 76c74 0 136.5 -25.333 187.5 -76s76.5 -113 76.5 -187s-25.5 -136.333 -76.5 -187s-113.5 -76 -187.5 -76zM299 92
c44 0 81 15 111 45s45 67.667 45 113s-15 83 -45 113s-67 45 -111 45s-81 -15 -111 -45s-45 -67.667 -45 -113s15 -83 45 -113s67 -45 111 -45z" />
    <glyph glyph-name="ocircumflex" unicode="&#xf4;" horiz-adv-x="598" 
d="M297 639l-53 -74h-110l106 140h113l106 -140h-110zM299 513c74 0 136.5 -25.333 187.5 -76s76.5 -113 76.5 -187s-25.5 -136.333 -76.5 -187s-113.5 -76 -187.5 -76c-73.333 0 -135.666 25.333 -186.999 76s-77 113 -77 187s25.667 136.333 77 187s113.666 76 186.999 76
zM299 92c44 0 81 15 111 45s45 67.667 45 113s-15 83 -45 113s-67 45 -111 45s-81 -15 -111 -45s-45 -67.667 -45 -113s15 -83 45 -113s67 -45 111 -45z" />
    <glyph glyph-name="otilde" unicode="&#xf5;" horiz-adv-x="598" 
d="M139 572c0 46.667 8.66699 81.667 26 105s38.5 34.666 63.5 33.999s51.5 -10.334 79.5 -29.001c21.333 -17.333 37 -24.833 47 -22.5s15 17.5 15 45.5h89c0 -46.667 -8.5 -81.667 -25.5 -105s-38 -34.666 -63 -33.999s-51.5 10.334 -79.5 29.001
c-22 17.333 -38 24.833 -48 22.5s-15 -17.5 -15 -45.5h-89zM299 -13c-73.333 0 -135.666 25.333 -186.999 76s-77 113 -77 187s25.667 136.333 77 187s113.666 76 186.999 76c74 0 136.5 -25.333 187.5 -76s76.5 -113 76.5 -187s-25.5 -136.333 -76.5 -187
s-113.5 -76 -187.5 -76zM299 92c44 0 81 15 111 45s45 67.667 45 113s-15 83 -45 113s-67 45 -111 45s-81 -15 -111 -45s-45 -67.667 -45 -113s15 -83 45 -113s67 -45 111 -45z" />
    <glyph glyph-name="odieresis" unicode="&#xf6;" horiz-adv-x="598" 
d="M204 563c-16.667 0 -30.834 5.83301 -42.501 17.5s-17.5 25.834 -17.5 42.501s5.83301 30.834 17.5 42.501s25.834 17.5 42.501 17.5s30.834 -5.83301 42.501 -17.5s17.5 -25.834 17.5 -42.501s-5.83301 -30.834 -17.5 -42.501s-25.834 -17.5 -42.501 -17.5zM394 563
c-16.667 0 -30.834 5.83301 -42.501 17.5s-17.5 25.834 -17.5 42.501s5.83301 30.834 17.5 42.501s25.834 17.5 42.501 17.5s30.834 -5.83301 42.501 -17.5s17.5 -25.834 17.5 -42.501s-5.83301 -30.834 -17.5 -42.501s-25.834 -17.5 -42.501 -17.5zM299 -13
c-73.333 0 -135.666 25.333 -186.999 76s-77 113 -77 187s25.667 136.333 77 187s113.666 76 186.999 76c74 0 136.5 -25.333 187.5 -76s76.5 -113 76.5 -187s-25.5 -136.333 -76.5 -187s-113.5 -76 -187.5 -76zM299 92c44 0 81 15 111 45s45 67.667 45 113s-15 83 -45 113
s-67 45 -111 45s-81 -15 -111 -45s-45 -67.667 -45 -113s15 -83 45 -113s67 -45 111 -45z" />
    <glyph glyph-name="divide" unicode="&#xf7;" horiz-adv-x="570" 
d="M285 470c-20.667 0 -37.834 6.83301 -51.501 20.5s-20.5 30.834 -20.5 51.501s6.83301 38 20.5 52s30.834 21 51.501 21s38 -7 52 -21s21 -31.333 21 -52s-7 -37.834 -21 -51.501s-31.333 -20.5 -52 -20.5zM50 299v102h470v-102h-470zM285 86
c-20.667 0 -37.834 6.83301 -51.501 20.5s-20.5 30.834 -20.5 51.501s6.83301 38 20.5 52s30.834 21 51.501 21s38 -7 52 -21s21 -31.333 21 -52s-7 -37.834 -21 -51.501s-31.333 -20.5 -52 -20.5z" />
    <glyph glyph-name="oslash" unicode="&#xf8;" horiz-adv-x="598" 
d="M493 431c46.667 -51.333 70.002 -111.667 70.002 -181c0 -74 -25.5 -136.333 -76.5 -187s-113.5 -76 -187.5 -76c-54.667 0 -104.334 15 -149.001 45l-34 -40l-51 29l41 48c-47.333 50.667 -71 111 -71 181c0 74 25.667 136.333 77 187s113.666 76 186.999 76
c55.333 0 105.333 -15 150 -45l34 40l51 -29zM143.002 249.999c0 -38.667 11.001 -72 33.001 -100l203 237c-24.667 14 -51.334 21 -80.001 21c-44 0 -81 -15 -111 -45s-45 -67.667 -45 -113zM299.003 91.999c44 0 81 15 111 45s45 67.667 45 113c0 38 -11 71 -33 99
l-202 -236c22.667 -14 49 -21 79 -21z" />
    <glyph glyph-name="ugrave" unicode="&#xf9;" horiz-adv-x="571" 
d="M355 565h-104l-106 135h130zM400 500l108 -0.000976562v-500h-108v64c-32.667 -51.333 -84.334 -77 -155.001 -77c-57.333 0 -103.666 18.333 -138.999 55s-53 87 -53 151v307h108v-296c0 -37.333 10 -66 30 -86s47.333 -30 82 -30c38 0 68.667 11.833 92 35.5
s35 59.834 35 108.501v268z" />
    <glyph glyph-name="uacute" unicode="&#xfa;" horiz-adv-x="571" 
d="M420 700l-106 -135h-104l80 135h130zM400 500l108 -0.000976562v-500h-108v64c-32.667 -51.333 -84.334 -77 -155.001 -77c-57.333 0 -103.666 18.333 -138.999 55s-53 87 -53 151v307h108v-296c0 -37.333 10 -66 30 -86s47.333 -30 82 -30c38 0 68.667 11.833 92 35.5
s35 59.834 35 108.501v268z" />
    <glyph glyph-name="ucircumflex" unicode="&#xfb;" horiz-adv-x="571" 
d="M278 634l-53 -74h-110l106 140h113l106 -140h-110zM400 500l108 -0.000976562v-500h-108v64c-32.667 -51.333 -84.334 -77 -155.001 -77c-57.333 0 -103.666 18.333 -138.999 55s-53 87 -53 151v307h108v-296c0 -37.333 10 -66 30 -86s47.333 -30 82 -30
c38 0 68.667 11.833 92 35.5s35 59.834 35 108.501v268z" />
    <glyph glyph-name="udieresis" unicode="&#xfc;" horiz-adv-x="571" 
d="M185 558c-16.667 0 -30.834 5.83301 -42.501 17.5s-17.5 25.834 -17.5 42.501s5.83301 30.834 17.5 42.501s25.834 17.5 42.501 17.5s30.834 -5.83301 42.501 -17.5s17.5 -25.834 17.5 -42.501s-5.83301 -30.834 -17.5 -42.501s-25.834 -17.5 -42.501 -17.5zM375 558
c-16.667 0 -30.834 5.83301 -42.501 17.5s-17.5 25.834 -17.5 42.501s5.83301 30.834 17.5 42.501s25.834 17.5 42.501 17.5s30.834 -5.83301 42.501 -17.5s17.5 -25.834 17.5 -42.501s-5.83301 -30.834 -17.5 -42.501s-25.834 -17.5 -42.501 -17.5zM400 500
l108 -0.000976562v-500h-108v64c-32.667 -51.333 -84.334 -77 -155.001 -77c-57.333 0 -103.666 18.333 -138.999 55s-53 87 -53 151v307h108v-296c0 -37.333 10 -66 30 -86s47.333 -30 82 -30c38 0 68.667 11.833 92 35.5s35 59.834 35 108.501v268z" />
    <glyph glyph-name="yacute" unicode="&#xfd;" horiz-adv-x="520" 
d="M400 700l-106 -135h-104l80 135h130zM400 500l115 -0.000976562l-192 -516c-48 -129.333 -129.333 -190.666 -244 -183.999v101c34 -2 61.333 5.16699 82 21.5s37.667 41.833 51 76.5l5 10l-212 491h118l149 -363z" />
    <glyph glyph-name="thorn" unicode="&#xfe;" 
d="M346 513c68.667 0 127.334 -25.333 176.001 -76s73 -113 73 -187c0 -73.333 -24.333 -135.5 -73 -186.5s-107.334 -76.5 -176.001 -76.5c-76 0 -134.333 28.333 -175 85v-272h-108v900h108v-271c40.667 56 99 84 175 84zM329 90c45.333 0 83 15.167 113 45.5
s45 68.5 45 114.5s-15 84.167 -45 114.5s-67.667 45.5 -113 45.5s-83 -15.167 -113 -45.5s-45 -68.5 -45 -114.5s15 -84.167 45 -114.5s67.667 -45.5 113 -45.5z" />
    <glyph glyph-name="ydieresis" unicode="&#xff;" horiz-adv-x="520" 
d="M165 558c-16.667 0 -30.834 5.83301 -42.501 17.5s-17.5 25.834 -17.5 42.501s5.83301 30.834 17.5 42.501s25.834 17.5 42.501 17.5s30.834 -5.83301 42.501 -17.5s17.5 -25.834 17.5 -42.501s-5.83301 -30.834 -17.5 -42.501s-25.834 -17.5 -42.501 -17.5zM355 558
c-16.667 0 -30.834 5.83301 -42.501 17.5s-17.5 25.834 -17.5 42.501s5.83301 30.834 17.5 42.501s25.834 17.5 42.501 17.5s30.834 -5.83301 42.501 -17.5s17.5 -25.834 17.5 -42.501s-5.83301 -30.834 -17.5 -42.501s-25.834 -17.5 -42.501 -17.5zM400 500
l115 -0.000976562l-192 -516c-48 -129.333 -129.333 -190.666 -244 -183.999v101c34 -2 61.333 5.16699 82 21.5s37.667 41.833 51 76.5l5 10l-212 491h118l149 -363z" />
    <glyph glyph-name="Amacron" unicode="&#x100;" horiz-adv-x="655" 
d="M468 859v-89h-280v89h280zM526 0l-49 141h-298l-49 -141h-125l254 700h138l253 -700h-124zM217 249h222l-111 316z" />
    <glyph glyph-name="amacron" unicode="&#x101;" 
d="M448 659v-89h-280v89h280zM459 500h108v-500h-108v72c-40.667 -56.667 -99 -85 -175 -85c-68.667 0 -127.334 25.5 -176.001 76.5s-73 113.167 -73 186.5c0 74 24.333 136.333 73 187s107.334 76 176.001 76c76 0 134.333 -28 175 -84v71zM301 90
c45.333 0 83 15.167 113 45.5s45 68.5 45 114.5s-15 84.167 -45 114.5s-67.667 45.5 -113 45.5s-83 -15.167 -113 -45.5s-45 -68.5 -45 -114.5s15 -84.167 45 -114.5s67.667 -45.5 113 -45.5z" />
    <glyph glyph-name="Abreve" unicode="&#x102;" horiz-adv-x="655" 
d="M328 752c-50 0 -88.833 12.167 -116.5 36.5s-41.5 58.833 -41.5 103.5h98c0 -39.333 20 -59 60 -59c39.333 0 59 19.667 59 59h98c0 -44.667 -13.833 -79.167 -41.5 -103.5s-66.167 -36.5 -115.5 -36.5zM526 0l-49 141h-298l-49 -141h-125l254 700h138l253 -700h-124z
M217 249h222l-111 316z" />
    <glyph glyph-name="abreve" unicode="&#x103;" 
d="M308 552c-50 0 -88.833 12.167 -116.5 36.5s-41.5 58.833 -41.5 103.5h98c0 -39.333 20 -59 60 -59c39.333 0 59 19.667 59 59h98c0 -44.667 -13.833 -79.167 -41.5 -103.5s-66.167 -36.5 -115.5 -36.5zM459 500h108v-500h-108v72c-40.667 -56.667 -99 -85 -175 -85
c-68.667 0 -127.334 25.5 -176.001 76.5s-73 113.167 -73 186.5c0 74 24.333 136.333 73 187s107.334 76 176.001 76c76 0 134.333 -28 175 -84v71zM301 90c45.333 0 83 15.167 113 45.5s45 68.5 45 114.5s-15 84.167 -45 114.5s-67.667 45.5 -113 45.5
s-83 -15.167 -113 -45.5s-45 -68.5 -45 -114.5s15 -84.167 45 -114.5s67.667 -45.5 113 -45.5z" />
    <glyph glyph-name="Aogonek" unicode="&#x104;" horiz-adv-x="655" 
d="M618 -133c8 -0.666992 18.668 1.33398 32.001 6.00098v-72c-22.667 -9.33301 -47 -14 -73 -14c-28 0 -50.167 7.33301 -66.5 22s-24.5 35 -24.5 61c0 41.333 22.667 84.666 68 129.999h-28l-49 141h-298l-49 -141h-125l254 700h138l253 -700c-40 -40 -60 -75 -60 -105
c-0.666992 -18.667 8.66602 -28 27.999 -28zM217.001 249.001h222l-111 316z" />
    <glyph glyph-name="aogonek" unicode="&#x105;" 
d="M567 0c-40 -40 -59.999 -75 -59.999 -105c-0.666992 -18.667 8.66602 -28 27.999 -28c8 -0.666992 18.667 1.33301 32 6v-72c-22.667 -9.33301 -47 -14 -73 -14c-28 0 -50.167 7.33301 -66.5 22s-24.5 35 -24.5 61c0 38.667 21.333 82 64 130h-8v72
c-40.667 -56.667 -99 -85 -175 -85c-68.667 0 -127.334 25.5 -176.001 76.5s-73 113.167 -73 186.5c0 74 24.333 136.333 73 187s107.334 76 176.001 76c76 0 134.333 -28 175 -84v71h108v-500zM301.001 90c45.333 0 83 15.167 113 45.5s45 68.5 45 114.5
s-15 84.167 -45 114.5s-67.667 45.5 -113 45.5s-83 -15.167 -113 -45.5s-45 -68.5 -45 -114.5s15 -84.167 45 -114.5s67.667 -45.5 113 -45.5z" />
    <glyph glyph-name="Cacute" unicode="&#x106;" horiz-adv-x="732" 
d="M331 770h104l106 135h-130zM401 -13c-105.333 0 -192.665 34.8301 -261.998 104.497s-104 155.834 -104 258.501s34.667 188.834 104 258.501s156.666 104.5 261.999 104.5c63.333 0 121.833 -15 175.5 -45s95.5 -70.667 125.5 -122l-100 -58
c-18.667 34.667 -45.834 62.167 -81.501 82.5s-75.5 30.5 -119.5 30.5c-74.667 0 -135.167 -23.667 -181.5 -71s-69.5 -107.333 -69.5 -180s23.167 -132.667 69.5 -180s106.833 -71 181.5 -71c44 0 84 10.167 120 30.5s63 47.833 81 82.5l100 -57
c-29.333 -51.333 -70.833 -92.166 -124.5 -122.499s-112.5 -45.5 -176.5 -45.5z" />
    <glyph glyph-name="cacute" unicode="&#x107;" horiz-adv-x="542" 
d="M225 565h104l106 135h-130zM299 -13c-75.333 0 -138.166 25.332 -188.499 75.999s-75.5 113 -75.5 187c0 74.667 25.167 137.167 75.5 187.5s113.166 75.5 188.499 75.5c48.667 0 93 -11.667 133 -35s70 -54.666 90 -93.999l-93 -54c-11.333 24 -28.5 42.833 -51.5 56.5
s-49.5 20.5 -79.5 20.5c-44 0 -80.833 -15 -110.5 -45s-44.5 -67.333 -44.5 -112s14.833 -82 44.5 -112s66.5 -45 110.5 -45c29.333 0 55.833 7 79.5 21s41.5 32.667 53.5 56l93 -53c-21.333 -40 -52 -71.667 -92 -95s-84.333 -35 -133 -35z" />
    <glyph glyph-name="Cdotaccent" unicode="&#x10a;" horiz-adv-x="732" 
d="M401 763c-19.333 0 -35.833 6.83301 -49.5 20.5s-20.5 30.167 -20.5 49.5s6.83301 35.833 20.5 49.5s30.167 20.5 49.5 20.5s35.833 -6.83301 49.5 -20.5s20.5 -30.167 20.5 -49.5s-6.83301 -35.833 -20.5 -49.5s-30.167 -20.5 -49.5 -20.5zM401 -13
c-105.333 0 -192.665 34.8301 -261.998 104.497s-104 155.834 -104 258.501s34.667 188.834 104 258.501s156.666 104.5 261.999 104.5c63.333 0 121.833 -15 175.5 -45s95.5 -70.667 125.5 -122l-100 -58c-18.667 34.667 -45.834 62.167 -81.501 82.5
s-75.5 30.5 -119.5 30.5c-74.667 0 -135.167 -23.667 -181.5 -71s-69.5 -107.333 -69.5 -180s23.167 -132.667 69.5 -180s106.833 -71 181.5 -71c44 0 84 10.167 120 30.5s63 47.833 81 82.5l100 -57c-29.333 -51.333 -70.833 -92.166 -124.5 -122.499
s-112.5 -45.5 -176.5 -45.5z" />
    <glyph glyph-name="cdotaccent" unicode="&#x10b;" horiz-adv-x="542" 
d="M295 558c-19.333 0 -35.833 6.83301 -49.5 20.5s-20.5 30.167 -20.5 49.5c0 18.667 6.83301 35 20.5 49s30.167 21 49.5 21s35.833 -6.83301 49.5 -20.5s20.5 -30.167 20.5 -49.5s-6.83301 -35.833 -20.5 -49.5s-30.167 -20.5 -49.5 -20.5zM299 -13
c-75.333 0 -138.166 25.332 -188.499 75.999s-75.5 113 -75.5 187c0 74.667 25.167 137.167 75.5 187.5s113.166 75.5 188.499 75.5c48.667 0 93 -11.667 133 -35s70 -54.666 90 -93.999l-93 -54c-11.333 24 -28.5 42.833 -51.5 56.5s-49.5 20.5 -79.5 20.5
c-44 0 -80.833 -15 -110.5 -45s-44.5 -67.333 -44.5 -112s14.833 -82 44.5 -112s66.5 -45 110.5 -45c29.333 0 55.833 7 79.5 21s41.5 32.667 53.5 56l93 -53c-21.333 -40 -52 -71.667 -92 -95s-84.333 -35 -133 -35z" />
    <glyph glyph-name="Ccaron" unicode="&#x10c;" horiz-adv-x="732" 
d="M342 765l-106 140h110l53 -73l52 73h110l-106 -140h-113zM401 99c44 0 84.001 10.1641 120.001 30.4971s63 47.833 81 82.5l100 -57c-29.333 -51.333 -70.833 -92.166 -124.5 -122.499s-112.5 -45.5 -176.5 -45.5c-105.333 0 -192.666 34.833 -261.999 104.5
s-104 155.834 -104 258.501s34.667 188.834 104 258.501s156.666 104.5 261.999 104.5c63.333 0 121.833 -15 175.5 -45s95.5 -70.667 125.5 -122l-100 -58c-18.667 34.667 -45.834 62.167 -81.501 82.5s-75.5 30.5 -119.5 30.5c-74.667 0 -135.167 -23.667 -181.5 -71
s-69.5 -107.333 -69.5 -180s23.167 -132.667 69.5 -180s106.833 -71 181.5 -71z" />
    <glyph glyph-name="ccaron" unicode="&#x10d;" horiz-adv-x="542" 
d="M236 560l-106 140h110l53 -73l52 73h110l-106 -140h-113zM431 170l93 -53.001c-21.333 -40 -52 -71.667 -92 -95s-84.333 -35 -133 -35c-75.333 0 -138.166 25.333 -188.499 76s-75.5 113 -75.5 187c0 74.667 25.167 137.167 75.5 187.5s113.166 75.5 188.499 75.5
c48.667 0 93 -11.667 133 -35s70 -54.666 90 -93.999l-93 -54c-11.333 24 -28.5 42.833 -51.5 56.5s-49.5 20.5 -79.5 20.5c-44 0 -80.833 -15 -110.5 -45s-44.5 -67.333 -44.5 -112s14.833 -82 44.5 -112s66.5 -45 110.5 -45c29.333 0 55.833 7 79.5 21
s41.5 32.667 53.5 56z" />
    <glyph glyph-name="Dcaron" unicode="&#x10e;" horiz-adv-x="715" 
d="M281 760l-106 140h110l53 -73l52 73h110l-106 -140h-113zM345 700c96 0 175.833 -33.667 239.5 -101s95.5 -150.333 95.5 -249c0 -98 -31.833 -180.833 -95.5 -248.5s-143.5 -101.5 -239.5 -101.5h-275v700h275zM345 110c66 0 119.833 22.668 161.5 68.001
s62.5 102.666 62.5 171.999c0 70 -20.833 127.5 -62.5 172.5s-95.5 67.5 -161.5 67.5h-160v-480h160z" />
    <glyph glyph-name="dcaron" unicode="&#x10f;" horiz-adv-x="724" 
d="M459 429v271h108v-700h-108v72c-40.667 -56.667 -99 -85 -175 -85c-68.667 0 -127.334 25.5 -176.001 76.5s-73 113.167 -73 186.5c0 74 24.333 136.333 73 187s107.334 76 176.001 76c76 0 134.333 -28 175 -84zM631 700h103l-30 -190h-83zM301 90
c45.333 0 83 15.167 113 45.5s45 68.5 45 114.5s-15 84.167 -45 114.5s-67.667 45.5 -113 45.5s-83 -15.167 -113 -45.5s-45 -68.5 -45 -114.5s15 -84.167 45 -114.5s67.667 -45.5 113 -45.5z" />
    <glyph glyph-name="Dcroat" unicode="&#x110;" horiz-adv-x="745" 
d="M375 700c96 0 175.833 -33.667 239.5 -101s95.5 -150.333 95.5 -249c0 -98 -31.833 -180.833 -95.5 -248.5s-143.5 -101.5 -239.5 -101.5h-275v293h-75v104h75v303h275zM375 110c66 0 119.833 22.668 161.5 68.001s62.5 102.666 62.5 171.999
c0 70 -20.833 127.5 -62.5 172.5s-95.5 67.5 -161.5 67.5h-160v-193h180v-104h-180v-183h160z" />
    <glyph glyph-name="dcroat" unicode="&#x111;" horiz-adv-x="637" 
d="M632 635v-74h-65v-561h-108v72c-40.667 -56.667 -99 -85 -175 -85c-68.667 0 -127.334 25.5 -176.001 76.5s-73 113.167 -73 186.5c0 74 24.333 136.333 73 187s107.334 76 176.001 76c76 0 134.333 -28 175 -84v132h-162v74h162v65h108v-65h65zM301 90
c45.333 0 83 15.167 113 45.5s45 68.5 45 114.5s-15 84.167 -45 114.5s-67.667 45.5 -113 45.5s-83 -15.167 -113 -45.5s-45 -68.5 -45 -114.5s15 -84.167 45 -114.5s67.667 -45.5 113 -45.5z" />
    <glyph glyph-name="Emacron" unicode="&#x112;" horiz-adv-x="530" 
d="M421 859v-89h-280v89h280zM185 110h310v-110h-425v700h420v-110h-305v-182h280v-109h-280v-189z" />
    <glyph glyph-name="emacron" unicode="&#x113;" horiz-adv-x="582" 
d="M433 662v-89h-280v89h280zM148 204c8 -38 26.334 -67.168 55.001 -87.501s63.667 -30.5 105 -30.5c57.333 0 100.333 20.667 129 62l89 -52c-49.333 -72.667 -122.333 -109 -219 -109c-81.333 0 -147 24.833 -197 74.5s-75 112.5 -75 188.5
c0 74.667 24.667 137.167 74 187.5s112.666 75.5 189.999 75.5c73.333 0 133.5 -25.667 180.5 -77s70.5 -113.666 70.5 -186.999c0 -11.333 -1.33301 -26.333 -4 -45h-398zM147.001 291.999l293.998 -0.000976562c-7.33301 40.667 -24.166 71.334 -50.499 92.001
s-57.166 31 -92.499 31c-40 0 -73.333 -11 -100 -33s-43.667 -52 -51 -90z" />
    <glyph glyph-name="Edotaccent" unicode="&#x116;" horiz-adv-x="530" 
d="M281 758c-19.333 0 -35.833 6.83301 -49.5 20.5s-20.5 30.167 -20.5 49.5c0 18.667 6.83301 35 20.5 49s30.167 21 49.5 21s35.833 -6.83301 49.5 -20.5s20.5 -30.167 20.5 -49.5s-6.83301 -35.833 -20.5 -49.5s-30.167 -20.5 -49.5 -20.5zM185 110h310v-110h-425v700
h420v-110h-305v-182h280v-109h-280v-189z" />
    <glyph glyph-name="edotaccent" unicode="&#x117;" horiz-adv-x="582" 
d="M293 561c-19.333 0 -35.833 6.83301 -49.5 20.5s-20.5 30.167 -20.5 49.5s6.83301 35.833 20.5 49.5s30.167 20.5 49.5 20.5s35.833 -6.83301 49.5 -20.5s20.5 -30.167 20.5 -49.5s-6.83301 -35.833 -20.5 -49.5s-30.167 -20.5 -49.5 -20.5zM148 204
c8 -38 26.334 -67.168 55.001 -87.501s63.667 -30.5 105 -30.5c57.333 0 100.333 20.667 129 62l89 -52c-49.333 -72.667 -122.333 -109 -219 -109c-81.333 0 -147 24.833 -197 74.5s-75 112.5 -75 188.5c0 74.667 24.667 137.167 74 187.5s112.666 75.5 189.999 75.5
c73.333 0 133.5 -25.667 180.5 -77s70.5 -113.666 70.5 -186.999c0 -11.333 -1.33301 -26.333 -4 -45h-398zM147.001 291.999l293.998 -0.000976562c-7.33301 40.667 -24.166 71.334 -50.499 92.001s-57.166 31 -92.499 31c-40 0 -73.333 -11 -100 -33s-43.667 -52 -51 -90z
" />
    <glyph glyph-name="Eogonek" unicode="&#x118;" horiz-adv-x="530" 
d="M495 0c-40.667 -39.333 -60.999 -74.333 -60.999 -105c0 -18.667 9.33301 -28 28 -28c8 -0.666992 19 1.33301 33 6v-72c-22.667 -9.33301 -47.334 -14 -74.001 -14c-27.333 0 -49.333 7.33301 -66 22s-25 35 -25 61c0 40 22.667 83.333 68 130h-328v700h420v-110h-305
v-182h280v-109h-280v-189h310v-110z" />
    <glyph glyph-name="eogonek" unicode="&#x119;" horiz-adv-x="582" 
d="M148 204c8 -38 26.3359 -67.168 55.0029 -87.501s63.667 -30.5 105 -30.5c57.333 0 100.333 20.667 129 62l89 -52c-11.333 -17.333 -23.333 -31.333 -36 -42c-64.667 -70.667 -97 -123.667 -97 -159c0 -18.667 9.33301 -28 28 -28c8 -0.666992 19 1.33301 33 6v-72
c-22.667 -9.33301 -47.334 -14 -74.001 -14c-27.333 0 -49.333 7.33301 -66 22s-25 35 -25 61c0 40.667 21.667 80.667 65 120c-14.667 -2 -30.334 -3 -47.001 -3c-81.333 0 -147 24.833 -197 74.5s-75 112.5 -75 188.5c0 74.667 24.667 137.167 74 187.5
s112.666 75.5 189.999 75.5c73.333 0 133.5 -25.667 180.5 -77s70.5 -113.666 70.5 -186.999c0 -11.333 -1.33301 -26.333 -4 -45h-398zM147.003 291.999l293.998 -0.000976562c-7.33301 40.667 -24.166 71.334 -50.499 92.001s-57.166 31 -92.499 31
c-40 0 -73.333 -11 -100 -33s-43.667 -52 -51 -90z" />
    <glyph glyph-name="Ecaron" unicode="&#x11a;" horiz-adv-x="530" 
d="M222 760l-106 140h110l53 -73l52 73h110l-106 -140h-113zM185 110h310v-110h-425v700h420v-110h-305v-182h280v-109h-280v-189z" />
    <glyph glyph-name="ecaron" unicode="&#x11b;" horiz-adv-x="582" 
d="M234 563l-106 140h110l53 -73l52 73h110l-106 -140h-113zM148 204c8 -38 26.334 -67.168 55.001 -87.501s63.667 -30.5 105 -30.5c57.333 0 100.333 20.667 129 62l89 -52c-49.333 -72.667 -122.333 -109 -219 -109c-81.333 0 -147 24.833 -197 74.5s-75 112.5 -75 188.5
c0 74.667 24.667 137.167 74 187.5s112.666 75.5 189.999 75.5c73.333 0 133.5 -25.667 180.5 -77s70.5 -113.666 70.5 -186.999c0 -11.333 -1.33301 -26.333 -4 -45h-398zM147.001 291.999l293.998 -0.000976562c-7.33301 40.667 -24.166 71.334 -50.499 92.001
s-57.166 31 -92.499 31c-40 0 -73.333 -11 -100 -33s-43.667 -52 -51 -90z" />
    <glyph glyph-name="Gbreve" unicode="&#x11e;" horiz-adv-x="786" 
d="M396 757c-50 0 -88.833 12.167 -116.5 36.5s-41.5 58.833 -41.5 103.5h98c0 -39.333 20 -59 60 -59c39.333 0 59 19.667 59 59h98c0 -44.667 -13.833 -79.167 -41.5 -103.5s-66.167 -36.5 -115.5 -36.5zM751 362v-47.998c0 -96 -31.667 -174.5 -95 -235.5
s-146 -91.5 -248 -91.5c-108 0 -197.167 35 -267.5 105s-105.5 156 -105.5 258c0 101.333 35.167 187.166 105.5 257.499s157.5 105.5 261.5 105.5c65.333 0 125 -15 179 -45s96 -70.333 126 -121l-99 -57c-18.667 33.333 -46.334 60.166 -83.001 80.499
s-77.667 30.5 -123 30.5c-73.333 0 -133.666 -24 -180.999 -72s-71 -108 -71 -180s23.833 -131.667 71.5 -179s110.167 -71 187.5 -71c62 0 112.5 14.5 151.5 43.5s63.833 67.833 74.5 116.5h-234v103h350z" />
    <glyph glyph-name="gbreve" unicode="&#x11f;" 
d="M301 557c-50 0 -88.833 12.167 -116.5 36.5s-41.5 58.833 -41.5 103.5h98c0 -39.333 20 -59 60 -59c39.333 0 59 19.667 59 59h98c0 -44.667 -13.833 -79.167 -41.5 -103.5s-66.167 -36.5 -115.5 -36.5zM461 500l106 0.00292969v-477c0 -76 -25 -134.333 -75 -175
s-110.667 -61 -182 -61c-115.333 0 -194.333 40.333 -237 121l93 54c26 -51.333 74.667 -77 146 -77c46.667 0 83.167 12.167 109.5 36.5s39.5 58.166 39.5 101.499v61c-40.667 -58 -98.667 -87 -174 -87c-70.667 0 -130.334 25.167 -179.001 75.5s-73 111.166 -73 182.499
s24.333 132.166 73 182.499s108.334 75.5 179.001 75.5c75.333 0 133.333 -29 174 -87v74zM302 98.0029c45.333 0 83.166 15 113.499 45s45.5 67.333 45.5 112s-15.167 82 -45.5 112s-68.166 45 -113.499 45s-83.166 -15 -113.499 -45s-45.5 -67.333 -45.5 -112
s15.167 -82 45.5 -112s68.166 -45 113.499 -45z" />
    <glyph glyph-name="Gdotaccent" unicode="&#x120;" horiz-adv-x="786" 
d="M396 763c-19.333 0 -35.833 6.83301 -49.5 20.5s-20.5 30.167 -20.5 49.5s7 35.833 21 49.5s30.333 20.5 49 20.5c19.333 0 35.833 -6.83301 49.5 -20.5s20.5 -30.167 20.5 -49.5s-6.83301 -35.833 -20.5 -49.5s-30.167 -20.5 -49.5 -20.5zM751 362v-47.998
c0 -96 -31.667 -174.5 -95 -235.5s-146 -91.5 -248 -91.5c-108 0 -197.167 35 -267.5 105s-105.5 156 -105.5 258c0 101.333 35.167 187.166 105.5 257.499s157.5 105.5 261.5 105.5c65.333 0 125 -15 179 -45s96 -70.333 126 -121l-99 -57
c-18.667 33.333 -46.334 60.166 -83.001 80.499s-77.667 30.5 -123 30.5c-73.333 0 -133.666 -24 -180.999 -72s-71 -108 -71 -180s23.833 -131.667 71.5 -179s110.167 -71 187.5 -71c62 0 112.5 14.5 151.5 43.5s63.833 67.833 74.5 116.5h-234v103h350z" />
    <glyph glyph-name="gdotaccent" unicode="&#x121;" 
d="M301 563c-19.333 0 -35.833 6.83301 -49.5 20.5s-20.5 30.167 -20.5 49.5s6.83301 35.833 20.5 49.5s30.167 20.5 49.5 20.5s35.833 -6.83301 49.5 -20.5s20.5 -30.167 20.5 -49.5s-6.83301 -35.833 -20.5 -49.5s-30.167 -20.5 -49.5 -20.5zM461 500l106 0.00292969v-477
c0 -76 -25 -134.333 -75 -175s-110.667 -61 -182 -61c-115.333 0 -194.333 40.333 -237 121l93 54c26 -51.333 74.667 -77 146 -77c46.667 0 83.167 12.167 109.5 36.5s39.5 58.166 39.5 101.499v61c-40.667 -58 -98.667 -87 -174 -87
c-70.667 0 -130.334 25.167 -179.001 75.5s-73 111.166 -73 182.499s24.333 132.166 73 182.499s108.334 75.5 179.001 75.5c75.333 0 133.333 -29 174 -87v74zM302 98.0029c45.333 0 83.166 15 113.499 45s45.5 67.333 45.5 112s-15.167 82 -45.5 112
s-68.166 45 -113.499 45s-83.166 -15 -113.499 -45s-45.5 -67.333 -45.5 -112s15.167 -82 45.5 -112s68.166 -45 113.499 -45z" />
    <glyph glyph-name="Gcommaaccent" unicode="&#x122;" horiz-adv-x="786" 
d="M751 362v-47.998c0 -96 -31.667 -174.5 -95 -235.5s-146 -91.5 -248 -91.5c-108 0 -197.167 35 -267.5 105s-105.5 156 -105.5 258c0 101.333 35.167 187.166 105.5 257.499s157.5 105.5 261.5 105.5c65.333 0 125 -15 179 -45s96 -70.333 126 -121l-99 -57
c-18.667 33.333 -46.334 60.166 -83.001 80.499s-77.667 30.5 -123 30.5c-73.333 0 -133.666 -24 -180.999 -72s-71 -108 -71 -180s23.833 -131.667 71.5 -179s110.167 -71 187.5 -71c62 0 112.5 14.5 151.5 43.5s63.833 67.833 74.5 116.5h-234v103h350zM356 -254.998
l10 190h103l-30 -190h-83z" />
    <glyph glyph-name="gcommaaccent" unicode="&#x123;" 
d="M356 775l-10 -190h-103l30 190h83zM461 500l106 0.00292969v-477c0 -76 -25 -134.333 -75 -175s-110.667 -61 -182 -61c-115.333 0 -194.333 40.333 -237 121l93 54c26 -51.333 74.667 -77 146 -77c46.667 0 83.167 12.167 109.5 36.5s39.5 58.166 39.5 101.499v61
c-40.667 -58 -98.667 -87 -174 -87c-70.667 0 -130.334 25.167 -179.001 75.5s-73 111.166 -73 182.499s24.333 132.166 73 182.499s108.334 75.5 179.001 75.5c75.333 0 133.333 -29 174 -87v74zM302 98.0029c45.333 0 83.166 15 113.499 45s45.5 67.333 45.5 112
s-15.167 82 -45.5 112s-68.166 45 -113.499 45s-83.166 -15 -113.499 -45s-45.5 -67.333 -45.5 -112s15.167 -82 45.5 -112s68.166 -45 113.499 -45z" />
    <glyph glyph-name="Hbar" unicode="&#x126;" horiz-adv-x="715" 
d="M685 591v-86h-62v-505h-115v290h-300v-290h-115v505h-63v86h63v109h115v-109h300v109h115v-109h62zM508 400v105h-300v-105h300z" />
    <glyph glyph-name="hbar" unicode="&#x127;" horiz-adv-x="578" 
d="M334 513c56.667 0 102.667 -18.332 138 -54.999s53 -87 53 -151v-307h-108v296c0 37.333 -10 66 -30 86s-47 30 -81 30c-38.667 0 -69.667 -11.833 -93 -35.5s-35 -59.834 -35 -108.501v-268h-108v561h-65v74h65v65h108v-65h142v-74h-142v-125
c33.333 51.333 85.333 77 156 77z" />
    <glyph glyph-name="Imacron" unicode="&#x12a;" horiz-adv-x="255" 
d="M-12 770v89h280v-89h-280zM70 700h115v-700h-115v700z" />
    <glyph glyph-name="imacron" unicode="&#x12b;" horiz-adv-x="233" 
d="M7 570v94h220v-94h-220zM63 0v500h108v-500h-108z" />
    <glyph glyph-name="Iogonek" unicode="&#x12e;" horiz-adv-x="255" 
d="M176 -133c8 -0.666992 18.668 1.33398 32.001 6.00098v-72c-22.667 -9.33301 -47 -14 -73 -14c-28 0 -50.167 7.33301 -66.5 22s-24.5 35 -24.5 61c0 39.333 14.333 82.666 43 129.999h-17v700h115v-700c-24.667 -42 -37 -77 -37 -105
c-0.666992 -18.667 8.66602 -28 27.999 -28z" />
    <glyph glyph-name="iogonek" unicode="&#x12f;" horiz-adv-x="233" 
d="M117 575c-18.667 0 -34.8301 6.83301 -48.4971 20.5s-20.5 29.834 -20.5 48.501s6.66699 34.834 20 48.501s29.666 20.5 48.999 20.5s35.666 -6.83301 48.999 -20.5s20 -29.834 20 -48.501s-6.83301 -34.834 -20.5 -48.501s-29.834 -20.5 -48.501 -20.5zM162.004 -133
c8 -0.666992 19.001 1.33301 33.001 6v-72c-22.667 -9.33301 -47.334 -14 -74.001 -14c-27.333 0 -49.333 8 -66 24s-25 37.333 -25 64c0 36 13.667 77.667 41 125h-8v500h108v-500c-24.667 -40 -37 -73.333 -37 -100c0 -22 9.33301 -33 28 -33z" />
    <glyph glyph-name="Idotaccent" unicode="&#x130;" horiz-adv-x="255" 
d="M128 758c-19.333 0 -35.833 6.83301 -49.5 20.5s-20.5 30.167 -20.5 49.5c0 18.667 7 35 21 49s30.333 21 49 21c19.333 0 35.833 -6.83301 49.5 -20.5s20.5 -30.167 20.5 -49.5s-6.83301 -35.833 -20.5 -49.5s-30.167 -20.5 -49.5 -20.5zM70 700h115v-700h-115v700z" />
    <glyph glyph-name="dotlessi" unicode="&#x131;" horiz-adv-x="233" 
d="M63 0v500h108v-500h-108z" />
    <glyph glyph-name="Kcommaaccent" unicode="&#x136;" horiz-adv-x="603" 
d="M305 359l293 -359h-137l-276 333v-333h-115v700h115v-314l266 314h137zM250 -255l10 190h103l-30 -190h-83z" />
    <glyph glyph-name="kcommaaccent" unicode="&#x137;" horiz-adv-x="515" 
d="M277 255l228 -255h-129l-205 231v-231h-108v700h108v-421l194 221h132zM218 -255l10 190h103l-30 -190h-83z" />
    <glyph glyph-name="Lacute" unicode="&#x139;" horiz-adv-x="485" 
d="M282 900l-106 -135h-104l80 135h130zM185 110h285v-110h-400v700h115v-590z" />
    <glyph glyph-name="lacute" unicode="&#x13a;" horiz-adv-x="233" 
d="M61 765h104l106 135h-130zM63 0v730h108v-730h-108z" />
    <glyph glyph-name="Lcommaaccent" unicode="&#x13b;" horiz-adv-x="485" 
d="M185 110h285v-110h-400v700h115v-590zM221 -255l10 190h103l-30 -190h-83z" />
    <glyph glyph-name="lcommaaccent" unicode="&#x13c;" horiz-adv-x="233" 
d="M63 0v730h108v-730h-108zM140 -255l30 190h-103l-10 -190h83z" />
    <glyph glyph-name="Lcaron" unicode="&#x13d;" horiz-adv-x="485" 
d="M185 110h285v-110h-400v700h115v-590zM382 700l-30 -180h-88l10 180h108z" />
    <glyph glyph-name="lcaron" unicode="&#x13e;" horiz-adv-x="327" 
d="M63 0v730h108v-730h-108zM307 540l30 190h-103l-10 -190h83z" />
    <glyph glyph-name="Lslash" unicode="&#x141;" horiz-adv-x="505" 
d="M205 110h285v-110h-400v222l-60 -36v113l60 36v365h115v-297l145 86v-113l-145 -86v-180z" />
    <glyph glyph-name="lslash" unicode="&#x142;" horiz-adv-x="255" 
d="M240 480v-103l-58 -40v-337h-108v263l-59 -40v103l59 40v364h108v-290z" />
    <glyph glyph-name="Nacute" unicode="&#x143;" horiz-adv-x="675" 
d="M263 765h104l106 135h-130zM490 700h115v-700h-90l-330 475v-475h-115v700h90l330 -475v475z" />
    <glyph glyph-name="nacute" unicode="&#x144;" horiz-adv-x="571" 
d="M436 705l-106 -135h-104l80 135h130zM326 513c57.333 0 103.666 -18.332 138.999 -54.999s53 -87 53 -151v-307h-108v296c0 37.333 -10 66 -30 86s-47.333 30 -82 30c-38 0 -68.667 -11.833 -92 -35.5s-35 -59.834 -35 -108.501v-268h-108v500h108v-64
c32.667 51.333 84.334 77 155.001 77z" />
    <glyph glyph-name="Ncommaaccent" unicode="&#x145;" horiz-adv-x="675" 
d="M490 700h115v-700h-90l-330 475v-475h-115v700h90l330 -475v475zM364 -255l30 190h-103l-10 -190h83z" />
    <glyph glyph-name="ncommaaccent" unicode="&#x146;" horiz-adv-x="571" 
d="M326 513c57.333 0 103.666 -18.332 138.999 -54.999s53 -87 53 -151v-307h-108v296c0 37.333 -10 66 -30 86s-47.333 30 -82 30c-38 0 -68.667 -11.833 -92 -35.5s-35 -59.834 -35 -108.501v-268h-108v500h108v-64c32.667 51.333 84.334 77 155.001 77zM236 -254.999
l10 190h103l-30 -190h-83z" />
    <glyph glyph-name="Ncaron" unicode="&#x147;" horiz-adv-x="675" 
d="M274 760l-106 140h110l53 -73l52 73h110l-106 -140h-113zM490 700h115v-700h-90l-330 475v-475h-115v700h90l330 -475v475z" />
    <glyph glyph-name="ncaron" unicode="&#x148;" horiz-adv-x="571" 
d="M237 565l-106 140h110l53 -73l52 73h110l-106 -140h-113zM326 513c57.333 0 103.666 -18.332 138.999 -54.999s53 -87 53 -151v-307h-108v296c0 37.333 -10 66 -30 86s-47.333 30 -82 30c-38 0 -68.667 -11.833 -92 -35.5s-35 -59.834 -35 -108.501v-268h-108v500h108
v-64c32.667 51.333 84.334 77 155.001 77z" />
    <glyph glyph-name="Eng" unicode="&#x14a;" horiz-adv-x="675" 
d="M490 700l115.001 -0.00195312v-700c0 -69.333 -19.833 -120.666 -59.5 -153.999s-94.834 -48.666 -165.501 -45.999v106c36.667 0 64.167 7 82.5 21s27.5 40 27.5 78v31l-305 439v-475h-115v700h90l330 -475v475z" />
    <glyph glyph-name="eng" unicode="&#x14b;" horiz-adv-x="571" 
d="M326 513c57.333 0 103.666 -18.333 138.999 -55s53 -87 53 -151v-327c0 -66 -16.833 -115.833 -50.5 -149.5s-83.5 -48.167 -149.5 -43.5v104c30.667 -3.33301 53.667 1.83398 69 15.501s23 38.167 23 73.5v316c0 37.333 -10 66 -30 86s-47.333 30 -82 30
c-38 0 -68.667 -11.833 -92 -35.5s-35 -59.834 -35 -108.501v-268h-108v500h108v-64c32.667 51.333 84.334 77 155.001 77z" />
    <glyph glyph-name="Omacron" unicode="&#x14c;" horiz-adv-x="796" 
d="M258 775v89h280v-89h-280zM398 -13c-101.333 0 -187.166 35.167 -257.499 105.5s-105.5 156.166 -105.5 257.499s35.167 187.166 105.5 257.499s156.166 105.5 257.499 105.5s187.166 -35.167 257.499 -105.5s105.5 -156.166 105.5 -257.499
s-35.167 -187.166 -105.5 -257.499s-156.166 -105.5 -257.499 -105.5zM398 99c70 0 128.833 23.833 176.5 71.5s71.5 107.5 71.5 179.5s-23.833 131.833 -71.5 179.5s-106.5 71.5 -176.5 71.5s-128.833 -23.833 -176.5 -71.5s-71.5 -107.5 -71.5 -179.5
s23.833 -131.833 71.5 -179.5s106.5 -71.5 176.5 -71.5z" />
    <glyph glyph-name="omacron" unicode="&#x14d;" horiz-adv-x="598" 
d="M159 575v89h280v-89h-280zM299 -13c-73.333 0 -135.666 25.333 -186.999 76s-77 113 -77 187s25.667 136.333 77 187s113.666 76 186.999 76c74 0 136.5 -25.333 187.5 -76s76.5 -113 76.5 -187s-25.5 -136.333 -76.5 -187s-113.5 -76 -187.5 -76zM299 92
c44 0 81 15 111 45s45 67.667 45 113s-15 83 -45 113s-67 45 -111 45s-81 -15 -111 -45s-45 -67.667 -45 -113s15 -83 45 -113s67 -45 111 -45z" />
    <glyph glyph-name="Ohungarumlaut" unicode="&#x150;" horiz-adv-x="796" 
d="M238 765h108l81 135h-114zM401 765h108l91 135h-114zM398 -13c-101.333 0 -187.166 35.167 -257.499 105.5s-105.5 156.166 -105.5 257.499s35.167 187.166 105.5 257.499s156.166 105.5 257.499 105.5s187.166 -35.167 257.499 -105.5s105.5 -156.166 105.5 -257.499
s-35.167 -187.166 -105.5 -257.499s-156.166 -105.5 -257.499 -105.5zM398 99c70 0 128.833 23.833 176.5 71.5s71.5 107.5 71.5 179.5s-23.833 131.833 -71.5 179.5s-106.5 71.5 -176.5 71.5s-128.833 -23.833 -176.5 -71.5s-71.5 -107.5 -71.5 -179.5
s23.833 -131.833 71.5 -179.5s106.5 -71.5 176.5 -71.5z" />
    <glyph glyph-name="ohungarumlaut" unicode="&#x151;" horiz-adv-x="598" 
d="M139 565h108l81 135h-114zM302 565h108l91 135h-114zM299 -13c-73.333 0 -135.666 25.333 -186.999 76s-77 113 -77 187s25.667 136.333 77 187s113.666 76 186.999 76c74 0 136.5 -25.333 187.5 -76s76.5 -113 76.5 -187s-25.5 -136.333 -76.5 -187
s-113.5 -76 -187.5 -76zM299 92c44 0 81 15 111 45s45 67.667 45 113s-15 83 -45 113s-67 45 -111 45s-81 -15 -111 -45s-45 -67.667 -45 -113s15 -83 45 -113s67 -45 111 -45z" />
    <glyph glyph-name="OE" unicode="&#x152;" horiz-adv-x="916" 
d="M601 110h280v-110h-395c-30 -8.66699 -62.667 -13 -98 -13c-100.667 0 -184.667 35 -252 105s-101 156 -101 258s33.667 188 101 258s151.333 105 252 105c35.333 0 68 -4.33301 98 -13h390v-110h-275v-182h255v-109h-255v-189zM486 114v472c-27.333 10 -60 15 -98 15
c-69.333 0 -126.333 -23.667 -171 -71s-67 -107.333 -67 -180s22.333 -132.667 67 -180s101.667 -71 171 -71c35.333 0 68 5 98 15z" />
    <glyph glyph-name="oe" unicode="&#x153;" horiz-adv-x="1002" 
d="M568 204c8.66699 -38.667 27.499 -68.001 56.499 -88.001s62.833 -30 101.5 -30c58.667 0 102.334 20.667 131.001 62l89 -52c-49.333 -72.667 -122 -109 -218 -109c-50 0 -93.833 10.833 -131.5 32.5s-67.167 51.834 -88.5 90.501c-20.667 -38 -49.334 -68 -86.001 -90
s-78.334 -33 -125.001 -33c-74.667 0 -137 25.333 -187 76s-75 113 -75 187c0 74.667 25 137.167 75 187.5s112.333 75.5 187 75.5c46.667 0 88.334 -10.833 125.001 -32.5s65.334 -51.5 86.001 -89.5c20.667 38 49.5 67.833 86.5 89.5s79.833 32.5 128.5 32.5
c72.667 0 132 -25.5 178 -76.5s69 -113.5 69 -187.5c0 -11.333 -1.33301 -26.333 -4 -45h-398zM566.999 292.999h293.999c-7.33301 40 -24.166 70.333 -50.499 91s-56.833 31 -91.5 31c-40 0 -73.5 -10.833 -100.5 -32.5s-44.167 -51.5 -51.5 -89.5zM298.998 91.999
c44 0 81 15 111 45s45 67.667 45 113s-15 83 -45 113s-67 45 -111 45c-45.333 0 -82.666 -15 -111.999 -45s-44 -67.667 -44 -113s14.667 -83 44 -113s66.666 -45 111.999 -45z" />
    <glyph glyph-name="Racute" unicode="&#x154;" horiz-adv-x="613" 
d="M440 900l-106 -135h-104l80 135h130zM469 0l-148.001 255.001h-136v-255h-115v700h280c62.667 0 115.834 -21.833 159.501 -65.5s65.5 -96.834 65.5 -159.501c0 -44.667 -12.833 -85.5 -38.5 -122.5s-59.167 -63.833 -100.5 -80.5l159 -272h-126zM184.999 592.001
v-234.002h165c30.667 0 56.667 11.333 78 34s32 50.334 32 83.001s-10.667 60.334 -32 83.001s-47.333 34 -78 34h-165z" />
    <glyph glyph-name="racute" unicode="&#x155;" horiz-adv-x="342" 
d="M330 700l-106 -135h-104l80 135h130zM171 416c27.333 62 78.667 92.998 154 92.998v-117c-41.333 2.66699 -77.333 -7.16602 -108 -29.499s-46 -59.166 -46 -110.499v-252h-108v500h108v-84z" />
    <glyph glyph-name="Rcommaaccent" unicode="&#x156;" horiz-adv-x="613" 
d="M436 272l158.999 -271.999h-126l-148 255h-136v-255h-115v700h280c62.667 0 115.834 -21.833 159.501 -65.5s65.5 -96.834 65.5 -159.501c0 -44.667 -12.833 -85.5 -38.5 -122.5s-59.167 -63.833 -100.5 -80.5zM184.999 592.001v-234.002h165
c30.667 0 56.667 11.333 78 34s32 50.334 32 83.001s-10.667 60.334 -32 83.001s-47.333 34 -78 34h-165zM267.999 -255.001l10 190h103l-30 -190h-83z" />
    <glyph glyph-name="rcommaaccent" unicode="&#x157;" horiz-adv-x="342" 
d="M171 416c27.333 62 78.667 92.998 154 92.998v-117c-41.333 2.66699 -77.333 -7.16602 -108 -29.499s-46 -59.166 -46 -110.499v-252h-108v500h108v-84zM58.001 -255.002l10 190h103l-30 -190h-83z" />
    <glyph glyph-name="Rcaron" unicode="&#x158;" horiz-adv-x="613" 
d="M241 760l-106 140h110l53 -73l52 73h110l-106 -140h-113zM469 0l-148.001 255.001h-136v-255h-115v700h280c62.667 0 115.834 -21.833 159.501 -65.5s65.5 -96.834 65.5 -159.501c0 -44.667 -12.833 -85.5 -38.5 -122.5s-59.167 -63.833 -100.5 -80.5l159 -272h-126z
M184.999 592.001v-234.002h165c30.667 0 56.667 11.333 78 34s32 50.334 32 83.001s-10.667 60.334 -32 83.001s-47.333 34 -78 34h-165z" />
    <glyph glyph-name="rcaron" unicode="&#x159;" horiz-adv-x="342" 
d="M131 560l-106 140h110l53 -73l52 73h110l-106 -140h-113zM171 416c27.333 62 78.667 92.998 154 92.998v-117c-41.333 2.66699 -77.333 -7.16602 -108 -29.499s-46 -59.166 -46 -110.499v-252h-108v500h108v-84z" />
    <glyph glyph-name="Sacute" unicode="&#x15a;" horiz-adv-x="581" 
d="M219 770h104l106 135h-130zM303 -13c-67.333 0 -124.498 15.332 -171.498 45.999s-79.833 72.667 -98.5 126l99 58c28 -78.667 86 -118 174 -118c43.333 0 75.833 8.5 97.5 25.5s32.5 39.167 32.5 66.5c0 28.667 -11.667 50.5 -35 65.5s-64.666 31.5 -123.999 49.5
c-33.333 10 -60.333 19.333 -81 28s-42.5 20.834 -65.5 36.501s-40.167 35.167 -51.5 58.5s-17 50.666 -17 81.999c0 62 22 111.167 66 147.5s97 54.5 159 54.5c56 0 105 -13.667 147 -41s74.333 -65 97 -113l-97 -56c-29.333 65.333 -78.333 98 -147 98
c-33.333 0 -60 -7.83301 -80 -23.5s-30 -36.834 -30 -63.501c0 -26 10.167 -46.5 30.5 -61.5s57.166 -30.833 110.499 -47.5c26.667 -8.66699 46.167 -15.167 58.5 -19.5s29.666 -11.166 51.999 -20.499s39.166 -18.666 50.499 -27.999s23.5 -21 36.5 -35
s22.167 -30 27.5 -48s8 -38.333 8 -61c0 -63.333 -22.833 -113.5 -68.5 -150.5s-105.5 -55.5 -179.5 -55.5z" />
    <glyph glyph-name="sacute" unicode="&#x15b;" horiz-adv-x="461" 
d="M371 705l-106 -135h-104l80 135h130zM160 362c0 -16.667 9.16699 -29.835 27.5 -39.502s40.666 -18 66.999 -25s52.833 -15.167 79.5 -24.5s49.167 -25.166 67.5 -47.499s27.5 -50.5 27.5 -84.5c0 -48 -18.5 -85.667 -55.5 -113s-83.5 -41 -139.5 -41
c-49.333 0 -91.666 10.333 -126.999 31s-61 49.334 -77 86.001l93 54c17.333 -48 54.333 -72 111 -72s85 18.667 85 56c0 16 -9.16699 29 -27.5 39s-40.666 18.5 -66.999 25.5s-52.833 15.167 -79.5 24.5s-49.167 24.833 -67.5 46.5s-27.5 49.167 -27.5 82.5
c0 46 17.5 83 52.5 111s78.5 42 130.5 42c41.333 0 78.166 -9.16699 110.499 -27.5s57.166 -43.833 74.499 -76.5l-91 -51c-17.333 38 -48.666 57 -93.999 57c-20.667 0 -38 -4.5 -52 -13.5s-21 -22.167 -21 -39.5z" />
    <glyph glyph-name="Scedilla" unicode="&#x15e;" horiz-adv-x="581" 
d="M551 193c0 -57.333 -18.667 -103.836 -56 -139.503s-87.666 -57.167 -150.999 -64.5v-35c22.667 -4 41.334 -12.833 56.001 -26.5s22 -31.167 22 -52.5c0 -69.333 -71.667 -99.666 -215 -90.999v79c80.667 -6.66699 121 1.66602 121 24.999c0 18 -24.333 28 -73 30v72
c-54.667 6.66699 -101.167 24.834 -139.5 54.501s-65.833 67.834 -82.5 114.501l99 58c28 -78.667 86 -118 174 -118c43.333 0 75.833 8.5 97.5 25.5s32.5 39.167 32.5 66.5c0 28.667 -11.667 50.5 -35 65.5s-64.666 31.5 -123.999 49.5c-33.333 10 -60.333 19.333 -81 28
s-42.5 20.834 -65.5 36.501s-40.167 35.167 -51.5 58.5s-17 50.666 -17 81.999c0 62 22 111.167 66 147.5s97 54.5 159 54.5c56 0 105 -13.667 147 -41s74.333 -65 97 -113l-97 -56c-29.333 65.333 -78.333 98 -147 98c-33.333 0 -60 -7.83301 -80 -23.5
s-30 -36.834 -30 -63.501c0 -26 10.167 -46.5 30.5 -61.5s57.166 -30.833 110.499 -47.5c26.667 -8.66699 46.167 -15.167 58.5 -19.5s29.666 -11.166 51.999 -20.499s39.166 -18.666 50.499 -27.999s23.5 -21 36.5 -35s22.167 -30 27.5 -48s8 -38.333 8 -61z" />
    <glyph glyph-name="scedilla" unicode="&#x15f;" horiz-adv-x="461" 
d="M429 141c0 -40.667 -13.333 -74 -40 -100s-62 -42.667 -106 -50v-37c22.667 -4 41.334 -12.833 56.001 -26.5s22 -31.167 22 -52.5c0 -69.333 -71.667 -99.666 -215 -90.999v79c80.667 -6.66699 121 1.66602 121 24.999c0 18 -24.333 28 -73 30v72
c-79.333 10 -134 48 -164 114l93 54c17.333 -48 54.333 -72 111 -72s85 18.667 85 56c0 16 -9.16699 29 -27.5 39s-40.666 18.5 -66.999 25.5s-52.833 15.167 -79.5 24.5s-49.167 24.833 -67.5 46.5s-27.5 49.167 -27.5 82.5c0 46 17.5 83 52.5 111s78.5 42 130.5 42
c41.333 0 78.166 -9.16699 110.499 -27.5s57.166 -43.833 74.499 -76.5l-91 -51c-17.333 38 -48.666 57 -93.999 57c-20.667 0 -38 -4.5 -52 -13.5s-21 -22.167 -21 -39.5c0 -16.667 9.16699 -29.834 27.5 -39.501s40.666 -18 66.999 -25s52.833 -15.167 79.5 -24.5
s49.167 -25.166 67.5 -47.499s27.5 -50.5 27.5 -84.5z" />
    <glyph glyph-name="Scaron" unicode="&#x160;" horiz-adv-x="581" 
d="M230 765l-106 140h110l53 -73l52 73h110l-106 -140h-113zM318 405c26.667 -8.66699 46.1689 -15.168 58.502 -19.501s29.666 -11.166 51.999 -20.499s39.166 -18.666 50.499 -27.999s23.5 -21 36.5 -35s22.167 -30 27.5 -48s8 -38.333 8 -61
c0 -63.333 -22.833 -113.5 -68.5 -150.5s-105.5 -55.5 -179.5 -55.5c-67.333 0 -124.5 15.333 -171.5 46s-79.833 72.667 -98.5 126l99 58c28 -78.667 86 -118 174 -118c43.333 0 75.833 8.5 97.5 25.5s32.5 39.167 32.5 66.5c0 28.667 -11.667 50.5 -35 65.5
s-64.666 31.5 -123.999 49.5c-33.333 10 -60.333 19.333 -81 28s-42.5 20.834 -65.5 36.501s-40.167 35.167 -51.5 58.5s-17 50.666 -17 81.999c0 62 22 111.167 66 147.5s97 54.5 159 54.5c56 0 105 -13.667 147 -41s74.333 -65 97 -113l-97 -56
c-29.333 65.333 -78.333 98 -147 98c-33.333 0 -60 -7.83301 -80 -23.5s-30 -36.834 -30 -63.501c0 -26 10.167 -46.5 30.5 -61.5s57.166 -30.833 110.499 -47.5z" />
    <glyph glyph-name="scaron" unicode="&#x161;" horiz-adv-x="461" 
d="M172 565l-106 140h110l53 -73l52 73h110l-106 -140h-113zM160 362c0 -16.667 9.16699 -29.835 27.5 -39.502s40.666 -18 66.999 -25s52.833 -15.167 79.5 -24.5s49.167 -25.166 67.5 -47.499s27.5 -50.5 27.5 -84.5c0 -48 -18.5 -85.667 -55.5 -113s-83.5 -41 -139.5 -41
c-49.333 0 -91.666 10.333 -126.999 31s-61 49.334 -77 86.001l93 54c17.333 -48 54.333 -72 111 -72s85 18.667 85 56c0 16 -9.16699 29 -27.5 39s-40.666 18.5 -66.999 25.5s-52.833 15.167 -79.5 24.5s-49.167 24.833 -67.5 46.5s-27.5 49.167 -27.5 82.5
c0 46 17.5 83 52.5 111s78.5 42 130.5 42c41.333 0 78.166 -9.16699 110.499 -27.5s57.166 -43.833 74.499 -76.5l-91 -51c-17.333 38 -48.666 57 -93.999 57c-20.667 0 -38 -4.5 -52 -13.5s-21 -22.167 -21 -39.5z" />
    <glyph glyph-name="uni0162" unicode="&#x162;" horiz-adv-x="540" 
d="M525 700v-110h-197v-590h-115v590h-198v110h510zM213 -255l10 190h103l-30 -190h-83z" />
    <glyph glyph-name="uni0163" unicode="&#x163;" horiz-adv-x="382" 
d="M342 396l-123.998 0.000976562v-240c0 -20.667 4.66699 -35.5 14 -44.5s23.166 -14 41.499 -15s41.166 -0.833008 68.499 0.5v-97c-82.667 -10 -142 -2.83301 -178 21.5s-54 69.166 -54 134.499v240h-92v104h92v108l108 32v-140h124v-104zM173.002 -254.999l10 190h103
l-30 -190h-83z" />
    <glyph glyph-name="Tcaron" unicode="&#x164;" horiz-adv-x="540" 
d="M211 760l-106 140h110l53 -73l52 73h110l-106 -140h-113zM525 700v-110h-197v-590h-115v590h-198v110h510z" />
    <glyph glyph-name="tcaron" unicode="&#x165;" horiz-adv-x="396" 
d="M276 723h103l-30 -175h-83zM218 640l0.00195312 -139.999h124v-104h-124v-240c0 -20.667 4.66699 -35.5 14 -44.5s23.166 -14 41.499 -15s41.166 -0.833008 68.499 0.5v-97c-82.667 -10 -142 -2.83301 -178 21.5s-54 69.166 -54 134.499v240h-92v104h92v108z" />
    <glyph glyph-name="Tbar" unicode="&#x166;" horiz-adv-x="540" 
d="M525 590h-197v-193h127v-104h-127v-293h-115v293h-128v104h128v193h-198v110h510v-110z" />
    <glyph glyph-name="tbar" unicode="&#x167;" horiz-adv-x="382" 
d="M342 396l-123.998 0.000976562v-98h86v-87h-86v-55c0 -20.667 4.66699 -35.5 14 -44.5s23.166 -14 41.499 -15s41.166 -0.833008 68.499 0.5v-97c-82.667 -10 -142 -2.83301 -178 21.5s-54 69.166 -54 134.499v55h-61v87h61v98h-92v104h92v108l108 32v-140h124v-104z" />
    <glyph glyph-name="Umacron" unicode="&#x16a;" horiz-adv-x="655" 
d="M188 770v89h280v-89h-280zM328 -13c-78 0 -141.667 22.167 -191 66.5s-74 103.833 -74 178.5v468h115v-461c0 -42.667 12.5 -76.667 37.5 -102s62.5 -38 112.5 -38s87.5 12.667 112.5 38s37.5 59.333 37.5 102v461h115v-468c0 -74.667 -24.667 -134.167 -74 -178.5
s-113 -66.5 -191 -66.5z" />
    <glyph glyph-name="umacron" unicode="&#x16b;" horiz-adv-x="571" 
d="M420 659v-89h-280v89h280zM400 500l108 -0.000976562v-500h-108v64c-32.667 -51.333 -84.334 -77 -155.001 -77c-57.333 0 -103.666 18.333 -138.999 55s-53 87 -53 151v307h108v-296c0 -37.333 10 -66 30 -86s47.333 -30 82 -30c38 0 68.667 11.833 92 35.5
s35 59.834 35 108.501v268z" />
    <glyph glyph-name="Uring" unicode="&#x16e;" horiz-adv-x="655" 
d="M327 713c-34.667 0 -63.167 10.667 -85.5 32s-33.5 48 -33.5 80s11.167 58.833 33.5 80.5s50.833 32.5 85.5 32.5c35.333 0 64.166 -10.667 86.499 -32s33.5 -48.333 33.5 -81s-11.167 -59.5 -33.5 -80.5s-51.166 -31.5 -86.499 -31.5zM327 784
c14 0 24.833 3.83301 32.5 11.5s11.5 17.5 11.5 29.5c0 12.667 -3.83301 22.834 -11.5 30.501s-18.5 11.5 -32.5 11.5c-13.333 0 -23.833 -3.83301 -31.5 -11.5s-11.5 -17.834 -11.5 -30.501c0 -12 3.83301 -21.833 11.5 -29.5s18.167 -11.5 31.5 -11.5zM328 -13
c-78 0 -141.667 22.167 -191 66.5s-74 103.833 -74 178.5v468h115v-461c0 -42.667 12.5 -76.667 37.5 -102s62.5 -38 112.5 -38s87.5 12.667 112.5 38s37.5 59.333 37.5 102v461h115v-468c0 -74.667 -24.667 -134.167 -74 -178.5s-113 -66.5 -191 -66.5z" />
    <glyph glyph-name="uring" unicode="&#x16f;" horiz-adv-x="571" 
d="M280 543c-34.667 0 -63.167 10.667 -85.5 32s-33.5 48 -33.5 80s11.167 58.833 33.5 80.5s50.833 32.5 85.5 32.5c35.333 0 64.166 -10.667 86.499 -32s33.5 -48.333 33.5 -81s-11.167 -59.5 -33.5 -80.5s-51.166 -31.5 -86.499 -31.5zM280 697
c-13.333 0 -23.833 -3.83301 -31.5 -11.5s-11.5 -17.834 -11.5 -30.501c0 -12 3.83301 -21.833 11.5 -29.5s18.167 -11.5 31.5 -11.5c14 0 24.833 3.83301 32.5 11.5s11.5 17.5 11.5 29.5c0 12.667 -3.83301 22.834 -11.5 30.501s-18.5 11.5 -32.5 11.5zM400 500
l108 -0.000976562v-500h-108v64c-32.667 -51.333 -84.334 -77 -155.001 -77c-57.333 0 -103.666 18.333 -138.999 55s-53 87 -53 151v307h108v-296c0 -37.333 10 -66 30 -86s47.333 -30 82 -30c38 0 68.667 11.833 92 35.5s35 59.834 35 108.501v268z" />
    <glyph glyph-name="Uhungarumlaut" unicode="&#x170;" horiz-adv-x="655" 
d="M168 760h108l81 135h-114zM331 760h108l91 135h-114zM328 -13c-78 0 -141.667 22.167 -191 66.5s-74 103.833 -74 178.5v468h115v-461c0 -42.667 12.5 -76.667 37.5 -102s62.5 -38 112.5 -38s87.5 12.667 112.5 38s37.5 59.333 37.5 102v461h115v-468
c0 -74.667 -24.667 -134.167 -74 -178.5s-113 -66.5 -191 -66.5z" />
    <glyph glyph-name="uhungarumlaut" unicode="&#x171;" horiz-adv-x="571" 
d="M309 695l-81 -135h-108l75 135h114zM391 560h-108l85 135h114zM400 500l108 -0.000976562v-500h-108v64c-32.667 -51.333 -84.334 -77 -155.001 -77c-57.333 0 -103.666 18.333 -138.999 55s-53 87 -53 151v307h108v-296c0 -37.333 10 -66 30 -86s47.333 -30 82 -30
c38 0 68.667 11.833 92 35.5s35 59.834 35 108.501v268z" />
    <glyph glyph-name="Uogonek" unicode="&#x172;" horiz-adv-x="655" 
d="M478 700h115.001v-468c0 -80.667 -29.667 -144.334 -89 -191.001c-38 -35.333 -64.5 -63.5 -79.5 -84.5s-22.833 -41.5 -23.5 -61.5c0 -17.333 9.33301 -26.666 28 -27.999c8 -0.666992 19 1.33301 33 6v-72c-22.667 -9.33301 -47.334 -14 -74.001 -14
c-27.333 0 -49.333 7.33301 -66 22s-25 35 -25 61c0 36.667 19 76 57 118c-6 -0.666992 -14.667 -1 -26 -1c-78 0 -141.667 22.167 -191 66.5s-74 103.833 -74 178.5v468h115v-461c0 -42.667 12.5 -76.667 37.5 -102s62.5 -38 112.5 -38s87.5 12.667 112.5 38
s37.5 59.333 37.5 102v461z" />
    <glyph glyph-name="uogonek" unicode="&#x173;" horiz-adv-x="571" 
d="M508 0c-40 -40 -59.999 -75.001 -59.999 -105.001c-0.666992 -18.667 8.66602 -28 27.999 -28c8 -0.666992 18.667 1.33301 32 6v-72c-22.667 -9.33301 -47 -14 -73 -14c-28 0 -50.167 7.33301 -66.5 22s-24.5 35 -24.5 61c0 36.667 21.333 80 64 130h-8v64
c-32.667 -51.333 -84.334 -77 -155.001 -77c-57.333 0 -103.666 18.333 -138.999 55s-53 87 -53 151v307h108v-296c0 -37.333 10 -66 30 -86s47.333 -30 82 -30c38 0 68.667 11.833 92 35.5s35 59.834 35 108.501v268h108v-500z" />
    <glyph glyph-name="Wcircumflex" unicode="&#x174;" horiz-adv-x="999" 
d="M517 834l-53 -74h-110l106 140h113l106 -140h-110zM858 700h121l-198 -700h-133l-148 511l-149 -511h-133l-198 700h121l147 -547l159 547h106l158 -547z" />
    <glyph glyph-name="wcircumflex" unicode="&#x175;" horiz-adv-x="770" 
d="M383 634l-53 -74h-110l106 140h113l106 -140h-110zM639 500h114l-157 -500h-106l-104 337l-105 -337h-106l-157 500h114l97 -345l105 345h103l104 -345z" />
    <glyph glyph-name="Ycircumflex" unicode="&#x176;" horiz-adv-x="613" 
d="M303 834l-53 -74h-110l106 140h113l106 -140h-110zM608 700l-244 -422v-278h-115v278l-244 422h131l171 -310l170 310h131z" />
    <glyph glyph-name="ycircumflex" unicode="&#x177;" horiz-adv-x="520" 
d="M258 634l-53 -74h-110l106 140h113l106 -140h-110zM400 500l115 -0.000976562l-192 -516c-48 -129.333 -129.333 -190.666 -244 -183.999v101c34 -2 61.333 5.16699 82 21.5s37.667 41.833 51 76.5l5 10l-212 491h118l149 -363z" />
    <glyph glyph-name="Ydieresis" unicode="&#x178;" horiz-adv-x="613" 
d="M210 758c-16.667 0 -30.834 5.83301 -42.501 17.5s-17.5 25.834 -17.5 42.501s5.83301 30.834 17.5 42.501s25.834 17.5 42.501 17.5s30.834 -5.83301 42.501 -17.5s17.5 -25.834 17.5 -42.501s-5.83301 -30.834 -17.5 -42.501s-25.834 -17.5 -42.501 -17.5zM400 758
c-16.667 0 -30.834 5.83301 -42.501 17.5s-17.5 25.834 -17.5 42.501s5.83301 30.834 17.5 42.501s25.834 17.5 42.501 17.5s30.834 -5.83301 42.501 -17.5s17.5 -25.834 17.5 -42.501s-5.83301 -30.834 -17.5 -42.501s-25.834 -17.5 -42.501 -17.5zM608 700l-244 -422v-278
h-115v278l-244 422h131l171 -310l170 310h131z" />
    <glyph glyph-name="Zacute" unicode="&#x179;" horiz-adv-x="530" 
d="M410 900l-106 -135h-104l80 135h130zM181 110h322v-110h-465v95l314 495h-307v110h450v-95z" />
    <glyph glyph-name="zacute" unicode="&#x17a;" horiz-adv-x="473" 
d="M381 700l-106 -135h-104l80 135h130zM192 102h243v-102h-390v72l234 326h-224v102h370v-72z" />
    <glyph glyph-name="Zdotaccent" unicode="&#x17b;" horiz-adv-x="530" 
d="M270 758c-19.333 0 -35.833 6.83301 -49.5 20.5s-20.5 30.167 -20.5 49.5c0 18.667 7 35 21 49s30.333 21 49 21c19.333 0 35.833 -6.83301 49.5 -20.5s20.5 -30.167 20.5 -49.5s-6.83301 -35.833 -20.5 -49.5s-30.167 -20.5 -49.5 -20.5zM181 110h322v-110h-465v95
l314 495h-307v110h450v-95z" />
    <glyph glyph-name="zdotaccent" unicode="&#x17c;" horiz-adv-x="473" 
d="M241 558c-19.333 0 -35.833 6.83301 -49.5 20.5s-20.5 30.167 -20.5 49.5c0 18.667 6.83301 35 20.5 49s30.167 21 49.5 21s35.833 -6.83301 49.5 -20.5s20.5 -30.167 20.5 -49.5s-6.83301 -35.833 -20.5 -49.5s-30.167 -20.5 -49.5 -20.5zM192 102h243v-102h-390v72
l234 326h-224v102h370v-72z" />
    <glyph glyph-name="Zcaron" unicode="&#x17d;" horiz-adv-x="530" 
d="M211 760l-106 140h110l53 -73l52 73h110l-106 -140h-113zM181 110h322v-110h-465v95l314 495h-307v110h450v-95z" />
    <glyph glyph-name="zcaron" unicode="&#x17e;" horiz-adv-x="473" 
d="M182 560l-106 140h110l53 -73l52 73h110l-106 -140h-113zM192 102h243v-102h-390v72l234 326h-224v102h370v-72z" />
    <glyph glyph-name="florin" unicode="&#x192;" horiz-adv-x="441" 
d="M441 597c-26.667 12.667 -51.5 13.5 -74.5 2.5s-36.833 -31.833 -41.5 -62.5l-23 -133h99v-104h-116l-60 -351c-11.333 -66.667 -37.333 -112.334 -78 -137.001s-89.667 -29 -147 -13v107c26.667 -12.667 51.5 -13.5 74.5 -2.5s36.833 31.833 41.5 62.5l57 334h-93v104
h110l26 150c11.333 66.667 37.333 112.334 78 137.001s89.667 29 147 13v-107z" />
    <glyph glyph-name="Scommaaccent" unicode="&#x218;" horiz-adv-x="581" 
d="M303 -13c-67.333 0 -124.498 15.332 -171.498 45.999s-79.833 72.667 -98.5 126l99 58c28 -78.667 86 -118 174 -118c43.333 0 75.833 8.5 97.5 25.5s32.5 39.167 32.5 66.5c0 28.667 -11.667 50.5 -35 65.5s-64.666 31.5 -123.999 49.5
c-33.333 10 -60.333 19.333 -81 28s-42.5 20.834 -65.5 36.501s-40.167 35.167 -51.5 58.5s-17 50.666 -17 81.999c0 62 22 111.167 66 147.5s97 54.5 159 54.5c56 0 105 -13.667 147 -41s74.333 -65 97 -113l-97 -56c-29.333 65.333 -78.333 98 -147 98
c-33.333 0 -60 -7.83301 -80 -23.5s-30 -36.834 -30 -63.501c0 -26 10.167 -46.5 30.5 -61.5s57.166 -30.833 110.499 -47.5c26.667 -8.66699 46.167 -15.167 58.5 -19.5s29.666 -11.166 51.999 -20.499s39.166 -18.666 50.499 -27.999s23.5 -21 36.5 -35
s22.167 -30 27.5 -48s8 -38.333 8 -61c0 -63.333 -22.833 -113.5 -68.5 -150.5s-105.5 -55.5 -179.5 -55.5zM331.002 -255.001l30 190h-103l-10 -190h83z" />
    <glyph glyph-name="scommaaccent" unicode="&#x219;" horiz-adv-x="461" 
d="M160 362c0 -16.667 9.16699 -29.835 27.5 -39.502s40.666 -18 66.999 -25s52.833 -15.167 79.5 -24.5s49.167 -25.166 67.5 -47.499s27.5 -50.5 27.5 -84.5c0 -48 -18.5 -85.667 -55.5 -113s-83.5 -41 -139.5 -41c-49.333 0 -91.666 10.333 -126.999 31
s-61 49.334 -77 86.001l93 54c17.333 -48 54.333 -72 111 -72s85 18.667 85 56c0 16 -9.16699 29 -27.5 39s-40.666 18.5 -66.999 25.5s-52.833 15.167 -79.5 24.5s-49.167 24.833 -67.5 46.5s-27.5 49.167 -27.5 82.5c0 46 17.5 83 52.5 111s78.5 42 130.5 42
c41.333 0 78.166 -9.16699 110.499 -27.5s57.166 -43.833 74.499 -76.5l-91 -51c-17.333 38 -48.666 57 -93.999 57c-20.667 0 -38 -4.5 -52 -13.5s-21 -22.167 -21 -39.5zM187 -255.001l10 190h103l-30 -190h-83z" />
    <glyph glyph-name="uni021A" unicode="&#x21a;" horiz-adv-x="540" 
d="M525 700v-110h-197v-590h-115v590h-198v110h510zM213 -255l10 190h103l-30 -190h-83z" />
    <glyph glyph-name="uni021B" unicode="&#x21b;" horiz-adv-x="382" 
d="M342 396l-123.998 0.000976562v-240c0 -20.667 4.66699 -35.5 14 -44.5s23.166 -14 41.499 -15s41.166 -0.833008 68.499 0.5v-97c-82.667 -10 -142 -2.83301 -178 21.5s-54 69.166 -54 134.499v240h-92v104h92v108l108 32v-140h124v-104zM173.002 -254.999l10 190h103
l-30 -190h-83z" />
    <glyph glyph-name="circumflex" unicode="&#x2c6;" horiz-adv-x="365" 
d="M345 560h-110l-52 74l-53 -74h-110l106 140h113z" />
    <glyph glyph-name="caron" unicode="&#x2c7;" horiz-adv-x="365" 
d="M235 700h110l-106 -140h-113l-106 140h110l53 -73z" />
    <glyph glyph-name="breve" unicode="&#x2d8;" horiz-adv-x="355" 
d="M178 552c-50 0 -88.833 12.167 -116.5 36.5s-41.5 58.833 -41.5 103.5h98c0 -39.333 20 -59 60 -59c39.333 0 59 19.667 59 59h98c0 -44.667 -13.833 -79.167 -41.5 -103.5s-66.167 -36.5 -115.5 -36.5z" />
    <glyph glyph-name="dotaccent" unicode="&#x2d9;" horiz-adv-x="185" 
d="M90 558c-19.333 0 -35.833 6.83301 -49.5 20.5s-20.5 30.167 -20.5 49.5c0 18.667 7 35 21 49s30.333 21 49 21c19.333 0 35.833 -6.83301 49.5 -20.5s20.5 -30.167 20.5 -49.5s-6.83301 -35.833 -20.5 -49.5s-30.167 -20.5 -49.5 -20.5z" />
    <glyph glyph-name="ring" unicode="&#x2da;" horiz-adv-x="279" 
d="M139 543c-34.667 0 -63.167 10.667 -85.5 32s-33.5 48 -33.5 80s11.167 58.833 33.5 80.5s50.833 32.5 85.5 32.5c35.333 0 64.166 -10.667 86.499 -32s33.5 -48.333 33.5 -81s-11.167 -59.5 -33.5 -80.5s-51.166 -31.5 -86.499 -31.5zM139 614
c14 0 24.833 3.83301 32.5 11.5s11.5 17.5 11.5 29.5c0 12.667 -3.83301 22.834 -11.5 30.501s-18.5 11.5 -32.5 11.5c-13.333 0 -23.833 -3.83301 -31.5 -11.5s-11.5 -17.834 -11.5 -30.501c0 -12 3.83301 -21.833 11.5 -29.5s18.167 -11.5 31.5 -11.5z" />
    <glyph glyph-name="ogonek" unicode="&#x2db;" horiz-adv-x="205" 
d="M111 -213c-27.333 0 -49.332 7.33301 -65.999 22s-25 35 -25 61c0 40 22.667 83.333 68 130h97c-40.667 -39.333 -61 -74.333 -61 -105c0 -18.667 9.33301 -28 28 -28c8 -0.666992 19 1.33301 33 6v-72c-22.667 -9.33301 -47.334 -14 -74.001 -14z" />
    <glyph glyph-name="tilde" unicode="&#x2dc;" horiz-adv-x="360" 
d="M20 567c0 46.667 8.66699 81.667 26 105s38.5 34.666 63.5 33.999s51.5 -10.334 79.5 -29.001c21.333 -17.333 37 -24.833 47 -22.5s15 17.5 15 45.5h89c0 -46.667 -8.5 -81.667 -25.5 -105s-38 -34.666 -63 -33.999s-51.5 10.334 -79.5 29.001
c-22 17.333 -38 24.833 -48 22.5s-15 -17.5 -15 -45.5h-89z" />
    <glyph glyph-name="hungarumlaut" unicode="&#x2dd;" horiz-adv-x="402" 
d="M20 560h108l81 135h-114zM183 560h108l91 135h-114z" />
    <glyph glyph-name="gravecomb" unicode="&#x300;" horiz-adv-x="0" 
d="M-20 565l-80 135h-130l106 -135h104z" />
    <glyph glyph-name="acutecomb" unicode="&#x301;" horiz-adv-x="0" 
d="M-230 565h104l106 135h-130z" />
    <glyph glyph-name="uni0302" unicode="&#x302;" horiz-adv-x="0" 
d="M-20 560h-110l-52 74l-53 -74h-110l106 140h113z" />
    <glyph glyph-name="tildecomb" unicode="&#x303;" horiz-adv-x="0" 
d="M-335 567c0 46.667 8.66699 81.667 26 105s38.5 34.666 63.5 33.999s51.5 -10.334 79.5 -29.001c21.333 -17.333 37 -24.833 47 -22.5s15 17.5 15 45.5h89c0 -46.667 -8.5 -81.667 -25.5 -105s-38 -34.666 -63 -33.999s-51.5 10.334 -79.5 29.001
c-22 17.333 -38 24.833 -48 22.5s-15 -17.5 -15 -45.5h-89z" />
    <glyph glyph-name="uni0304" unicode="&#x304;" horiz-adv-x="0" 
d="M-300 570v89h280v-89h-280z" />
    <glyph glyph-name="uni0306" unicode="&#x306;" horiz-adv-x="0" 
d="M-177 552c-50 0 -88.833 12.167 -116.5 36.5s-41.5 58.833 -41.5 103.5h98c0 -39.333 20 -59 60 -59c39.333 0 59 19.667 59 59h98c0 -44.667 -13.833 -79.167 -41.5 -103.5s-66.167 -36.5 -115.5 -36.5z" />
    <glyph glyph-name="uni0307" unicode="&#x307;" horiz-adv-x="0" 
d="M-90 558c-19.333 0 -35.833 6.83301 -49.5 20.5s-20.5 30.167 -20.5 49.5c0 18.667 7 35 21 49s30.333 21 49 21c19.333 0 35.833 -6.83301 49.5 -20.5s20.5 -30.167 20.5 -49.5s-6.83301 -35.833 -20.5 -49.5s-30.167 -20.5 -49.5 -20.5z" />
    <glyph glyph-name="uni0308" unicode="&#x308;" horiz-adv-x="0" 
d="M-270 558c-16.667 0 -30.834 5.83301 -42.501 17.5s-17.5 25.834 -17.5 42.501s5.83301 30.834 17.5 42.501s25.834 17.5 42.501 17.5s30.834 -5.83301 42.501 -17.5s17.5 -25.834 17.5 -42.501s-5.83301 -30.834 -17.5 -42.501s-25.834 -17.5 -42.501 -17.5zM-80 558
c-16.667 0 -30.834 5.83301 -42.501 17.5s-17.5 25.834 -17.5 42.501s5.83301 30.834 17.5 42.501s25.834 17.5 42.501 17.5s30.834 -5.83301 42.501 -17.5s17.5 -25.834 17.5 -42.501s-5.83301 -30.834 -17.5 -42.501s-25.834 -17.5 -42.501 -17.5z" />
    <glyph glyph-name="uni030A" unicode="&#x30a;" horiz-adv-x="0" 
d="M-142 543c-34.667 0 -63.167 10.667 -85.5 32s-33.5 48 -33.5 80s11.167 58.833 33.5 80.5s50.833 32.5 85.5 32.5c35.333 0 64.166 -10.667 86.499 -32s33.5 -48.333 33.5 -81s-11.167 -59.5 -33.5 -80.5s-51.166 -31.5 -86.499 -31.5zM-142 614
c14 0 24.833 3.83301 32.5 11.5s11.5 17.5 11.5 29.5c0 12.667 -3.83301 22.834 -11.5 30.501s-18.5 11.5 -32.5 11.5c-13.333 0 -23.833 -3.83301 -31.5 -11.5s-11.5 -17.834 -11.5 -30.501c0 -12 3.83301 -21.833 11.5 -29.5s18.167 -11.5 31.5 -11.5z" />
    <glyph glyph-name="uni030B" unicode="&#x30b;" horiz-adv-x="0" 
d="M-382 560h108l81 135h-114zM-219 560h108l91 135h-114z" />
    <glyph glyph-name="uni030C" unicode="&#x30c;" horiz-adv-x="0" 
d="M-130 700h110l-106 -140h-113l-106 140h110l53 -73z" />
    <glyph glyph-name="uni0312" unicode="&#x312;" horiz-adv-x="0" 
d="M-103 970l-30 -190h103l10 190h-83z" />
    <glyph glyph-name="uni0326" unicode="&#x326;" horiz-adv-x="0" 
d="M-50 -255l30 190h-103l-10 -190h83z" />
    <glyph glyph-name="uni0327" unicode="&#x327;" horiz-adv-x="0" 
d="M-98 -46c22.667 -4 41.333 -12.833 56 -26.5s22 -31.167 22 -52.5c0 -69.333 -71.667 -99.666 -215 -90.999v79c80.667 -6.66699 121 1.66602 121 24.999c0 18 -24.333 28 -73 30v82h89v-46z" />
    <glyph glyph-name="uni0328" unicode="&#x328;" horiz-adv-x="0" 
d="M-99 -213c-27.333 0 -49.332 7.33301 -65.999 22s-25 35 -25 61c0 40 22.667 83.333 68 130h97c-40.667 -39.333 -61 -74.333 -61 -105c0 -18.667 9.33301 -28 28 -28c8 -0.666992 19 1.33301 33 6v-72c-22.667 -9.33301 -47.334 -14 -74.001 -14z" />
    <glyph glyph-name="uni0394" unicode="&#x394;" horiz-adv-x="645" 
d="M392 700l248 -700h-635l249 700h138zM167 108h312l-156 461z" />
    <glyph glyph-name="uni03A9" unicode="&#x3a9;" horiz-adv-x="786" 
d="M756 360c0 -50.667 -10.665 -97.668 -31.998 -141.001s-51 -79.666 -89 -108.999h108v-110h-275v110c51.333 15.333 93 44.666 125 87.999s48 94 48 152c0 72 -23.833 131.833 -71.5 179.5s-106.5 71.5 -176.5 71.5s-128.833 -23.833 -176.5 -71.5
s-71.5 -107.5 -71.5 -179.5c0 -58 16 -108.667 48 -152s74 -72.666 126 -87.999v-110h-276v110h108c-80.667 62.667 -121 146 -121 250c0 98.667 35.167 182.167 105.5 250.5s156.166 102.5 257.499 102.5s187.166 -34.167 257.499 -102.5s105.5 -151.833 105.5 -250.5z" />
    <glyph glyph-name="pi" unicode="&#x3c0;" horiz-adv-x="660" 
d="M635 500v-102h-80v-398h-108v398h-229v-398h-108v398h-85v102h610z" />
    <glyph glyph-name="uni0401" unicode="&#x401;" horiz-adv-x="530" 
d="M186 758c-16.667 0 -30.834 5.83301 -42.501 17.5s-17.5 25.834 -17.5 42.501s5.83301 30.834 17.5 42.501s25.834 17.5 42.501 17.5s30.834 -5.83301 42.501 -17.5s17.5 -25.834 17.5 -42.501s-5.83301 -30.834 -17.5 -42.501s-25.834 -17.5 -42.501 -17.5zM376 758
c-16.667 0 -30.834 5.83301 -42.501 17.5s-17.5 25.834 -17.5 42.501s5.83301 30.834 17.5 42.501s25.834 17.5 42.501 17.5s30.834 -5.83301 42.501 -17.5s17.5 -25.834 17.5 -42.501s-5.83301 -30.834 -17.5 -42.501s-25.834 -17.5 -42.501 -17.5zM185 110h310v-110h-425
v700h420v-110h-305v-182h280v-109h-280v-189z" />
    <glyph glyph-name="uni0402" unicode="&#x402;" horiz-adv-x="702" 
d="M458 468c57.333 0 103.166 -16.5 137.499 -49.5s51.5 -80.833 51.5 -143.5v-91c0 -138.667 -68.333 -203 -205 -193v107c32.667 -2.66699 55.834 2.5 69.501 15.5s20.5 36.5 20.5 70.5v82c0 65.333 -31 98 -93 98c-44 0 -86 -8 -126 -24v-340h-115v590h-183v110h505v-110
h-207v-148c48.667 17.333 97 26 145 26z" />
    <glyph glyph-name="uni0403" unicode="&#x403;" horiz-adv-x="480" 
d="M411 899l-106 -135h-104l80 135h130zM465 700v-110h-280v-590h-115v700h395z" />
    <glyph glyph-name="uni0404" unicode="&#x404;" horiz-adv-x="730" 
d="M398 99c44 0 84 10.1641 120 30.4971s63.333 47.833 82 82.5l100 -57c-30 -51.333 -71.833 -92.166 -125.5 -122.499s-112.5 -45.5 -176.5 -45.5c-105.333 0 -192.166 34.833 -260.499 104.5s-102.5 155.834 -102.5 258.501s34.167 188.834 102.5 258.501
s155.166 104.5 260.499 104.5c64 0 122.833 -15 176.5 -45s95.5 -70.667 125.5 -122l-100 -58c-18.667 34.667 -46 62.167 -82 82.5s-76 30.5 -120 30.5c-64.667 0 -118.667 -18 -162 -54s-70.333 -83.667 -81 -143h336v-108h-336c10.667 -59.333 37.667 -107 81 -143
s97.333 -54 162 -54z" />
    <glyph glyph-name="uni0405" unicode="&#x405;" horiz-adv-x="581" 
d="M303 -13c-67.333 0 -124.498 15.332 -171.498 45.999s-79.833 72.667 -98.5 126l99 58c28 -78.667 86 -118 174 -118c43.333 0 75.833 8.5 97.5 25.5s32.5 39.167 32.5 66.5c0 28.667 -11.667 50.5 -35 65.5s-64.666 31.5 -123.999 49.5
c-33.333 10 -60.333 19.333 -81 28s-42.5 20.834 -65.5 36.501s-40.167 35.167 -51.5 58.5s-17 50.666 -17 81.999c0 62 22 111.167 66 147.5s97 54.5 159 54.5c56 0 105 -13.667 147 -41s74.333 -65 97 -113l-97 -56c-29.333 65.333 -78.333 98 -147 98
c-33.333 0 -60 -7.83301 -80 -23.5s-30 -36.834 -30 -63.501c0 -26 10.167 -46.5 30.5 -61.5s57.166 -30.833 110.499 -47.5c26.667 -8.66699 46.167 -15.167 58.5 -19.5s29.666 -11.166 51.999 -20.499s39.166 -18.666 50.499 -27.999s23.5 -21 36.5 -35
s22.167 -30 27.5 -48s8 -38.333 8 -61c0 -63.333 -22.833 -113.5 -68.5 -150.5s-105.5 -55.5 -179.5 -55.5z" />
    <glyph glyph-name="uni0406" unicode="&#x406;" horiz-adv-x="255" 
d="M70 700h115v-700h-115v700z" />
    <glyph glyph-name="uni0407" unicode="&#x407;" horiz-adv-x="255" 
d="M33 758c-16.667 0 -30.834 5.83301 -42.501 17.5s-17.5 25.834 -17.5 42.501s5.83301 30.834 17.5 42.501s25.834 17.5 42.501 17.5s30.834 -5.83301 42.501 -17.5s17.5 -25.834 17.5 -42.501s-5.83301 -30.834 -17.5 -42.501s-25.834 -17.5 -42.501 -17.5zM223 758
c-16.667 0 -30.834 5.83301 -42.501 17.5s-17.5 25.834 -17.5 42.501s5.83301 30.834 17.5 42.501s25.834 17.5 42.501 17.5s30.834 -5.83301 42.501 -17.5s17.5 -25.834 17.5 -42.501s-5.83301 -30.834 -17.5 -42.501s-25.834 -17.5 -42.501 -17.5zM70 700h115v-700h-115
v700z" />
    <glyph glyph-name="uni0408" unicode="&#x408;" horiz-adv-x="564" 
d="M260 -13c-108.667 0 -183.667 42.667 -225 128l99 58c22.667 -49.333 65 -74 127 -74c40 0 70.833 9.83301 92.5 29.5s32.5 47.5 32.5 83.5v488h115v-488c0 -72 -22.667 -127.5 -68 -166.5s-103 -58.5 -173 -58.5z" />
    <glyph glyph-name="uni0409" unicode="&#x409;" horiz-adv-x="973" 
d="M715 425c64 0 118.001 -20.002 162.001 -60.002s66 -90.667 66 -152c0 -62 -22 -113 -66 -153s-98 -60 -162 -60h-237v590h-219v-293c0 -61.333 -6.5 -113.166 -19.5 -155.499s-31.5 -73.833 -55.5 -94.5s-49.833 -34.667 -77.5 -42s-58.834 -9.66602 -93.501 -6.99902
v107c44 -6 76.833 4.83301 98.5 32.5s32.5 80.167 32.5 157.5v405h449v-275h122zM715.001 107.998c32.667 0 59.667 9.5 81 28.5s32 44.5 32 76.5s-10.667 57.333 -32 76s-48.333 28 -81 28h-122v-209h122z" />
    <glyph glyph-name="uni040A" unicode="&#x40a;" horiz-adv-x="965" 
d="M708 425c64 0 117.833 -20 161.5 -60s65.5 -90.667 65.5 -152c0 -62 -21.833 -113 -65.5 -153s-97.5 -60 -161.5 -60h-238v317h-285v-317h-115v700h115v-275h285v275h115v-275h123zM708 108c32.667 0 59.5 9.5 80.5 28.5s31.5 44.5 31.5 76.5s-10.5 57.333 -31.5 76
s-47.833 28 -80.5 28h-123v-209h123z" />
    <glyph glyph-name="uni040B" unicode="&#x40b;" horiz-adv-x="707" 
d="M458 468c57.333 0 103.167 -16.5 137.5 -49.5s51.5 -80.833 51.5 -143.5v-275h-115v266c0 65.333 -31 98 -93 98c-44 0 -86 -8 -126 -24v-340h-115v590h-183v110h505v-110h-207v-148c48.667 17.333 97 26 145 26z" />
    <glyph glyph-name="uni040C" unicode="&#x40c;" horiz-adv-x="603" 
d="M441 899l-106 -135h-104l80 135h130zM598 0h-137l-276 333v-333h-115v700h115v-314l266 314h137l-283 -341z" />
    <glyph glyph-name="uni040E" unicode="&#x40e;" horiz-adv-x="590" 
d="M439 863v-94h-280v94h280zM464 700h116l-217 -520c-53.333 -127.333 -139.666 -187.333 -258.999 -180v107c39.333 -4 71.166 2 95.499 18s43.833 42.667 58.5 80l-233 495h116l170 -369z" />
    <glyph glyph-name="uni040F" unicode="&#x40f;" horiz-adv-x="655" 
d="M470 700h115v-700h-200v-134h-115v134h-200v700h115v-590h285v590z" />
    <glyph glyph-name="uni0410" unicode="&#x410;" horiz-adv-x="655" 
d="M526 0l-49 141h-298l-49 -141h-125l254 700h138l253 -700h-124zM217 249h222l-111 316z" />
    <glyph glyph-name="uni0411" unicode="&#x411;" horiz-adv-x="585" 
d="M335 430c64.667 0 118.334 -20.333 161.001 -61s64 -92 64 -154s-21.333 -113.333 -64 -154s-96.334 -61 -161.001 -61h-265v700h430v-110h-315v-160h150zM335 108c31.333 0 57.5 9.83301 78.5 29.5s31.5 45.5 31.5 77.5s-10.5 57.833 -31.5 77.5
s-47.167 29.5 -78.5 29.5h-150v-214h150z" />
    <glyph glyph-name="uni0412" unicode="&#x412;" horiz-adv-x="610" 
d="M482 363c30.667 -16 54.668 -37.999 72.001 -65.999s26 -60.333 26 -97c0 -57.333 -20.333 -105 -61 -143s-90.334 -57 -149.001 -57h-300v700h278c57.333 0 105.833 -18.5 145.5 -55.5s59.5 -83.167 59.5 -138.5c0 -60.667 -23.667 -108.334 -71 -143.001z
M348.001 592.001h-163v-184h163c25.333 0 46.666 8.83301 63.999 26.5s26 39.5 26 65.5s-8.66699 47.833 -26 65.5s-38.666 26.5 -63.999 26.5zM370.001 108.001c26.667 0 49.167 9.5 67.5 28.5s27.5 42.167 27.5 69.5s-9.16699 50.5 -27.5 69.5s-40.833 28.5 -67.5 28.5
h-185v-196h185z" />
    <glyph glyph-name="uni0413" unicode="&#x413;" horiz-adv-x="480" 
d="M465 700v-110h-280v-590h-115v700h395z" />
    <glyph glyph-name="uni0414" unicode="&#x414;" horiz-adv-x="700" 
d="M595 110l75 0.000976562v-244h-115v134h-425v-134h-115v244h65c40.667 53.333 61 133.666 61 240.999v349h454v-590zM206 110.001h274v482h-224v-243c0 -104 -16.667 -183.667 -50 -239z" />
    <glyph glyph-name="uni0415" unicode="&#x415;" horiz-adv-x="530" 
d="M185 110h310v-110h-425v700h420v-110h-305v-182h280v-109h-280v-189z" />
    <glyph glyph-name="uni0416" unicode="&#x416;" horiz-adv-x="886" 
d="M871 0h-129l-241 328v-328h-115v328l-241 -328h-130l262 358l-252 342h130l231 -318v318h115v-318l231 318h129l-251 -342z" />
    <glyph glyph-name="uni0417" unicode="&#x417;" horiz-adv-x="563" 
d="M426 363c71.333 -34 106.999 -90.334 106.999 -169.001c0 -61.333 -23.167 -111.166 -69.5 -149.499s-106.833 -57.5 -181.5 -57.5c-128 0 -212.667 54 -254 162l99 57c20.667 -74 72.334 -111 155.001 -111c44 0 77.667 9.5 101 28.5s35 44.5 35 76.5
c0 31.333 -11.167 56.5 -33.5 75.5s-53.833 28.5 -94.5 28.5h-85v104h62c39.333 0 70 9 92 27s33 42 33 72s-10 53.833 -30 71.5s-48.667 26.5 -86 26.5c-69.333 0 -116 -31.667 -140 -95l-98 57c45.333 97.333 124.666 146 237.999 146
c68.667 0 124.334 -18.5 167.001 -55.5s64 -85.167 64 -144.5c0 -66 -27 -116 -81 -150z" />
    <glyph glyph-name="uni0418" unicode="&#x418;" horiz-adv-x="675" 
d="M490 0v475l-330 -475h-90v700h115v-475l330 475h90v-700h-115z" />
    <glyph glyph-name="uni0419" unicode="&#x419;" horiz-adv-x="675" 
d="M198 770v94h280v-94h-280zM490 0v475l-330 -475h-90v700h115v-475l330 475h90v-700h-115z" />
    <glyph glyph-name="uni041A" unicode="&#x41a;" horiz-adv-x="603" 
d="M598 0h-137l-276 333v-333h-115v700h115v-314l266 314h137l-283 -341z" />
    <glyph glyph-name="uni041B" unicode="&#x41b;" horiz-adv-x="683" 
d="M13 0l0.000976562 106.001c44 -6 76.833 4.66699 98.5 32s32.5 79.666 32.5 156.999v405h469v-700h-115v590h-239v-293c0 -61.333 -6.5 -113 -19.5 -155s-31.5 -73.5 -55.5 -94.5s-49.833 -35 -77.5 -42s-58.834 -8.83301 -93.501 -5.5z" />
    <glyph glyph-name="uni041C" unicode="&#x41c;" horiz-adv-x="810" 
d="M740 700v-700h-115v499l-213 -352h-14l-213 353v-500h-115v700h124l211 -350l212 350h123z" />
    <glyph glyph-name="uni041D" unicode="&#x41d;" horiz-adv-x="670" 
d="M485 700h115v-700h-115v303h-300v-303h-115v700h115v-287h300v287z" />
    <glyph glyph-name="uni041E" unicode="&#x41e;" horiz-adv-x="796" 
d="M398 -13c-101.333 0 -187.166 35.167 -257.499 105.5s-105.5 156.166 -105.5 257.499s35.167 187.166 105.5 257.499s156.166 105.5 257.499 105.5s187.166 -35.167 257.499 -105.5s105.5 -156.166 105.5 -257.499s-35.167 -187.166 -105.5 -257.499
s-156.166 -105.5 -257.499 -105.5zM398 99c70 0 128.833 23.833 176.5 71.5s71.5 107.5 71.5 179.5s-23.833 131.833 -71.5 179.5s-106.5 71.5 -176.5 71.5s-128.833 -23.833 -176.5 -71.5s-71.5 -107.5 -71.5 -179.5s23.833 -131.833 71.5 -179.5s106.5 -71.5 176.5 -71.5z
" />
    <glyph glyph-name="uni041F" unicode="&#x41f;" horiz-adv-x="655" 
d="M585 700v-700h-115v590h-285v-590h-115v700h515z" />
    <glyph glyph-name="uni0420" unicode="&#x420;" horiz-adv-x="590" 
d="M328 700c66 0 121.167 -22 165.5 -66s66.5 -98.667 66.5 -164c0 -64.667 -22.167 -119.167 -66.5 -163.5s-99.5 -66.5 -165.5 -66.5h-143v-240h-115v700h258zM328 348c34 0 62 11.5 84 34.5s33 52.167 33 87.5s-11 64.5 -33 87.5s-50 34.5 -84 34.5h-143v-244h143z" />
    <glyph glyph-name="uni0421" unicode="&#x421;" horiz-adv-x="732" 
d="M401 -13c-105.333 0 -192.665 34.8301 -261.998 104.497s-104 155.834 -104 258.501s34.667 188.834 104 258.501s156.666 104.5 261.999 104.5c63.333 0 121.833 -15 175.5 -45s95.5 -70.667 125.5 -122l-100 -58c-18.667 34.667 -45.834 62.167 -81.501 82.5
s-75.5 30.5 -119.5 30.5c-74.667 0 -135.167 -23.667 -181.5 -71s-69.5 -107.333 -69.5 -180s23.167 -132.667 69.5 -180s106.833 -71 181.5 -71c44 0 84 10.167 120 30.5s63 47.833 81 82.5l100 -57c-29.333 -51.333 -70.833 -92.166 -124.5 -122.499
s-112.5 -45.5 -176.5 -45.5z" />
    <glyph glyph-name="uni0422" unicode="&#x422;" horiz-adv-x="540" 
d="M525 700v-110h-197v-590h-115v590h-198v110h510z" />
    <glyph glyph-name="uni0423" unicode="&#x423;" horiz-adv-x="590" 
d="M464 700h116l-217 -520c-53.333 -127.333 -139.666 -187.333 -258.999 -180v107c39.333 -4 71.166 2 95.499 18s43.833 42.667 58.5 80l-233 495h116l170 -369z" />
    <glyph glyph-name="uni0424" unicode="&#x424;" horiz-adv-x="814" 
d="M789 350c0 -80.667 -29.5 -145.5 -88.5 -194.5s-137.833 -77.5 -236.5 -85.5v-80h-113v80c-99.333 8 -178.5 36.5 -237.5 85.5s-88.5 113.833 -88.5 194.5s29.5 145.5 88.5 194.5s138.167 77.5 237.5 85.5v80h113v-80c98.667 -8 177.5 -36.5 236.5 -85.5
s88.5 -113.833 88.5 -194.5zM140 350c0 -52 18.167 -92.667 54.5 -122s88.5 -47 156.5 -53v350c-140.667 -12.667 -211 -71 -211 -175zM464 175c140 14 210 72.333 210 175c0 104 -70 162.333 -210 175v-350z" />
    <glyph glyph-name="uni0425" unicode="&#x425;" horiz-adv-x="600" 
d="M585 0h-131l-154 253l-154 -253h-131l220 360l-207 340h130l142 -233l142 233h131l-207 -340z" />
    <glyph glyph-name="uni0426" unicode="&#x426;" horiz-adv-x="690" 
d="M585 110h75v-244h-115v134h-475v700h115v-590h285v590h115v-590z" />
    <glyph glyph-name="uni0427" unicode="&#x427;" 
d="M445 700h115v-700h-115v269c-48.667 -22 -100 -33 -154 -33c-70 0 -126.833 19.5 -170.5 58.5s-65.5 90.833 -65.5 155.5v250h115v-238c0 -36 11 -64.333 33 -85s52 -31 90 -31c55.333 0 106 11.333 152 34v320z" />
    <glyph glyph-name="uni0428" unicode="&#x428;" horiz-adv-x="945" 
d="M760 700h115v-700h-805v700h115v-590h230v590h115v-590h230v590z" />
    <glyph glyph-name="uni0429" unicode="&#x429;" horiz-adv-x="980" 
d="M875 110h75v-244h-115v134h-765v700h115v-590h230v590h115v-590h230v590h115v-590z" />
    <glyph glyph-name="uni042A" unicode="&#x42a;" horiz-adv-x="695" 
d="M175 0v590h-175v110h290v-240h143c66 0 121.167 -22.167 165.5 -66.5s66.5 -98.833 66.5 -163.5s-22.167 -119.167 -66.5 -163.5s-99.5 -66.5 -165.5 -66.5h-258zM290 108h143c34 0 62 11.5 84 34.5s33 52.167 33 87.5s-11 64.5 -33 87.5s-50 34.5 -84 34.5h-143v-244z
" />
    <glyph glyph-name="uni042B" unicode="&#x42b;" horiz-adv-x="813" 
d="M70 0v700h115v-240h143c66 0 121.167 -22.167 165.5 -66.5s66.5 -98.833 66.5 -163.5s-22.167 -119.167 -66.5 -163.5s-99.5 -66.5 -165.5 -66.5h-258zM628 0v700h115v-700h-115zM185 108h143c34 0 62 11.5 84 34.5s33 52.167 33 87.5s-11 64.5 -33 87.5
s-50 34.5 -84 34.5h-143v-244z" />
    <glyph glyph-name="uni042C" unicode="&#x42c;" horiz-adv-x="590" 
d="M328 460c66 0 121.167 -22.167 165.5 -66.5s66.5 -98.833 66.5 -163.5c0 -65.333 -22.167 -120 -66.5 -164s-99.5 -66 -165.5 -66h-258v700h115v-240h143zM328 108c34 0 62 11.5 84 34.5s33 52.167 33 87.5s-11 64.5 -33 87.5s-50 34.5 -84 34.5h-143v-244h143z" />
    <glyph glyph-name="uni042D" unicode="&#x42d;" horiz-adv-x="730" 
d="M332 713c105.333 0 192.166 -34.8301 260.499 -104.497s102.5 -155.834 102.5 -258.501s-34.167 -188.834 -102.5 -258.501s-155.166 -104.5 -260.499 -104.5c-64 0 -122.833 15.167 -176.5 45.5s-95.5 71.166 -125.5 122.499l100 57c18.667 -34.667 46 -62.167 82 -82.5
s76 -30.5 120 -30.5c64.667 0 118.667 18 162 54s70.333 83.667 81 143h-336v108h336c-10.667 59.333 -37.667 107 -81 143s-97.333 54 -162 54c-44 0 -84 -10.167 -120 -30.5s-63.333 -47.833 -82 -82.5l-100 58c30 51.333 71.833 92 125.5 122s112.5 45 176.5 45z" />
    <glyph glyph-name="uni042E" unicode="&#x42e;" horiz-adv-x="1050" 
d="M652 713c101.333 0 187.165 -35.168 257.498 -105.501s105.5 -156.166 105.5 -257.499s-35.167 -187.166 -105.5 -257.499s-156.166 -105.5 -257.499 -105.5c-92.667 0 -172.5 30.167 -239.5 90.5s-105.833 136.166 -116.5 227.499h-111v-305h-115v700h115v-285h114
c14.667 86 54.834 157.167 120.501 213.5s143.167 84.5 232.5 84.5zM651.999 98.999c70 0 128.833 23.833 176.5 71.5s71.5 107.5 71.5 179.5s-23.833 131.833 -71.5 179.5s-106.5 71.5 -176.5 71.5c-70.667 0 -129.667 -23.667 -177 -71s-71 -107.333 -71 -180
c0 -72 23.833 -131.833 71.5 -179.5s106.5 -71.5 176.5 -71.5z" />
    <glyph glyph-name="uni042F" unicode="&#x42f;" horiz-adv-x="623" 
d="M553 700l-0.000976562 -700.001h-115v255h-111l-169 -255h-130l178 265c-46 14 -83.833 40.5 -113.5 79.5s-44.5 82.5 -44.5 130.5c0 62.667 21.833 115.834 65.5 159.501s96.834 65.5 159.501 65.5h280zM272.999 357.999l165 0.00195312v234h-165
c-30.667 0 -56.667 -11.333 -78 -34s-32 -50.334 -32 -83.001s10.667 -60.334 32 -83.001s47.333 -34 78 -34z" />
    <glyph glyph-name="uni0430" unicode="&#x430;" 
d="M459 500h108v-500h-108v72c-40.667 -56.667 -99 -85 -175 -85c-68.667 0 -127.334 25.5 -176.001 76.5s-73 113.167 -73 186.5c0 74 24.333 136.333 73 187s107.334 76 176.001 76c76 0 134.333 -28 175 -84v71zM301 90c45.333 0 83 15.167 113 45.5s45 68.5 45 114.5
s-15 84.167 -45 114.5s-67.667 45.5 -113 45.5s-83 -15.167 -113 -45.5s-45 -68.5 -45 -114.5s15 -84.167 45 -114.5s67.667 -45.5 113 -45.5z" />
    <glyph glyph-name="uni0431" unicode="&#x431;" horiz-adv-x="567" 
d="M295 -13c-76.667 0 -139.169 24.832 -187.502 74.499s-72.5 113.167 -72.5 190.5c0 84.667 12.667 150.167 38 196.5s76.666 88.5 153.999 126.5l56.5 26c25 11.333 42.167 19.5 51.5 24.5s21 12.333 35 22s24.333 20 31 31s12 24.167 16 39.5l88 -51
c-2.66699 -14.667 -7 -28.167 -13 -40.5s-14.667 -23.833 -26 -34.5s-21.166 -19.334 -29.499 -26.001s-22.166 -14.667 -41.499 -24s-33.5 -16 -42.5 -20s-25.833 -11 -50.5 -21c-44 -17.333 -76.167 -35.166 -96.5 -53.499s-34.5 -41.166 -42.5 -68.499
c40 45.333 94.333 68 163 68c58.667 0 109.834 -21 153.501 -63s65.5 -96.333 65.5 -163c0 -68 -23.167 -124 -69.5 -168s-106.5 -66 -180.5 -66zM293.998 87.999c42 0 76.333 12.501 103 37.501s40 56.833 40 95.5c0 39.333 -13.167 71.666 -39.5 96.999
s-60.5 38 -102.5 38c-37.333 0 -71 -11.833 -101 -35.5s-45 -55.167 -45 -94.5c0 -40 14 -73 42 -99s62.333 -39 103 -39z" />
    <glyph glyph-name="uni0432" unicode="&#x432;" horiz-adv-x="508" 
d="M409 257c49.333 -22.667 74.001 -60.999 74.001 -114.999c0 -42 -14.167 -76.167 -42.5 -102.5s-68.833 -39.5 -121.5 -39.5h-256v500h236c51.333 0 91.166 -12.833 119.499 -38.5s42.5 -58.834 42.5 -99.501c0 -47.333 -17.333 -82.333 -52 -105zM291.001 408.001h-125
v-111h125c44 0 66 18.667 66 56c0 36.667 -22 55 -66 55zM309.001 94.001c45.333 0 68 19.667 68 59c0 17.333 -6 30.833 -18 40.5s-28.667 14.5 -50 14.5h-143v-114h143z" />
    <glyph glyph-name="uni0433" unicode="&#x433;" horiz-adv-x="408" 
d="M398 500v-104h-227v-396h-108v500h335z" />
    <glyph glyph-name="uni0434" unicode="&#x434;" horiz-adv-x="595" 
d="M503 102l67 0.000976562v-236h-106v134h-343v-134h-106v236h61c30.667 43.333 46 103.666 46 180.999v217h381v-398zM195 102.001l202 -0.000976562v299h-169v-118c0 -71.333 -11 -131.666 -33 -180.999z" />
    <glyph glyph-name="uni0435" unicode="&#x435;" horiz-adv-x="582" 
d="M148 204c8 -38 26.334 -67.168 55.001 -87.501s63.667 -30.5 105 -30.5c57.333 0 100.333 20.667 129 62l89 -52c-49.333 -72.667 -122.333 -109 -219 -109c-81.333 0 -147 24.833 -197 74.5s-75 112.5 -75 188.5c0 74.667 24.667 137.167 74 187.5
s112.666 75.5 189.999 75.5c73.333 0 133.5 -25.667 180.5 -77s70.5 -113.666 70.5 -186.999c0 -11.333 -1.33301 -26.333 -4 -45h-398zM147.001 291.999l293.998 -0.000976562c-7.33301 40.667 -24.166 71.334 -50.499 92.001s-57.166 31 -92.499 31
c-40 0 -73.333 -11 -100 -33s-43.667 -52 -51 -90z" />
    <glyph glyph-name="uni0436" unicode="&#x436;" horiz-adv-x="722" 
d="M707 0h-123l-170 231v-231h-106v229l-170 -229h-123l195 255l-185 245h123l160 -219v219h106v-220l160 220h123l-185 -245z" />
    <glyph glyph-name="uni0437" unicode="&#x437;" horiz-adv-x="449" 
d="M344 256c53.333 -24 80.002 -63.665 80.002 -118.998c0 -42.667 -17.333 -78.334 -52 -107.001s-83 -43 -145 -43c-100.667 0 -168.667 40 -204 120l88 52c18 -50 57 -75 117 -75c28 0 50 5.83301 66 17.5s24 27.167 24 46.5c0 17.333 -6.33301 31.166 -19 41.499
s-30.334 15.5 -53.001 15.5h-71v95h53c22 0 39.167 5.16699 51.5 15.5s18.5 24.5 18.5 42.5c0 17.333 -7 31.5 -21 42.5s-32.667 16.5 -56 16.5c-50 0 -84.667 -22 -104 -66l-88 50c37.333 74.667 100.666 112 189.999 112c56 0 100.5 -14.167 133.5 -42.5
s49.5 -62.833 49.5 -103.5c0 -50 -19.333 -87 -58 -111z" />
    <glyph glyph-name="uni0438" unicode="&#x438;" horiz-adv-x="570" 
d="M425 500h83v-500h-106v318l-256 -318h-83v500h106v-317z" />
    <glyph glyph-name="uni0439" unicode="&#x439;" horiz-adv-x="570" 
d="M145 570v94h280v-94h-280zM425 500h83v-500h-106v318l-256 -318h-83v500h106v-317z" />
    <glyph glyph-name="uni043A" unicode="&#x43a;" horiz-adv-x="515" 
d="M505 0h-129l-205 231v-231h-108v500h108v-221l194 221h132l-220 -245z" />
    <glyph glyph-name="uni043B" unicode="&#x43b;" horiz-adv-x="548" 
d="M485 500v-500.001h-108v396h-167v-186c0 -79.333 -17.333 -135.666 -52 -168.999s-84 -47 -148 -41v101c30.667 -5.33301 53.667 1 69 19s23 49.667 23 95v285h383z" />
    <glyph glyph-name="uni043C" unicode="&#x43c;" horiz-adv-x="635" 
d="M573 500v-500h-105v329l-144 -229h-13l-143 228v-328h-105v500h110l145 -231l145 231h110z" />
    <glyph glyph-name="uni043D" unicode="&#x43d;" horiz-adv-x="570" 
d="M400 500h108v-500h-108v199h-229v-199h-108v500h108v-199h229v199z" />
    <glyph glyph-name="uni043E" unicode="&#x43e;" horiz-adv-x="598" 
d="M299 -13c-73.333 0 -135.666 25.333 -186.999 76s-77 113 -77 187s25.667 136.333 77 187s113.666 76 186.999 76c74 0 136.5 -25.333 187.5 -76s76.5 -113 76.5 -187s-25.5 -136.333 -76.5 -187s-113.5 -76 -187.5 -76zM299 92c44 0 81 15 111 45s45 67.667 45 113
s-15 83 -45 113s-67 45 -111 45s-81 -15 -111 -45s-45 -67.667 -45 -113s15 -83 45 -113s67 -45 111 -45z" />
    <glyph glyph-name="uni043F" unicode="&#x43f;" horiz-adv-x="570" 
d="M508 500v-500h-108v398h-229v-398h-108v500h445z" />
    <glyph glyph-name="uni0440" unicode="&#x440;" 
d="M346 513c68.667 0 127.334 -25.5 176.001 -76.5s73 -113.167 73 -186.5c0 -74 -24.333 -136.333 -73 -187s-107.334 -76 -176.001 -76c-76 0 -134.333 28 -175 84v-271h-108v700h108v-72c40.667 56.667 99 85 175 85zM329 90c45.333 0 83 15.167 113 45.5
s45 68.5 45 114.5s-15 84.167 -45 114.5s-67.667 45.5 -113 45.5s-83 -15.167 -113 -45.5s-45 -68.5 -45 -114.5s15 -84.167 45 -114.5s67.667 -45.5 113 -45.5z" />
    <glyph glyph-name="uni0441" unicode="&#x441;" horiz-adv-x="542" 
d="M299 -13c-75.333 0 -138.166 25.332 -188.499 75.999s-75.5 113 -75.5 187c0 74.667 25.167 137.167 75.5 187.5s113.166 75.5 188.499 75.5c48.667 0 93 -11.667 133 -35s70 -54.666 90 -93.999l-93 -54c-11.333 24 -28.5 42.833 -51.5 56.5s-49.5 20.5 -79.5 20.5
c-44 0 -80.833 -15 -110.5 -45s-44.5 -67.333 -44.5 -112s14.833 -82 44.5 -112s66.5 -45 110.5 -45c29.333 0 55.833 7 79.5 21s41.5 32.667 53.5 56l93 -53c-21.333 -40 -52 -71.667 -92 -95s-84.333 -35 -133 -35z" />
    <glyph glyph-name="uni0442" unicode="&#x442;" horiz-adv-x="455" 
d="M445 500v-104h-163v-396h-108v396h-164v104h435z" />
    <glyph glyph-name="uni0443" unicode="&#x443;" horiz-adv-x="520" 
d="M400 500l115 -0.00195312l-192 -516c-23.333 -63.333 -56 -110.666 -98 -141.999s-90.667 -45.333 -146 -42v101c34 -2 61.5 4.83301 82.5 20.5s37.833 40.834 50.5 75.501l3 7l-210 496h115l152 -364z" />
    <glyph glyph-name="uni0444" unicode="&#x444;" horiz-adv-x="680" 
d="M645 250c0 -68 -22.667 -125.667 -68 -173s-106.666 -76 -183.999 -86v-191h-106v191c-77.333 10 -138.666 38.667 -183.999 86s-68 105 -68 173s22.667 125.667 68 173s106.666 76 183.999 86v191h106v-191c77.333 -10 138.666 -38.667 183.999 -86s68 -105 68 -173z
M393 94c46 8.66699 81.667 26.832 107 54.499s38 61.5 38 101.5s-12.667 73.833 -38 101.5s-61 45.834 -107 54.501v-312zM142 249.998c0 -39.333 12.667 -73 38 -101s61 -46.333 107 -55v312c-46 -8.66699 -81.667 -27 -107 -55s-38 -61.667 -38 -101z" />
    <glyph glyph-name="uni0445" unicode="&#x445;" horiz-adv-x="520" 
d="M510 0h-125l-124 171l-125 -171h-126l188 257l-178 243h125l115 -158l115 158h126l-178 -244z" />
    <glyph glyph-name="uni0446" unicode="&#x446;" horiz-adv-x="600" 
d="M493 102h82v-236h-106v134h-406v500h108v-398h214v398h108v-398z" />
    <glyph glyph-name="uni0447" unicode="&#x447;" horiz-adv-x="538" 
d="M367 500h108v-500h-108v169c-40 -14.667 -82 -22 -126 -22c-62 0 -111 15.333 -147 46s-54 75.667 -54 135v172h108v-162c0 -60 35.667 -90 107 -90c42 0 79.333 7.66699 112 23v229z" />
    <glyph glyph-name="uni0448" unicode="&#x448;" horiz-adv-x="825" 
d="M655 500h108v-500h-700v500h108v-398h188v398h108v-398h188v398z" />
    <glyph glyph-name="uni0449" unicode="&#x449;" horiz-adv-x="845" 
d="M753 102h67v-236h-106v134h-651v500h108v-398h183v398h108v-398h183v398h108v-398z" />
    <glyph glyph-name="uni044A" unicode="&#x44a;" horiz-adv-x="563" 
d="M356 330c53.333 0 97 -15.167 131 -45.5s51 -70.166 51 -119.499c0 -48.667 -17 -88.334 -51 -119.001s-77.667 -46 -131 -46h-218v396h-138v104h246v-170h110zM357 97c21.333 0 39.166 6.33301 53.499 19s21.5 29 21.5 49c0 20.667 -7.16699 37.167 -21.5 49.5
s-32.166 18.5 -53.499 18.5h-111v-136h111z" />
    <glyph glyph-name="uni044B" unicode="&#x44b;" horiz-adv-x="693" 
d="M281 330c53.333 0 97 -15.167 131 -45.5s51 -70.166 51 -119.499c0 -48.667 -17 -88.334 -51 -119.001s-77.667 -46 -131 -46h-218v500h108v-170h110zM523 500h108v-500h-108v500zM282 97c21.333 0 39.166 6.33301 53.499 19s21.5 29 21.5 49
c0 20.667 -7.16699 37.167 -21.5 49.5s-32.166 18.5 -53.499 18.5h-111v-136h111z" />
    <glyph glyph-name="uni044C" unicode="&#x44c;" horiz-adv-x="488" 
d="M281 330c53.333 0 97 -15.167 131 -45.5s51 -70.166 51 -119.499c0 -48.667 -17 -88.334 -51 -119.001s-77.667 -46 -131 -46h-218v500h108v-170h110zM282 97c21.333 0 39.166 6.33301 53.499 19s21.5 29 21.5 49c0 20.667 -7.16699 37.167 -21.5 49.5
s-32.166 18.5 -53.499 18.5h-111v-136h111z" />
    <glyph glyph-name="uni044D" unicode="&#x44d;" horiz-adv-x="538" 
d="M245 513c76 0 137.998 -24.5 185.998 -73.5s72 -112.167 72 -189.5c0 -76.667 -24.167 -139.667 -72.5 -189s-110.5 -74 -186.5 -74c-52.667 0 -99 11.833 -139 35.5s-70 55.5 -90 95.5l92 52c22 -52.667 68 -79 138 -79c35.333 0 65.833 10.167 91.5 30.5
s43.167 46.833 52.5 79.5h-198v99h198c-9.33301 33.333 -26.666 60 -51.999 80s-55.666 30 -90.999 30c-32 0 -59.833 -7.16699 -83.5 -21.5s-41.167 -33.5 -52.5 -57.5l-93 53c21.333 40 52 71.5 92 94.5s85.333 34.5 136 34.5z" />
    <glyph glyph-name="uni044E" unicode="&#x44e;" horiz-adv-x="808" 
d="M509 513c73.333 0 135.666 -25.333 186.999 -76s77 -113 77 -187s-25.667 -136.333 -77 -187s-113.666 -76 -186.999 -76c-64.667 0 -120.5 19.833 -167.5 59.5s-76.167 90.5 -87.5 152.5h-83v-199h-108v500h108v-199h83c11.333 62 40.5 112.833 87.5 152.5
s102.833 59.5 167.5 59.5zM509 92c44 0 81 15 111 45s45 67.667 45 113s-15 83 -45 113s-67 45 -111 45s-81 -15 -111 -45s-45 -67.667 -45 -113s15 -83 45 -113s67 -45 111 -45z" />
    <glyph glyph-name="uni044F" unicode="&#x44f;" horiz-adv-x="513" 
d="M450 500v-500h-106v168h-60l-127 -168h-127l135 178c-34.667 11.333 -62.5 31.333 -83.5 60s-31.5 60.667 -31.5 96c0 46 16.5 85.167 49.5 117.5s75.5 48.5 127.5 48.5h223zM233 261h111v141h-111c-22 0 -40.333 -6.33301 -55 -19s-22 -30 -22 -52
c0 -21.333 7.33301 -38.333 22 -51s33 -19 55 -19z" />
    <glyph glyph-name="uni0451" unicode="&#x451;" horiz-adv-x="582" 
d="M198 561c-16.667 0 -30.834 5.83301 -42.501 17.5s-17.5 25.834 -17.5 42.501s5.83301 30.834 17.5 42.501s25.834 17.5 42.501 17.5s30.834 -5.83301 42.501 -17.5s17.5 -25.834 17.5 -42.501s-5.83301 -30.834 -17.5 -42.501s-25.834 -17.5 -42.501 -17.5zM388 561
c-16.667 0 -30.834 5.83301 -42.501 17.5s-17.5 25.834 -17.5 42.501s5.83301 30.834 17.5 42.501s25.834 17.5 42.501 17.5s30.834 -5.83301 42.501 -17.5s17.5 -25.834 17.5 -42.501s-5.83301 -30.834 -17.5 -42.501s-25.834 -17.5 -42.501 -17.5zM148 204
c8 -38 26.334 -67.168 55.001 -87.501s63.667 -30.5 105 -30.5c57.333 0 100.333 20.667 129 62l89 -52c-49.333 -72.667 -122.333 -109 -219 -109c-81.333 0 -147 24.833 -197 74.5s-75 112.5 -75 188.5c0 74.667 24.667 137.167 74 187.5s112.666 75.5 189.999 75.5
c73.333 0 133.5 -25.667 180.5 -77s70.5 -113.666 70.5 -186.999c0 -11.333 -1.33301 -26.333 -4 -45h-398zM147.001 291.999l293.998 -0.000976562c-7.33301 40.667 -24.166 71.334 -50.499 92.001s-57.166 31 -92.499 31c-40 0 -73.333 -11 -100 -33s-43.667 -52 -51 -90z
" />
    <glyph glyph-name="uni0452" unicode="&#x452;" horiz-adv-x="578" 
d="M334 513c56.667 0 102.667 -18.332 138 -54.999s53 -87 53 -151v-327c0 -138.667 -68.333 -203 -205 -193v104c33.333 -3.33301 57.833 2 73.5 16s23.5 38.333 23.5 73v316c0 37.333 -10 66 -30 86s-47 30 -81 30c-38.667 0 -69.667 -11.833 -93 -35.5
s-35 -59.834 -35 -108.501v-268h-108v561h-65v74h65v65h108v-65h142v-74h-142v-125c33.333 51.333 85.333 77 156 77z" />
    <glyph glyph-name="uni0453" unicode="&#x453;" horiz-adv-x="408" 
d="M351 700l-106 -135h-104l80 135h130zM398 500v-104h-227v-396h-108v500h335z" />
    <glyph glyph-name="uni0454" unicode="&#x454;" horiz-adv-x="538" 
d="M431 170l91.998 -52c-20 -40 -50 -71.833 -90 -95.5s-86.333 -35.5 -139 -35.5c-76 0 -138.167 24.667 -186.5 74s-72.5 112.333 -72.5 189c0 77.333 24 140.5 72 189.5s110 73.5 186 73.5c50.667 0 96 -11.5 136 -34.5s70.667 -54.5 92 -94.5l-93 -53
c-11.333 24 -28.833 43.167 -52.5 57.5s-51.5 21.5 -83.5 21.5c-35.333 0 -65.666 -10 -90.999 -30s-42.666 -46.667 -51.999 -80h198v-99h-198c9.33301 -32.667 26.833 -59.167 52.5 -79.5s56.167 -30.5 91.5 -30.5c70 0 116 26.333 138 79z" />
    <glyph glyph-name="uni0455" unicode="&#x455;" horiz-adv-x="461" 
d="M160 362c0 -16.667 9.16699 -29.835 27.5 -39.502s40.666 -18 66.999 -25s52.833 -15.167 79.5 -24.5s49.167 -25.166 67.5 -47.499s27.5 -50.5 27.5 -84.5c0 -48 -18.5 -85.667 -55.5 -113s-83.5 -41 -139.5 -41c-49.333 0 -91.666 10.333 -126.999 31
s-61 49.334 -77 86.001l93 54c17.333 -48 54.333 -72 111 -72s85 18.667 85 56c0 16 -9.16699 29 -27.5 39s-40.666 18.5 -66.999 25.5s-52.833 15.167 -79.5 24.5s-49.167 24.833 -67.5 46.5s-27.5 49.167 -27.5 82.5c0 46 17.5 83 52.5 111s78.5 42 130.5 42
c41.333 0 78.166 -9.16699 110.499 -27.5s57.166 -43.833 74.499 -76.5l-91 -51c-17.333 38 -48.666 57 -93.999 57c-20.667 0 -38 -4.5 -52 -13.5s-21 -22.167 -21 -39.5z" />
    <glyph glyph-name="uni0456" unicode="&#x456;" horiz-adv-x="233" 
d="M117 575c-18.667 0 -34.8301 6.83301 -48.4971 20.5s-20.5 29.834 -20.5 48.501s6.66699 34.834 20 48.501s29.666 20.5 48.999 20.5s35.666 -6.83301 48.999 -20.5s20 -29.834 20 -48.501s-6.83301 -34.834 -20.5 -48.501s-29.834 -20.5 -48.501 -20.5zM63.0039 0v500
h108v-500h-108z" />
    <glyph glyph-name="uni0457" unicode="&#x457;" horiz-adv-x="233" 
d="M22 558c-16.667 0 -30.834 5.83301 -42.501 17.5s-17.5 25.834 -17.5 42.501s5.83301 30.834 17.5 42.501s25.834 17.5 42.501 17.5s30.834 -5.83301 42.501 -17.5s17.5 -25.834 17.5 -42.501s-5.83301 -30.834 -17.5 -42.501s-25.834 -17.5 -42.501 -17.5zM212 558
c-16.667 0 -30.834 5.83301 -42.501 17.5s-17.5 25.834 -17.5 42.501s5.83301 30.834 17.5 42.501s25.834 17.5 42.501 17.5s30.834 -5.83301 42.501 -17.5s17.5 -25.834 17.5 -42.501s-5.83301 -30.834 -17.5 -42.501s-25.834 -17.5 -42.501 -17.5zM63 0v500h108v-500h-108
z" />
    <glyph glyph-name="uni0458" unicode="&#x458;" horiz-adv-x="253" 
d="M136 575c-18.667 0 -34.834 6.83301 -48.501 20.5s-20.5 29.834 -20.5 48.501s6.83301 34.834 20.5 48.501s29.834 20.5 48.501 20.5s34.834 -6.83301 48.501 -20.5s20.5 -29.834 20.5 -48.501s-6.83301 -34.834 -20.5 -48.501s-29.834 -20.5 -48.501 -20.5zM82 -20v520
h108v-520c0 -138.667 -68.333 -203 -205 -193v104c33.333 -3.33301 57.833 2 73.5 16s23.5 38.333 23.5 73z" />
    <glyph glyph-name="uni0459" unicode="&#x459;" horiz-adv-x="772" 
d="M581 315c50 0 90.167 -13.999 120.5 -41.999s45.5 -66.333 45.5 -115s-15.333 -87.167 -46 -115.5s-70.667 -42.5 -120 -42.5h-214v396h-157v-186c0 -79.333 -17.333 -135.833 -52 -169.5s-84 -48.5 -148 -44.5v101c30.667 -3.33301 53.667 4.16699 69 22.5
s23 50.166 23 95.499v285h373v-185h106zM581 97.001c18.667 0 34.167 5.16797 46.5 15.501s18.5 25.5 18.5 45.5c0 19.333 -6.16699 34.166 -18.5 44.499s-27.833 15.5 -46.5 15.5h-106v-121h106z" />
    <glyph glyph-name="uni045A" unicode="&#x45a;" horiz-adv-x="790" 
d="M593 315c50.667 0 92 -14.167 124 -42.5s48 -66.5 48 -114.5c0 -48.667 -16.167 -87.167 -48.5 -115.5s-73.5 -42.5 -123.5 -42.5h-213v213h-214v-213h-108v500h108v-185h214v185h108v-185h105zM594 97c18.667 0 34.167 5.16797 46.5 15.501s18.5 25.5 18.5 45.5
c0 19.333 -6.33301 34.166 -19 44.499s-28 15.5 -46 15.5h-106v-121h106z" />
    <glyph glyph-name="uni045B" unicode="&#x45b;" horiz-adv-x="578" 
d="M334 513c56.667 0 102.667 -18.332 138 -54.999s53 -87 53 -151v-307h-108v296c0 37.333 -10 66 -30 86s-47 30 -81 30c-38.667 0 -69.667 -11.833 -93 -35.5s-35 -59.834 -35 -108.501v-268h-108v561h-65v74h65v65h108v-65h142v-74h-142v-125
c33.333 51.333 85.333 77 156 77z" />
    <glyph glyph-name="uni045C" unicode="&#x45c;" horiz-adv-x="515" 
d="M401 700l-106 -135h-104l80 135h130zM505 0h-129l-205 231v-231h-108v500h108v-221l194 221h132l-220 -245z" />
    <glyph glyph-name="uni045E" unicode="&#x45e;" horiz-adv-x="520" 
d="M400 664v-94h-280v94h280zM400 500l115 -0.00195312l-192 -516c-23.333 -63.333 -56 -110.666 -98 -141.999s-90.667 -45.333 -146 -42v101c34 -2 61.5 4.83301 82.5 20.5s37.833 40.834 50.5 75.501l3 7l-210 496h115l152 -364z" />
    <glyph glyph-name="uni045F" unicode="&#x45f;" horiz-adv-x="570" 
d="M400 500h108v-500h-170v-134h-106v134h-169v500h108v-398h229v398z" />
    <glyph glyph-name="uni0490" unicode="&#x490;" horiz-adv-x="480" 
d="M350 820h115v-230h-280v-590h-115v700h280v120z" />
    <glyph glyph-name="uni0491" unicode="&#x491;" horiz-adv-x="408" 
d="M292 602h106v-206h-227v-396h-108v500h229v102z" />
    <glyph glyph-name="Wgrave" unicode="&#x1e80;" horiz-adv-x="999" 
d="M594 765l-80 135h-130l106 -135h104zM218 0l-198 700h121l147 -547l159 547h106l158 -547l147 547h121l-198 -700h-133l-148 511l-149 -511h-133z" />
    <glyph glyph-name="wgrave" unicode="&#x1e81;" horiz-adv-x="770" 
d="M460 565h-104l-106 135h130zM639 500h114l-157 -500h-106l-104 337l-105 -337h-106l-157 500h114l97 -345l105 345h103l104 -345z" />
    <glyph glyph-name="Wacute" unicode="&#x1e82;" horiz-adv-x="999" 
d="M449 765h104l106 135h-130zM218 0l-198 700h121l147 -547l159 547h106l158 -547l147 547h121l-198 -700h-133l-148 511l-149 -511h-133z" />
    <glyph glyph-name="wacute" unicode="&#x1e83;" horiz-adv-x="770" 
d="M525 700l-106 -135h-104l80 135h130zM639 500h114l-157 -500h-106l-104 337l-105 -337h-106l-157 500h114l97 -345l105 345h103l104 -345z" />
    <glyph glyph-name="Wdieresis" unicode="&#x1e84;" horiz-adv-x="999" 
d="M424 758c-16.667 0 -30.834 5.83301 -42.501 17.5s-17.5 25.834 -17.5 42.501s5.83301 30.834 17.5 42.501s25.834 17.5 42.501 17.5s30.834 -5.83301 42.501 -17.5s17.5 -25.834 17.5 -42.501s-5.83301 -30.834 -17.5 -42.501s-25.834 -17.5 -42.501 -17.5zM614 758
c-16.667 0 -30.834 5.83301 -42.501 17.5s-17.5 25.834 -17.5 42.501s5.83301 30.834 17.5 42.501s25.834 17.5 42.501 17.5s30.834 -5.83301 42.501 -17.5s17.5 -25.834 17.5 -42.501s-5.83301 -30.834 -17.5 -42.501s-25.834 -17.5 -42.501 -17.5zM218 0l-198 700h121
l147 -547l159 547h106l158 -547l147 547h121l-198 -700h-133l-148 511l-149 -511h-133z" />
    <glyph glyph-name="wdieresis" unicode="&#x1e85;" horiz-adv-x="770" 
d="M290 558c-16.667 0 -30.834 5.83301 -42.501 17.5s-17.5 25.834 -17.5 42.501s5.83301 30.834 17.5 42.501s25.834 17.5 42.501 17.5s30.834 -5.83301 42.501 -17.5s17.5 -25.834 17.5 -42.501s-5.83301 -30.834 -17.5 -42.501s-25.834 -17.5 -42.501 -17.5zM480 558
c-16.667 0 -30.834 5.83301 -42.501 17.5s-17.5 25.834 -17.5 42.501s5.83301 30.834 17.5 42.501s25.834 17.5 42.501 17.5s30.834 -5.83301 42.501 -17.5s17.5 -25.834 17.5 -42.501s-5.83301 -30.834 -17.5 -42.501s-25.834 -17.5 -42.501 -17.5zM639 500h114l-157 -500
h-106l-104 337l-105 -337h-106l-157 500h114l97 -345l105 345h103l104 -345z" />
    <glyph glyph-name="Ygrave" unicode="&#x1ef2;" horiz-adv-x="613" 
d="M380 765h-104l-106 135h130zM608 700l-244 -422v-278h-115v278l-244 422h131l171 -310l170 310h131z" />
    <glyph glyph-name="ygrave" unicode="&#x1ef3;" horiz-adv-x="520" 
d="M335 565h-104l-106 135h130zM400 500l115 -0.000976562l-192 -516c-48 -129.333 -129.333 -190.666 -244 -183.999v101c34 -2 61.333 5.16699 82 21.5s37.667 41.833 51 76.5l5 10l-212 491h118l149 -363z" />
    <glyph glyph-name="endash" unicode="&#x2013;" horiz-adv-x="650" 
d="M70 252v104h510v-104h-510z" />
    <glyph glyph-name="emdash" unicode="&#x2014;" horiz-adv-x="750" 
d="M70 252v104h610v-104h-610z" />
    <glyph glyph-name="quoteleft" unicode="&#x2018;" horiz-adv-x="265" 
d="M52 440l70 260h90l-40 -260h-120z" />
    <glyph glyph-name="quoteright" unicode="&#x2019;" horiz-adv-x="265" 
d="M213 700l-70 -260h-90l40 260h120z" />
    <glyph glyph-name="quotesinglbase" unicode="&#x201a;" horiz-adv-x="265" 
d="M213 120l-70 -260h-90l40 260h120z" />
    <glyph glyph-name="quotedblleft" unicode="&#x201c;" horiz-adv-x="435" 
d="M52 440l70 260h90l-40 -260h-120zM222 440l70 260h90l-40 -260h-120z" />
    <glyph glyph-name="quotedblright" unicode="&#x201d;" horiz-adv-x="435" 
d="M213 700l-70 -260h-90l40 260h120zM383 700l-70 -260h-90l40 260h120z" />
    <glyph glyph-name="quotedblbase" unicode="&#x201e;" horiz-adv-x="435" 
d="M213 120l-70 -260h-90l40 260h120zM383 120l-70 -260h-90l40 260h120z" />
    <glyph glyph-name="dagger" unicode="&#x2020;" horiz-adv-x="480" 
d="M430 555v-104h-136v-451h-108v451h-136v104h136v145h108v-145h136z" />
    <glyph glyph-name="daggerdbl" unicode="&#x2021;" horiz-adv-x="480" 
d="M430 451h-136v-202h136v-104h-136v-145h-108v145h-136v104h136v202h-136v104h136v145h108v-145h136v-104z" />
    <glyph glyph-name="bullet" unicode="&#x2022;" horiz-adv-x="340" 
d="M172 225c-34.667 0 -64.5 12.5 -89.5 37.5s-37.5 54.833 -37.5 89.5c0 34 12.333 63 37 87s54.667 36 90 36c34 0 63 -12 87 -36s36 -53 36 -87c0 -35.333 -12 -65.333 -36 -90s-53 -37 -87 -37z" />
    <glyph glyph-name="ellipsis" unicode="&#x2026;" horiz-adv-x="685" 
d="M128 -12c-20.667 0 -38.332 7.33301 -52.999 22s-22 32.334 -22 53.001s7.16699 38.334 21.5 53.001s32.166 22 53.499 22c20.667 0 38.334 -7.33301 53.001 -22s22 -32.334 22 -53.001s-7.33301 -38.334 -22 -53.001s-32.334 -22 -53.001 -22zM343.002 -12
c-20.667 0 -38.334 7.33301 -53.001 22s-22 32.334 -22 53.001s7.33301 38.334 22 53.001s32.334 22 53.001 22s38.334 -7.33301 53.001 -22s22 -32.334 22 -53.001s-7.33301 -38.334 -22 -53.001s-32.334 -22 -53.001 -22zM558.002 -12
c-20.667 0 -38.332 7.33301 -52.999 22s-22 32.334 -22 53.001s7.16699 38.334 21.5 53.001s32.166 22 53.499 22c20.667 0 38.334 -7.33301 53.001 -22s22 -32.334 22 -53.001s-7.33301 -38.334 -22 -53.001s-32.334 -22 -53.001 -22z" />
    <glyph glyph-name="perthousand" unicode="&#x2030;" horiz-adv-x="1114" 
d="M214 393c-46.667 0 -85.667 15.5 -117 46.5s-47 68.833 -47 113.5s15.667 82.5 47 113.5s70.333 46.5 117 46.5s85.5 -15.333 116.5 -46s46.5 -68.667 46.5 -114c0 -44.667 -15.5 -82.5 -46.5 -113.5s-69.833 -46.5 -116.5 -46.5zM213 481c21.333 0 38.666 7 51.999 21
s20 31 20 51c0 20.667 -6.66699 38 -20 52s-30.666 21 -51.999 21c-20.667 0 -37.667 -7 -51 -21s-20 -31.333 -20 -52c0 -20 6.66699 -37 20 -51s30.333 -21 51 -21zM109 103l461 513l54 -31l-461 -514zM534 -12c-46.667 0 -85.667 15.5 -117 46.5s-47 68.833 -47 113.5
s15.667 82.5 47 113.5s70.333 46.5 117 46.5c46 0 84.667 -15.5 116 -46.5s47 -68.833 47 -113.5s-15.667 -82.5 -47 -113.5s-70 -46.5 -116 -46.5zM901 -12c-46.667 0 -85.5 15.5 -116.5 46.5s-46.5 68.833 -46.5 113.5s15.5 82.5 46.5 113.5s69.833 46.5 116.5 46.5
s85.5 -15.5 116.5 -46.5s46.5 -68.833 46.5 -113.5s-15.5 -82.5 -46.5 -113.5s-69.833 -46.5 -116.5 -46.5zM533 76c21.333 0 38.666 7 51.999 21s20 31 20 51c0 20.667 -6.66699 38 -20 52s-30.666 21 -51.999 21c-20.667 0 -37.667 -7 -51 -21s-20 -31.333 -20 -52
c0 -20 6.66699 -37 20 -51s30.333 -21 51 -21zM901 76c20.667 0 37.667 7 51 21s20 31 20 51c0 20.667 -6.66699 38 -20 52s-30.333 21 -51 21s-37.667 -7 -51 -21s-20 -31.333 -20 -52c0 -20 6.66699 -37 20 -51s30.333 -21 51 -21z" />
    <glyph glyph-name="guilsinglleft" unicode="&#x2039;" horiz-adv-x="347" 
d="M282 494l-110 -185l110 -185h-107l-110 185l110 185h107z" />
    <glyph glyph-name="guilsinglright" unicode="&#x203a;" horiz-adv-x="347" 
d="M172 494l110 -185l-110 -185h-107l110 185l-110 185h107z" />
    <glyph glyph-name="fraction" unicode="&#x2044;" horiz-adv-x="200" 
d="M-60 0h-80l400 700h80z" />
    <glyph glyph-name="Euro" unicode="&#x20ac;" horiz-adv-x="605" 
d="M487 189l95.998 -55.002c-44 -98 -118.333 -147 -223 -147c-74 0 -134.5 24.333 -181.5 73s-76.833 115.334 -89.5 200.001h-71v71h65v19c0 12 0.333008 21 1 27h-66v71h73c13.333 82 43.333 146.667 90 194s106.334 71 179.001 71c102.667 0 176 -47.333 220 -142
l-95 -55c-26 56.667 -67.667 85 -125 85c-40 0 -73 -13.167 -99 -39.5s-44 -64.166 -54 -113.499h221v-71h-229c-0.666992 -6 -1 -15 -1 -27v-19h230v-71h-223c9.33301 -52 27.333 -91.833 54 -119.5s60.334 -41.5 101.001 -41.5c58.667 0 101 30 127 90z" />
    <glyph glyph-name="uni20BD" unicode="&#x20bd;" horiz-adv-x="598" 
d="M353 255l-143 0.000976562v-67h235v-78h-235v-110h-115v110h-80v78h80v67h-80v103h80v342h258c63.333 0 117 -21.833 161 -65.5s66 -96.834 66 -159.501c0 -62 -22 -114.167 -66 -156.5s-97.667 -63.5 -161 -63.5zM210 592.001v-234.002h143
c31.333 0 57.833 11.333 79.5 34s32.5 50.334 32.5 83.001s-10.833 60.334 -32.5 83.001s-48.167 34 -79.5 34h-143z" />
    <glyph glyph-name="uni2116" unicode="&#x2116;" horiz-adv-x="1031" 
d="M833 393c-46.667 0 -85.5 15.5 -116.5 46.5s-46.5 68.833 -46.5 113.5s15.5 82.5 46.5 113.5s69.833 46.5 116.5 46.5s85.5 -15.5 116.5 -46.5s46.5 -68.833 46.5 -113.5s-15.333 -82.5 -46 -113.5s-69.667 -46.5 -117 -46.5zM490 700h115v-700h-90l-330 475v-475h-115
v700h90l330 -475v475zM833 483c20.667 0 37.333 6.66699 50 20s19 30 19 50s-6.5 36.667 -19.5 50s-29.5 20 -49.5 20s-36.5 -6.66699 -49.5 -20s-19.5 -30 -19.5 -50s6.5 -36.667 19.5 -50s29.5 -20 49.5 -20zM682.999 231v102h302v-102h-302z" />
    <glyph glyph-name="trademark" unicode="&#x2122;" horiz-adv-x="471" 
d="M201 700v-49h-56v-151h-53v151h-57v49h166zM384 700h52v-200h-52v116l-52 -80h-5l-52 79v-115h-52v200h52l54 -84z" />
    <glyph glyph-name="estimated" unicode="&#x212e;" horiz-adv-x="800" 
d="M400 710c108.667 0 197.499 -34.668 266.499 -104.001s103.5 -154.666 103.5 -255.999c0 -10 -5 -15 -15 -15h-560c-10 0 -15 -5 -15 -15v-192c0 -7.33301 2.33301 -13.666 7 -18.999c56 -59.333 133.667 -89 233 -89c96.667 0 173.667 32.333 231 97
c4.66699 6 10.667 9 18 9h37c6.66699 0 11 -2 13 -6s0.666992 -8.33301 -4 -13c-72.667 -78 -171 -117 -295 -117c-117.333 0 -211.666 34.5 -282.999 103.5s-107 154.5 -107 256.5c0 101.333 34.5 186.666 103.5 255.999s157.833 104 266.5 104zM619.999 571.999
c0 7.33301 -2.33301 13.666 -7 18.999c-56 59.333 -127 89 -213 89s-157 -29.667 -213 -89c-4.66699 -5.33301 -7 -11.666 -7 -18.999v-192c0 -10 5 -15 15 -15h410c10 0 15 5 15 15v192z" />
    <glyph glyph-name="oneeighth" unicode="&#x215b;" horiz-adv-x="806" 
d="M204 300h-92v306l-85 -25l-22 76l119 43h80v-400zM521 700h80l-400 -700h-80zM723 210c40.667 -22.667 61 -56.667 61 -102c0 -37.333 -13.5 -66.833 -40.5 -88.5s-63.5 -32.5 -109.5 -32.5c-46.667 0 -83.5 10.833 -110.5 32.5s-40.5 51.167 -40.5 88.5
c0 45.333 20.333 79.333 61 102c-31.333 20.667 -47 49 -47 85c0 36.667 12.833 65.5 38.5 86.5s58.5 31.5 98.5 31.5c39.333 0 71.833 -10.5 97.5 -31.5s38.5 -49.833 38.5 -86.5c0 -36 -15.667 -64.333 -47 -85zM634 334c-36.667 0 -55 -15 -55 -45s18.333 -45 55 -45
c16.667 0 29.834 4 39.501 12s14.5 19 14.5 33s-4.83301 25 -14.5 33s-22.834 12 -39.501 12zM634 68c19.333 0 34.5 4.66699 45.5 14s16.5 22 16.5 38s-5.66699 28.667 -17 38s-26.333 14 -45 14c-20 0 -35.5 -4.66699 -46.5 -14s-16.5 -22 -16.5 -38s5.5 -28.667 16.5 -38
s26.5 -14 46.5 -14z" />
    <glyph glyph-name="threeeighths" unicode="&#x215c;" horiz-adv-x="894" 
d="M319 419c0 -41.333 -13.667 -73.6689 -41 -97.002s-64.333 -35 -111 -35c-74.667 0 -125.334 29 -152.001 87l78 45c13.333 -33.333 38 -50 74 -50c19.333 0 34 4.5 44 13.5s15 21.167 15 36.5s-5.5 27.5 -16.5 36.5s-26.167 13.5 -45.5 13.5h-14l-36 55l75 91h-158v85
h270v-72l-78 -93c30.667 -7.33301 54.334 -21.166 71.001 -41.499s25 -45.166 25 -74.499zM609 699.997h80l-400 -700h-80zM811 209.997c40.667 -22.667 61 -56.667 61 -102c0 -37.333 -13.5 -66.833 -40.5 -88.5s-63.5 -32.5 -109.5 -32.5
c-46.667 0 -83.5 10.833 -110.5 32.5s-40.5 51.167 -40.5 88.5c0 45.333 20.333 79.333 61 102c-31.333 20.667 -47 49 -47 85c0 36.667 12.833 65.5 38.5 86.5s58.5 31.5 98.5 31.5c39.333 0 71.833 -10.5 97.5 -31.5s38.5 -49.833 38.5 -86.5
c0 -36 -15.667 -64.333 -47 -85zM722 333.997c-36.667 0 -55 -15 -55 -45s18.333 -45 55 -45c16.667 0 29.834 4 39.501 12s14.5 19 14.5 33s-4.83301 25 -14.5 33s-22.834 12 -39.501 12zM722 67.9971c19.333 0 34.5 4.66699 45.5 14s16.5 22 16.5 38
s-5.66699 28.667 -17 38s-26.333 14 -45 14c-20 0 -35.5 -4.66699 -46.5 -14s-16.5 -22 -16.5 -38s5.5 -28.667 16.5 -38s26.5 -14 46.5 -14z" />
    <glyph glyph-name="fiveeighths" unicode="&#x215d;" horiz-adv-x="882" 
d="M311 417c0 -41.333 -13.333 -73.333 -40 -96s-62 -34 -106 -34c-74 0 -124 29 -150 87l76 43c14 -32.667 38 -49 72 -49c20 0 35.167 4.5 45.5 13.5s15.5 21.167 15.5 36.5c0 35.333 -20.333 53 -61 53h-126l16 229h239v-84h-161l-4 -66h42c42.667 0 77 -11.5 103 -34.5
s39 -55.833 39 -98.5zM597 700h80l-400 -700h-80zM799 210c40.667 -22.667 61 -56.667 61 -102c0 -37.333 -13.5 -66.833 -40.5 -88.5s-63.5 -32.5 -109.5 -32.5c-46.667 0 -83.5 10.833 -110.5 32.5s-40.5 51.167 -40.5 88.5c0 45.333 20.333 79.333 61 102
c-31.333 20.667 -47 49 -47 85c0 36.667 12.833 65.5 38.5 86.5s58.5 31.5 98.5 31.5c39.333 0 71.833 -10.5 97.5 -31.5s38.5 -49.833 38.5 -86.5c0 -36 -15.667 -64.333 -47 -85zM710 334c-36.667 0 -55 -15 -55 -45s18.333 -45 55 -45c16.667 0 29.834 4 39.501 12
s14.5 19 14.5 33s-4.83301 25 -14.5 33s-22.834 12 -39.501 12zM710 68c19.333 0 34.5 4.66699 45.5 14s16.5 22 16.5 38s-5.66699 28.667 -17 38s-26.333 14 -45 14c-20 0 -35.5 -4.66699 -46.5 -14s-16.5 -22 -16.5 -38s5.5 -28.667 16.5 -38s26.5 -14 46.5 -14z" />
    <glyph glyph-name="seveneighths" unicode="&#x215e;" horiz-adv-x="841" 
d="M278 700v-71l-133 -329h-96l130 315h-174v85h273zM556 700h80l-400 -700h-80zM758 210c40.667 -22.667 61 -56.667 61 -102c0 -37.333 -13.5 -66.833 -40.5 -88.5s-63.5 -32.5 -109.5 -32.5c-46.667 0 -83.5 10.833 -110.5 32.5s-40.5 51.167 -40.5 88.5
c0 45.333 20.333 79.333 61 102c-31.333 20.667 -47 49 -47 85c0 36.667 12.833 65.5 38.5 86.5s58.5 31.5 98.5 31.5c39.333 0 71.833 -10.5 97.5 -31.5s38.5 -49.833 38.5 -86.5c0 -36 -15.667 -64.333 -47 -85zM669 334c-36.667 0 -55 -15 -55 -45s18.333 -45 55 -45
c16.667 0 29.834 4 39.501 12s14.5 19 14.5 33s-4.83301 25 -14.5 33s-22.834 12 -39.501 12zM669 68c19.333 0 34.5 4.66699 45.5 14s16.5 22 16.5 38s-5.66699 28.667 -17 38s-26.333 14 -45 14c-20 0 -35.5 -4.66699 -46.5 -14s-16.5 -22 -16.5 -38s5.5 -28.667 16.5 -38
s26.5 -14 46.5 -14z" />
    <glyph glyph-name="arrowleft" unicode="&#x2190;" horiz-adv-x="805" 
d="M755 402v-104h-509l248 -248h-144l-300 300l300 300h144l-248 -248h509z" />
    <glyph glyph-name="arrowup" unicode="&#x2191;" horiz-adv-x="700" 
d="M650 400v-144l-246 246v-502h-108v502l-246 -246v144l300 300z" />
    <glyph glyph-name="arrowright" unicode="&#x2192;" horiz-adv-x="805" 
d="M455 650l300 -300l-300 -300h-144l248 248h-509v104h509l-248 248h144z" />
    <glyph glyph-name="arrowdown" unicode="&#x2193;" horiz-adv-x="700" 
d="M404 198l246 246v-144l-300 -300l-300 300v144l246 -246v502h108v-502z" />
    <glyph glyph-name="arrowboth" unicode="&#x2194;" horiz-adv-x="1070" 
d="M756 615l264 -265l-264 -265h-142l211 213h-581l213 -213h-142l-265 265l265 265h142l-213 -213h582l-212 213h142z" />
    <glyph glyph-name="arrowupdn" unicode="&#x2195;" 
d="M580 429l-211 210v-578l211 211v-142l-265 -265l-265 265v142l211 -211v578l-211 -210v142l265 264l265 -264v-142z" />
    <glyph glyph-name="uni2196" unicode="&#x2196;" horiz-adv-x="642" 
d="M592 137l-74 -74l-366 365v-349l-102 102v424h424l102 -102h-349z" />
    <glyph glyph-name="uni2197" unicode="&#x2197;" horiz-adv-x="642" 
d="M168 605h424v-424l-102 -102v349l-366 -365l-74 74l365 366h-349z" />
    <glyph glyph-name="uni2198" unicode="&#x2198;" horiz-adv-x="642" 
d="M490 604l102 -102v-424h-424l-102 102h349l-365 366l74 74l366 -365v349z" />
    <glyph glyph-name="uni2199" unicode="&#x2199;" horiz-adv-x="642" 
d="M592 546l-365 -366h349l-102 -102h-424v424l102 102v-349l366 365z" />
    <glyph glyph-name="partialdiff" unicode="&#x2202;" horiz-adv-x="581" 
d="M237 713c81.333 0 150.666 -33.668 207.999 -101.001s86 -154.666 86 -261.999c0 -115.333 -25.667 -204.666 -77 -267.999s-116.333 -95 -195 -95c-66.667 0 -119 20.167 -157 60.5s-57 91.166 -57 152.499c0 68.667 20.333 124.667 61 168s96.334 65 167.001 65
c54 0 103.333 -14.667 148 -44c-6 66.667 -25.667 120.167 -59 160.5s-78.333 60.833 -135 61.5c-42.667 0 -83 -11 -121 -33v99c37.333 24 81 36 131 36zM262 88.999c44.667 0 80.834 18 108.501 54s44.5 85.667 50.5 149c-38.667 29.333 -84.334 44 -137.001 44
c-39.333 0 -71 -11.667 -95 -35s-36 -56 -36 -98c0 -34 9.66699 -61.5 29 -82.5s46 -31.5 80 -31.5z" />
    <glyph glyph-name="emptyset" unicode="&#x2205;" horiz-adv-x="804" 
d="M657 607c71.333 -71.333 107 -157 107 -257s-35.333 -185.333 -106 -256s-156 -106 -256 -106c-71.333 0 -137.333 19.667 -198 59l-54 -67h-95l92 113c-71.333 71.333 -107 157 -107 257s35.333 185.333 106 256s156 106 256 106c71.333 0 137.333 -19.667 198 -59
l54 67h95zM120 350c0 -76 25.334 -141 76.001 -195l354 437c-44.667 28 -94 42 -148 42c-78.667 0 -145.334 -27.5 -200.001 -82.5s-82 -122.167 -82 -201.5zM402.001 66c78.667 0 145.333 27.5 200 82.5s82 122.167 82 201.5c0 76 -25.333 141 -76 195l-354 -437
c44.667 -28 94 -42 148 -42z" />
    <glyph glyph-name="product" unicode="&#x220f;" horiz-adv-x="640" 
d="M70 -200v900h500v-900h-108v796h-284v-796h-108z" />
    <glyph glyph-name="summation" unicode="&#x2211;" horiz-adv-x="555" 
d="M40 -200v95l222 365l-207 344v96h450v-104h-323l202 -336l-216 -356h352v-104h-480z" />
    <glyph glyph-name="minus" unicode="&#x2212;" horiz-adv-x="550" 
d="M55 299v102h440v-102h-440z" />
    <glyph glyph-name="radical" unicode="&#x221a;" horiz-adv-x="665" 
d="M274 0l-127 211h-97v104h159l109 -188l226 673h111l-274 -800h-107z" />
    <glyph glyph-name="infinity" unicode="&#x221e;" horiz-adv-x="805" 
d="M578 520c50.667 0 92.5 -15.833 125.5 -47.5s49.5 -72.5 49.5 -122.5c0 -49.333 -16.5 -90 -49.5 -122s-74.833 -48 -125.5 -48c-58.667 0 -117 31 -175 93c-58 -62 -116.667 -93 -176 -93c-50 0 -91.5 16 -124.5 48s-49.5 72.667 -49.5 122c0 50 16.5 90.833 49.5 122.5
s74.5 47.5 124.5 47.5c59.333 0 118 -31 176 -93c58 62 116.333 93 175 93zM232 278c35.333 0 71 24.001 107 72.001c-36 48.667 -71.667 73 -107 73c-20.667 0 -37.834 -6.83301 -51.501 -20.5s-20.5 -31.167 -20.5 -52.5c0 -20.667 6.83301 -37.834 20.5 -51.501
s30.834 -20.5 51.501 -20.5zM574 278.001c20.667 0 37.834 6.83203 51.501 20.499s20.5 30.834 20.5 51.501c0 21.333 -6.83301 38.833 -20.5 52.5s-30.834 20.5 -51.501 20.5c-35.333 0 -71 -24.333 -107 -73c36 -48 71.667 -72 107 -72z" />
    <glyph glyph-name="integral" unicode="&#x222b;" horiz-adv-x="441" 
d="M0 -203l0.00195312 106.999c26.667 -12.667 51 -13.667 73 -3s35.333 31.667 40 63l100 588c11.333 66.667 37.166 112.167 77.499 136.5s90.5 28.833 150.5 13.5v-107c-29.333 12 -55.333 12.833 -78 2.5s-36.334 -31.166 -41.001 -62.499l-100 -588
c-11.333 -66.667 -37 -112.167 -77 -136.5s-88.333 -28.833 -145 -13.5z" />
    <glyph glyph-name="approxequal" unicode="&#x2248;" horiz-adv-x="577" 
d="M287 387c-24.667 12.667 -45.832 21.5 -63.499 26.5s-32.667 6.16699 -45 3.5s-22.333 -7.33398 -30 -14.001s-15.5 -16.334 -23.5 -29.001l-75 28c17.333 62.667 46.666 102.334 87.999 119.001s92.333 9.33398 153 -21.999c46 -24 79.5 -33.833 100.5 -29.5
s36.167 23.5 45.5 57.5l90 -43c-15.333 -61.333 -44 -100.833 -86 -118.5s-93.333 -10.5 -154 21.5zM140.002 174l-90.002 42.9971c15.333 60.667 44.333 99.834 87 117.501s94 10.834 154 -20.499c32.667 -17.333 59.667 -27.333 81 -30s37.333 -0.5 48 6.5
s21.334 19.167 32.001 36.5l75 -28c-17.333 -63.333 -46.333 -103.166 -87 -119.499s-91.667 -8.83301 -153 22.5c-30.667 16 -55.667 25.5 -75 28.5s-34.666 0 -45.999 -9s-20 -24.833 -26 -47.5z" />
    <glyph glyph-name="notequal" unicode="&#x2260;" horiz-adv-x="530" 
d="M480 402h-157l-46 -103h203v-102h-249l-61 -137h-70l61 137h-111v102h157l46 103h-203v102h249l61 136h70l-61 -136h111v-102z" />
    <glyph glyph-name="lessequal" unicode="&#x2264;" horiz-adv-x="525" 
d="M475 635v-114l-299 -98l299 -98v-114l-425 163v98zM50 70v102h425v-102h-425z" />
    <glyph glyph-name="greaterequal" unicode="&#x2265;" horiz-adv-x="525" 
d="M50 635l425 -163v-98l-425 -163v114l299 98l-299 98v114zM50 70v102h425v-102h-425z" />
    <glyph glyph-name="lozenge" unicode="&#x25ca;" horiz-adv-x="550" 
d="M231 0l-186 350l186 350h88l186 -350l-186 -350h-88zM275 137l114 213l-114 213l-113 -213z" />
    <glyph glyph-name=".null" horiz-adv-x="0" 
 />
    <glyph glyph-name="nonmarkingreturn" horiz-adv-x="333" 
 />
    <glyph glyph-name="i.loclTRK" horiz-adv-x="233" 
d="M117 558c-19.333 0 -35.833 6.83301 -49.5 20.5s-20.5 30.167 -20.5 49.5c0 18.667 6.83301 35 20.5 49s30.167 21 49.5 21s35.833 -6.83301 49.5 -20.5s20.5 -30.167 20.5 -49.5s-6.83301 -35.833 -20.5 -49.5s-30.167 -20.5 -49.5 -20.5zM63 0v500h108v-500h-108z" />
    <glyph glyph-name="f_f_j" horiz-adv-x="818" 
d="M756 500v-520c0 -138.667 -68.333 -203 -205 -193v104c33.333 -3.33301 57.833 2 73.5 16s23.5 38.333 23.5 73v416h-166v-396h-108v396h-167v-396h-108v396h-76v104h76v10c0 68.667 19.167 120.834 57.5 156.501s94.5 51.167 168.5 46.5v-104
c-78.667 7.33301 -118 -25.667 -118 -99v-10h167v20c0 135.333 75.333 203 226 203c35.333 0 72.333 -4.33301 111 -13v-99c-35.333 5.33301 -72.333 8 -111 8c-40 0 -69.667 -7.33301 -89 -22s-29 -40.334 -29 -77.001v-20h274z" />
    <glyph glyph-name="f_j" horiz-adv-x="543" 
d="M481 500v-519.999c0 -138.667 -68.333 -203 -205 -193v104c33.333 -3.33301 57.833 2 73.5 16s23.5 38.333 23.5 73v416h-166v-396h-108v396h-76v104h76v10c0 135.333 75.333 203 226 203c35.333 0 72.333 -4.33301 111 -13v-99c-35.333 5.33301 -72.333 8 -111 8
c-40 0 -69.667 -7.33301 -89 -22s-29 -40.334 -29 -77.001v-10h274z" />
    <glyph glyph-name="uni0414.loclBGR" horiz-adv-x="720" 
d="M625 110h75v-244h-115v134h-450v-134h-115v244h75l196 590h138zM216 110h289l-145 457z" />
    <glyph glyph-name="uni041B.loclBGR" horiz-adv-x="634" 
d="M248 700h138l243 -700h-125l-187 561l-186 -561h-126z" />
    <glyph glyph-name="uni0424.loclBGR" horiz-adv-x="854" 
d="M819 350c0 -100 -30.667 -182.333 -92 -247s-143 -102 -245 -112v-91h-110v91c-102 10 -183.667 47.333 -245 112s-92 147 -92 247s30.667 182.333 92 247s143 102 245 112v91h110v-91c102 -10 183.667 -47.333 245 -112s92 -147 92 -247zM150 350
c0 -72 19.167 -130 57.5 -174s93.166 -70.667 164.499 -80v508c-71.333 -9.33301 -126.166 -36 -164.499 -80s-57.5 -102 -57.5 -174zM482 96c71.333 9.33301 126.166 36 164.499 80s57.5 102 57.5 174s-19.167 130 -57.5 174s-93.166 70.667 -164.499 80v-508z" />
    <glyph glyph-name="uni0414.ss01" horiz-adv-x="700" 
d="M595 110l75 0.000976562v-110h-655v110h65c40.667 53.333 61 133.666 61 240.999v349h454v-590zM206 110.001h274v482h-224v-243c0 -104 -16.667 -183.667 -50 -239z" />
    <glyph glyph-name="uni0426.ss01" horiz-adv-x="690" 
d="M585 110h75v-110h-590v700h115v-590h285v590h115v-590z" />
    <glyph glyph-name="uni0429.ss01" horiz-adv-x="980" 
d="M875 110h75v-110h-880v700h115v-590h230v590h115v-590h230v590h115v-590z" />
    <glyph glyph-name="uni0414.loclBGR.ss01" horiz-adv-x="720" 
d="M625 110h75v-110h-680v110h75l196 590h138zM216 110h289l-145 457z" />
    <glyph glyph-name="uni0432.loclBGR" horiz-adv-x="568" 
d="M413 406c38 -14.667 67.5 -38.834 88.5 -72.501s31.5 -75.167 31.5 -124.5c0 -69.333 -20.667 -123.666 -62 -162.999s-99 -59 -173 -59c-72.667 0 -130 21.833 -172 65.5s-63 102.5 -63 176.5v237c0 75.333 20.167 135.333 60.5 180s94.833 67 163.5 67
c57.333 0 103.5 -15.667 138.5 -47s52.5 -73 52.5 -125c0 -46.667 -21.667 -91.667 -65 -135zM287 611c-36 0 -64.333 -13.166 -85 -39.499s-31 -61.5 -31 -105.5v-66l66 14c25.333 5.33301 48 8 68 8c44.667 35.333 67 71.666 67 108.999c0 24 -7.5 43.333 -22.5 58
s-35.833 22 -62.5 22zM298 91.001c40 0 71.167 10.334 93.5 31.001s33.5 49.667 33.5 87c0 44.667 -17.167 76.5 -51.5 95.5s-79.833 22.5 -136.5 10.5l-66 -14v-72c0 -42.667 11.333 -76.334 34 -101.001s53.667 -37 93 -37z" />
    <glyph glyph-name="uni0433.loclBGR" horiz-adv-x="461" 
d="M343 160l93 -53.001c-16.667 -37.333 -42.5 -66.666 -77.5 -87.999s-77.167 -32 -126.5 -32c-56 0 -102.333 13.667 -139 41s-55 65 -55 113c0 34 9 62.167 27 84.5s40 38.166 66 47.499s52 17.5 78 24.5s48 15.333 66 25s27 22.834 27 39.501s-7 29.667 -21 39
s-30.667 14 -50 14c-46.667 0 -78.667 -19.667 -96 -59l-92 50c18 34 43.333 60.333 76 79s70 28 112 28c50.667 0 93.5 -14 128.5 -42s52.5 -65 52.5 -111c0 -33.333 -9 -60.833 -27 -82.5s-40 -37.167 -66 -46.5s-52 -17.166 -78 -23.499s-48 -14.5 -66 -24.5
s-27 -23.333 -27 -40c0 -18.667 7.83301 -32.834 23.5 -42.501s35.834 -14.5 60.501 -14.5c27.333 0 50.666 6.66699 69.999 20s33 31.333 41 54z" />
    <glyph glyph-name="uni0434.loclBGR" 
d="M461 500l106 0.00292969v-477c0 -76 -25 -134.333 -75 -175s-110.667 -61 -182 -61c-115.333 0 -194.333 40.333 -237 121l93 54c26 -51.333 74.667 -77 146 -77c46.667 0 83.167 12.167 109.5 36.5s39.5 58.166 39.5 101.499v61c-40.667 -58 -98.667 -87 -174 -87
c-70.667 0 -130.334 25.167 -179.001 75.5s-73 111.166 -73 182.499s24.333 132.166 73 182.499s108.334 75.5 179.001 75.5c75.333 0 133.333 -29 174 -87v74zM302 98.0029c45.333 0 83.166 15 113.499 45s45.5 67.333 45.5 112s-15.167 82 -45.5 112
s-68.166 45 -113.499 45s-83.166 -15 -113.499 -45s-45.5 -67.333 -45.5 -112s15.167 -82 45.5 -112s68.166 -45 113.499 -45z" />
    <glyph glyph-name="uni0436.loclBGR" horiz-adv-x="722" 
d="M707 0h-123l-170 229v-229h-106v229l-170 -229h-123l195 255l-185 245h123l160 -218v418h106v-418l160 218h123l-185 -245z" />
    <glyph glyph-name="uni0438.loclBGR" horiz-adv-x="571" 
d="M400 500l108 -0.000976562v-500h-108v64c-32.667 -51.333 -84.334 -77 -155.001 -77c-57.333 0 -103.666 18.333 -138.999 55s-53 87 -53 151v307h108v-296c0 -37.333 10 -66 30 -86s47.333 -30 82 -30c38 0 68.667 11.833 92 35.5s35 59.834 35 108.501v268z" />
    <glyph glyph-name="uni0439.loclBGR" horiz-adv-x="571" 
d="M420 664v-94h-280v94h280zM400 500l108 -0.000976562v-500h-108v64c-32.667 -51.333 -84.334 -77 -155.001 -77c-57.333 0 -103.666 18.333 -138.999 55s-53 87 -53 151v307h108v-296c0 -37.333 10 -66 30 -86s47.333 -30 82 -30c38 0 68.667 11.833 92 35.5
s35 59.834 35 108.501v268z" />
    <glyph glyph-name="uni043A.loclBGR" horiz-adv-x="515" 
d="M505 0h-129l-205 231v-231h-108v700h108v-421l194 221h132l-220 -245z" />
    <glyph glyph-name="uni043B.loclBGR" horiz-adv-x="525" 
d="M520 0h-118l-139 380l-140 -380h-118l195 500h125z" />
    <glyph glyph-name="uni043F.loclBGR" horiz-adv-x="571" 
d="M326 513c57.333 0 103.666 -18.332 138.999 -54.999s53 -87 53 -151v-307h-108v296c0 37.333 -10 66 -30 86s-47.333 30 -82 30c-38 0 -68.667 -11.833 -92 -35.5s-35 -59.834 -35 -108.501v-268h-108v500h108v-64c32.667 51.333 84.334 77 155.001 77z" />
    <glyph glyph-name="uni0442.loclBGR" horiz-adv-x="851" 
d="M609 513c56.667 0 102.334 -18.334 137.001 -55.001s52 -86 52 -148v-310h-108v303c0 34.667 -8.66699 61.5 -26 80.5s-41 28.5 -71 28.5c-33.333 0 -59.833 -11 -79.5 -33s-29.5 -55 -29.5 -99v-280h-108v303c0 34.667 -8.16699 61.5 -24.5 80.5s-39.5 28.5 -69.5 28.5
c-32.667 0 -59.334 -11.167 -80.001 -33.5s-31 -55.166 -31 -98.499v-280h-108v500h108v-60c32 48.667 79.667 73 143 73c64 0 111.333 -26.333 142 -79c33.333 52.667 84.333 79 153 79z" />
    <glyph glyph-name="uni0446.loclBGR" horiz-adv-x="609" 
d="M542 102h42v-236h-106v141c-32.667 10 -55.334 30.667 -68.001 62c-36 -54.667 -91 -82 -165 -82c-57.333 0 -103.666 18.333 -138.999 55s-53 87 -53 151v307h108v-296c0 -36.667 10 -65.167 30 -85.5s47.333 -30.5 82 -30.5c38 0 68.667 12 92 36s35 60.333 35 109v267
h108v-365c0 -10 3 -18 9 -24s14.333 -9 25 -9z" />
    <glyph glyph-name="uni0448.loclBGR" horiz-adv-x="851" 
d="M680 500l108 0.000976562v-500h-108v60c-32 -48.667 -79.667 -73 -143 -73c-64 0 -111.333 26.333 -142 79c-33.333 -52.667 -84.333 -79 -153 -79c-56.667 0 -102.334 18.333 -137.001 55s-52 86 -52 148v310h108v-303c0 -34.667 8.66699 -61.5 26 -80.5
s41 -28.5 71 -28.5c33.333 0 59.833 11 79.5 33s29.5 55 29.5 99v280h108v-303c0 -34.667 8.16699 -61.5 24.5 -80.5s39.5 -28.5 69.5 -28.5c32.667 0 59.334 11.167 80.001 33.5s31 55.166 31 98.499v280z" />
    <glyph glyph-name="uni0449.loclBGR" horiz-adv-x="889" 
d="M822 102h42v-236h-106v141c-30.667 9.33301 -52.667 28.333 -66 57c-33.333 -51.333 -83.333 -77 -150 -77c-67.333 0 -116.333 26.333 -147 79c-34 -52.667 -85 -79 -153 -79c-56.667 0 -102.334 18.5 -137.001 55.5s-52 86.5 -52 148.5v309h108v-303
c0 -34 8.66699 -60.667 26 -80s41 -29 71 -29c33.333 0 59.833 11 79.5 33s29.5 55.333 29.5 100v279h108v-303c0 -34.667 8.33301 -61.5 25 -80.5s39.667 -28.5 69 -28.5c32.667 0 59.334 11.167 80.001 33.5s31 55.5 31 99.5v279h108v-365c0 -10 3 -18 9 -24
s14.333 -9 25 -9z" />
    <glyph glyph-name="uni044C.loclBGR" horiz-adv-x="488" 
d="M263 353c64 0 113.333 -15.5 148 -46.5s52 -74.833 52 -131.5c0 -53.333 -19 -98 -57 -134s-87.333 -54 -148 -54c-63.333 0 -113.333 17.667 -150 53s-55 82 -55 140v320h106v-147h104zM258 89c28.667 0 52.333 8.83203 71 26.499s28 37.834 28 60.501
c0 24.667 -8.16699 44.167 -24.5 58.5s-39.5 21.5 -69.5 21.5h-104v-76c0 -25.333 9 -46.833 27 -64.5s42 -26.5 72 -26.5z" />
    <glyph glyph-name="uni044A.loclBGR" horiz-adv-x="574" 
d="M348 353c64 0 113.333 -15.5 148 -46.5s52 -74.833 52 -131.5c0 -53.333 -19 -98 -57 -134s-87.333 -54 -148 -54c-63.333 0 -113.333 17.667 -150 53s-55 82 -55 140v218h-138v102h244v-147h104zM343 89c28.667 0 52.333 8.83203 71 26.499s28 37.834 28 60.501
c0 24.667 -8.16699 44.167 -24.5 58.5s-39.5 21.5 -69.5 21.5h-104v-76c0 -25.333 9 -46.833 27 -64.5s42 -26.5 72 -26.5z" />
    <glyph glyph-name="uni044E.loclBGR" horiz-adv-x="808" 
d="M509 513c73.333 0 135.666 -25.333 186.999 -76s77 -113 77 -187s-25.667 -136.333 -77 -187s-113.666 -76 -186.999 -76c-64.667 0 -120.5 19.833 -167.5 59.5s-76.167 90.5 -87.5 152.5h-83v-199h-108v700h108v-399h83c11.333 62 40.5 112.833 87.5 152.5
s102.833 59.5 167.5 59.5zM509 92c44 0 81 15 111 45s45 67.667 45 113s-15 83 -45 113s-67 45 -111 45s-81 -15 -111 -45s-45 -67.667 -45 -113s15 -83 45 -113s67 -45 111 -45z" />
    <glyph glyph-name="zero.sinf" horiz-adv-x="409" 
d="M205 -173c-55.333 0 -99.166 19.167 -131.499 57.5s-48.5 90.166 -48.5 155.499s16.167 117.166 48.5 155.499s76.166 57.5 131.499 57.5s99 -19.167 131 -57.5s48 -90.166 48 -155.499s-16 -117.166 -48 -155.499s-75.667 -57.5 -131 -57.5zM205 -82
c26.667 0 47.5 10.5 62.5 31.5s22.5 51.167 22.5 90.5s-7.5 69.5 -22.5 90.5s-35.833 31.5 -62.5 31.5c-27.333 0 -48.5 -10.5 -63.5 -31.5s-22.5 -51.167 -22.5 -90.5s7.5 -69.5 22.5 -90.5s36.167 -31.5 63.5 -31.5z" />
    <glyph glyph-name="one.sinf" horiz-adv-x="257" 
d="M124 240h80v-400h-92v306l-85 -25l-22 76z" />
    <glyph glyph-name="two.sinf" horiz-adv-x="347" 
d="M26 -160l-0.000976562 64l157 151c24.667 23.333 37 46.333 37 69c0 13.333 -4.66699 24 -14 32s-22 12 -38 12c-32 0 -55.333 -18 -70 -54l-75 42c12.667 30 31.334 53.667 56.001 71s54.667 26 90 26c42 0 76.333 -11.667 103 -35s40 -53 40 -89
c0 -43.333 -22 -86 -66 -128l-82 -76h155v-85h-293z" />
    <glyph glyph-name="three.sinf" horiz-adv-x="346" 
d="M223 75c30.667 -7.33301 54.334 -21.1689 71.001 -41.502s25 -45.166 25 -74.499c0 -41.333 -13.667 -73.666 -41 -96.999s-64.333 -35 -111 -35c-74.667 0 -125.334 29 -152.001 87l78 45c13.333 -33.333 38 -50 74 -50c19.333 0 34 4.5 44 13.5s15 21.167 15 36.5
s-5.5 27.5 -16.5 36.5s-26.167 13.5 -45.5 13.5h-14l-36 55l75 91h-158v85h270v-72z" />
    <glyph glyph-name="four.sinf" horiz-adv-x="356" 
d="M339 -8v-84h-44v-68h-89v68h-193v84l135 248h99l-132 -248h91v79h89v-79h44z" />
    <glyph glyph-name="five.sinf" horiz-adv-x="334" 
d="M172 90c42.667 0 77 -11.5 103 -34.5s39 -55.833 39 -98.5c0 -41.333 -13.333 -73.333 -40 -96s-62 -34 -106 -34c-74 0 -124 29 -150 87l76 43c14 -32.667 38 -49 72 -49c20 0 35.167 4.5 45.5 13.5s15.5 21.167 15.5 36.5c0 35.333 -20.333 53 -61 53h-126l16 229h239
v-84h-161l-4 -66h42z" />
    <glyph glyph-name="six.sinf" horiz-adv-x="339" 
d="M175 110c43.333 -1.33301 78.5 -15.333 105.5 -42s40.5 -60 40.5 -100c0 -40.667 -14.167 -74.334 -42.5 -101.001s-64.833 -40 -109.5 -40c-44 0 -80.167 13.333 -108.5 40s-42.5 60.334 -42.5 101.001c0 26.667 6.33301 51 19 73l126 199h98zM169 -93
c20 0 35.833 5.5 47.5 16.5s17.5 25.833 17.5 44.5s-5.83301 33.5 -17.5 44.5s-27.5 16.5 -47.5 16.5c-19.333 0 -34.833 -5.5 -46.5 -16.5s-17.5 -25.833 -17.5 -44.5s5.83301 -33.5 17.5 -44.5s27.167 -16.5 46.5 -16.5z" />
    <glyph glyph-name="seven.sinf" horiz-adv-x="296" 
d="M5 240h273v-71l-133 -329h-96l130 315h-174v85z" />
    <glyph glyph-name="eight.sinf" horiz-adv-x="345" 
d="M262 50c40.667 -22.667 61 -56.667 61 -102c0 -37.333 -13.5 -66.833 -40.5 -88.5s-63.5 -32.5 -109.5 -32.5c-46.667 0 -83.5 10.833 -110.5 32.5s-40.5 51.167 -40.5 88.5c0 45.333 20.333 79.333 61 102c-31.333 20.667 -47 49 -47 85c0 36.667 12.833 65.5 38.5 86.5
s58.5 31.5 98.5 31.5c39.333 0 71.833 -10.5 97.5 -31.5s38.5 -49.833 38.5 -86.5c0 -36 -15.667 -64.333 -47 -85zM173 174c-36.667 0 -55 -15 -55 -45s18.333 -45 55 -45c16.667 0 29.834 4 39.501 12s14.5 19 14.5 33s-4.83301 25 -14.5 33s-22.834 12 -39.501 12z
M173 -92c19.333 0 34.5 4.66699 45.5 14s16.5 22 16.5 38s-5.66699 28.667 -17 38s-26.333 14 -45 14c-20 0 -35.5 -4.66699 -46.5 -14s-16.5 -22 -16.5 -38s5.5 -28.667 16.5 -38s26.5 -14 46.5 -14z" />
    <glyph glyph-name="nine.sinf" horiz-adv-x="339" 
d="M321 112c0 -31.333 -8.33301 -58.333 -25 -81l-120 -191h-98l86 130c-43.333 1.33301 -78.5 15.333 -105.5 42s-40.5 60 -40.5 100c0 40.667 14.167 74.334 42.5 101.001s64.833 40 109.5 40c44 0 80.167 -13.333 108.5 -40s42.5 -60.334 42.5 -101.001zM105 112
c0 -18.667 5.83301 -33.5 17.5 -44.5s27.5 -16.5 47.5 -16.5c19.333 0 34.833 5.5 46.5 16.5s17.5 25.833 17.5 44.5s-5.83301 33.5 -17.5 44.5s-27.167 16.5 -46.5 16.5c-20 0 -35.833 -5.5 -47.5 -16.5s-17.5 -25.833 -17.5 -44.5z" />
    <glyph glyph-name="zero.tf" horiz-adv-x="575" 
d="M288 -13c-86.667 0 -154.167 33 -202.5 99s-72.5 154 -72.5 264s24.167 198 72.5 264s115.833 99 202.5 99s154.167 -33 202.5 -99s72.5 -154 72.5 -264s-24.167 -198 -72.5 -264s-115.833 -99 -202.5 -99zM288 99c51.333 0 90.833 21.667 118.5 65
s41.5 105.333 41.5 186s-13.833 142.667 -41.5 186s-67.167 65 -118.5 65c-52 0 -91.667 -21.667 -119 -65s-41 -105.333 -41 -186s13.667 -142.667 41 -186s67 -65 119 -65z" />
    <glyph glyph-name="one.tf" horiz-adv-x="575" 
d="M358 110h195v-110h-520v110h210v467l-141 -40l-28 98l184 65h100v-590z" />
    <glyph glyph-name="two.tf" horiz-adv-x="575" 
d="M38 0l0.00195312 90.002l254 226c38 33.333 66.833 63.166 86.5 89.499s29.5 53.166 29.5 80.499c0 34 -11 61.667 -33 83s-52.667 32 -92 32c-64 0 -112.333 -33 -145 -99l-96 56c23.333 50 56.166 88.333 98.499 115s90.166 40 143.499 40
c69.333 0 126.5 -20.667 171.5 -62s67.5 -94.666 67.5 -159.999c0 -44.667 -12.833 -86.334 -38.5 -125.001s-63.5 -79.667 -113.5 -123l-155 -132h319v-111h-497z" />
    <glyph glyph-name="three.tf" horiz-adv-x="575" 
d="M361 420c55.333 -12 99.501 -35.667 132.501 -71s49.5 -80.333 49.5 -135c0 -70.667 -24.333 -126.167 -73 -166.5s-110.334 -60.5 -185.001 -60.5c-62.667 0 -117 14 -163 42s-79 68 -99 120l99 57c10 -33.333 28.833 -59.5 56.5 -78.5s61.5 -28.5 101.5 -28.5
c46.667 0 83 10.167 109 30.5s39 48.5 39 84.5c0 36.667 -13 65 -39 85s-62.333 30 -109 30h-25l-47 70l160 193h-322v108h465v-98z" />
    <glyph glyph-name="four.tf" horiz-adv-x="575" 
d="M558 233v-107h-80v-126h-116v126h-349v107l241 467h124l-241 -467h225v172h116v-172h80z" />
    <glyph glyph-name="five.tf" horiz-adv-x="575" 
d="M293 436c72.667 0 132.5 -19.666 179.5 -58.999s70.5 -94.333 70.5 -165s-24.167 -125.834 -72.5 -165.501s-108.5 -59.5 -180.5 -59.5c-62.667 0 -117 14 -163 42s-79 68 -99 120l99 57c10 -33.333 29 -59.5 57 -78.5s62.667 -28.5 104 -28.5c44 0 78.333 10 103 30
s37 47.667 37 83s-12.333 62.833 -37 82.5s-59 29.5 -103 29.5h-220l27 376h418v-108h-313l-12 -156h105z" />
    <glyph glyph-name="six.tf" horiz-adv-x="575" 
d="M283 470c80.667 0 145 -22.167 193 -66.5s72 -102.5 72 -174.5c0 -72.667 -24 -131.167 -72 -175.5s-112.333 -66.5 -193 -66.5s-145 22.167 -193 66.5s-72 102.833 -72 175.5c0 55.333 14.667 103.333 44 144l235 327h133l-165 -230h18zM283 96
c46.667 0 83.334 11.8311 110.001 35.498s40 56.167 40 97.5c0 40.667 -13.333 72.834 -40 96.501s-63.334 35.5 -110.001 35.5s-83.334 -11.667 -110.001 -35s-40 -55.666 -40 -96.999s13.333 -73.833 40 -97.5s63.334 -35.5 110.001 -35.5z" />
    <glyph glyph-name="seven.tf" horiz-adv-x="575" 
d="M30 700h510v-100l-271 -600h-121l265 590h-383v110z" />
    <glyph glyph-name="eight.tf" horiz-adv-x="575" 
d="M444 363c71.333 -38 107 -94.333 107 -169c0 -64 -23.667 -114.5 -71 -151.5s-111.333 -55.5 -192 -55.5c-81.333 0 -145.666 18.5 -192.999 55.5s-71 87.5 -71 151.5c0 76 36 132.333 108 169c-56 36 -84 85.667 -84 149c0 64 22.667 113.5 68 148.5
s102.666 52.5 171.999 52.5s126.5 -17.5 171.5 -52.5s67.5 -84.5 67.5 -148.5c0 -63.333 -27.667 -113 -83 -149zM288 604c-39.333 0 -70 -8.33301 -92 -25s-33 -40.667 -33 -72c0 -30 11.167 -53.667 33.5 -71s52.833 -26 91.5 -26c38 0 68.167 8.66699 90.5 26
s33.5 41 33.5 71c0 31.333 -11 55.333 -33 72s-52.333 25 -91 25zM288 96c48 0 84.667 9.5 110 28.5s38 45.833 38 80.5s-12.667 61.5 -38 80.5s-62 28.5 -110 28.5s-84.833 -9.5 -110.5 -28.5s-38.5 -45.833 -38.5 -80.5s12.833 -61.5 38.5 -80.5s62.5 -28.5 110.5 -28.5z
" />
    <glyph glyph-name="nine.tf" horiz-adv-x="575" 
d="M558 472c0 -60 -17 -111 -51 -153l-228 -319h-134l165 230h-17c-80.667 0 -145 22.167 -193 66.5s-72 102.833 -72 175.5c0 72 24 130.167 72 174.5s112.333 66.5 193 66.5s145 -22.167 193 -66.5s72 -102.5 72 -174.5zM143 472c0 -41.333 13.333 -73.833 40 -97.5
s63.334 -35.5 110.001 -35.5s83.334 11.833 110.001 35.5s40 56.167 40 97.5s-13.333 73.666 -40 96.999s-63.334 35 -110.001 35s-83.334 -11.667 -110.001 -35s-40 -55.666 -40 -96.999z" />
    <glyph glyph-name="zero.dnom" horiz-adv-x="409" 
d="M205 -13c-55.333 0 -99.166 19.167 -131.499 57.5s-48.5 90.166 -48.5 155.499s16.167 117.166 48.5 155.499s76.166 57.5 131.499 57.5s99 -19.167 131 -57.5s48 -90.166 48 -155.499s-16 -117.166 -48 -155.499s-75.667 -57.5 -131 -57.5zM205 78
c26.667 0 47.5 10.5 62.5 31.5s22.5 51.167 22.5 90.5s-7.5 69.5 -22.5 90.5s-35.833 31.5 -62.5 31.5c-27.333 0 -48.5 -10.5 -63.5 -31.5s-22.5 -51.167 -22.5 -90.5s7.5 -69.5 22.5 -90.5s36.167 -31.5 63.5 -31.5z" />
    <glyph glyph-name="one.dnom" horiz-adv-x="261" 
d="M124 400h80v-400h-92v306l-85 -25l-22 76z" />
    <glyph glyph-name="two.dnom" horiz-adv-x="351" 
d="M26 0l-0.000976562 64l157 151c24.667 23.333 37 46.333 37 69c0 13.333 -4.66699 24 -14 32s-22 12 -38 12c-32 0 -55.333 -18 -70 -54l-75 42c12.667 30 31.334 53.667 56.001 71s54.667 26 90 26c42 0 76.333 -11.667 103 -35s40 -53 40 -89
c0 -43.333 -22 -86 -66 -128l-82 -76h155v-85h-293z" />
    <glyph glyph-name="three.dnom" horiz-adv-x="349" 
d="M223 235c30.667 -7.33301 54.334 -21.1689 71.001 -41.502s25 -45.166 25 -74.499c0 -41.333 -13.667 -73.666 -41 -96.999s-64.333 -35 -111 -35c-74.667 0 -125.334 29 -152.001 87l78 45c13.333 -33.333 38 -50 74 -50c19.333 0 34 4.5 44 13.5s15 21.167 15 36.5
s-5.5 27.5 -16.5 36.5s-26.167 13.5 -45.5 13.5h-14l-36 55l75 91h-158v85h270v-72z" />
    <glyph glyph-name="four.dnom" horiz-adv-x="356" 
d="M339 152v-84h-44v-68h-89v68h-193v84l135 248h99l-132 -248h91v79h89v-79h44z" />
    <glyph glyph-name="five.dnom" horiz-adv-x="337" 
d="M169 250c42.667 0 77 -11.5 103 -34.5s39 -55.833 39 -98.5c0 -41.333 -13.333 -73.333 -40 -96s-62 -34 -106 -34c-74 0 -124 29 -150 87l76 43c14 -32.667 38 -49 72 -49c20 0 35.167 4.5 45.5 13.5s15.5 21.167 15.5 36.5c0 35.333 -20.333 53 -61 53h-126l16 229h239
v-84h-161l-4 -66h42z" />
    <glyph glyph-name="six.dnom" horiz-adv-x="339" 
d="M175 270c43.333 -1.33301 78.5 -15.333 105.5 -42s40.5 -60 40.5 -100c0 -40.667 -14.167 -74.334 -42.5 -101.001s-64.833 -40 -109.5 -40c-44 0 -80.167 13.333 -108.5 40s-42.5 60.334 -42.5 101.001c0 26.667 6.33301 51 19 73l126 199h98zM169 67
c20 0 35.833 5.5 47.5 16.5s17.5 25.833 17.5 44.5s-5.83301 33.5 -17.5 44.5s-27.5 16.5 -47.5 16.5c-19.333 0 -34.833 -5.5 -46.5 -16.5s-17.5 -25.833 -17.5 -44.5s5.83301 -33.5 17.5 -44.5s27.167 -16.5 46.5 -16.5z" />
    <glyph glyph-name="seven.dnom" horiz-adv-x="296" 
d="M5 400h273v-71l-133 -329h-96l130 315h-174v85z" />
    <glyph glyph-name="eight.dnom" horiz-adv-x="345" 
d="M262 210c40.667 -22.667 61 -56.667 61 -102c0 -37.333 -13.5 -66.833 -40.5 -88.5s-63.5 -32.5 -109.5 -32.5c-46.667 0 -83.5 10.833 -110.5 32.5s-40.5 51.167 -40.5 88.5c0 45.333 20.333 79.333 61 102c-31.333 20.667 -47 49 -47 85
c0 36.667 12.833 65.5 38.5 86.5s58.5 31.5 98.5 31.5c39.333 0 71.833 -10.5 97.5 -31.5s38.5 -49.833 38.5 -86.5c0 -36 -15.667 -64.333 -47 -85zM173 334c-36.667 0 -55 -15 -55 -45s18.333 -45 55 -45c16.667 0 29.834 4 39.501 12s14.5 19 14.5 33
s-4.83301 25 -14.5 33s-22.834 12 -39.501 12zM173 68c19.333 0 34.5 4.66699 45.5 14s16.5 22 16.5 38s-5.66699 28.667 -17 38s-26.333 14 -45 14c-20 0 -35.5 -4.66699 -46.5 -14s-16.5 -22 -16.5 -38s5.5 -28.667 16.5 -38s26.5 -14 46.5 -14z" />
    <glyph glyph-name="nine.dnom" horiz-adv-x="339" 
d="M321 272c0 -31.333 -8.33301 -58.333 -25 -81l-120 -191h-98l86 130c-43.333 1.33301 -78.5 15.333 -105.5 42s-40.5 60 -40.5 100c0 40.667 14.167 74.334 42.5 101.001s64.833 40 109.5 40c44 0 80.167 -13.333 108.5 -40s42.5 -60.334 42.5 -101.001zM105 272
c0 -18.667 5.83301 -33.5 17.5 -44.5s27.5 -16.5 47.5 -16.5c19.333 0 34.833 5.5 46.5 16.5s17.5 25.833 17.5 44.5s-5.83301 33.5 -17.5 44.5s-27.167 16.5 -46.5 16.5c-20 0 -35.833 -5.5 -47.5 -16.5s-17.5 -25.833 -17.5 -44.5z" />
    <glyph glyph-name="zero.numr" horiz-adv-x="409" 
d="M205 287c-55.333 0 -99.166 19.167 -131.499 57.5s-48.5 90.166 -48.5 155.499s16.167 117.166 48.5 155.499s76.166 57.5 131.499 57.5s99 -19.167 131 -57.5s48 -90.166 48 -155.499s-16 -117.166 -48 -155.499s-75.667 -57.5 -131 -57.5zM205 378
c26.667 0 47.5 10.5 62.5 31.5s22.5 51.167 22.5 90.5s-7.5 69.5 -22.5 90.5s-35.833 31.5 -62.5 31.5c-27.333 0 -48.5 -10.5 -63.5 -31.5s-22.5 -51.167 -22.5 -90.5s7.5 -69.5 22.5 -90.5s36.167 -31.5 63.5 -31.5z" />
    <glyph glyph-name="one.numr" horiz-adv-x="261" 
d="M124 700h80v-400h-92v306l-85 -25l-22 76z" />
    <glyph glyph-name="two.numr" horiz-adv-x="351" 
d="M26 300l-0.000976562 64l157 151c24.667 23.333 37 46.333 37 69c0 13.333 -4.66699 24 -14 32s-22 12 -38 12c-32 0 -55.333 -18 -70 -54l-75 42c12.667 30 31.334 53.667 56.001 71s54.667 26 90 26c42 0 76.333 -11.667 103 -35s40 -53 40 -89
c0 -43.333 -22 -86 -66 -128l-82 -76h155v-85h-293z" />
    <glyph glyph-name="three.numr" horiz-adv-x="349" 
d="M223 535c30.667 -7.33301 54.334 -21.1689 71.001 -41.502s25 -45.166 25 -74.499c0 -41.333 -13.667 -73.666 -41 -96.999s-64.333 -35 -111 -35c-74.667 0 -125.334 29 -152.001 87l78 45c13.333 -33.333 38 -50 74 -50c19.333 0 34 4.5 44 13.5s15 21.167 15 36.5
s-5.5 27.5 -16.5 36.5s-26.167 13.5 -45.5 13.5h-14l-36 55l75 91h-158v85h270v-72z" />
    <glyph glyph-name="four.numr" horiz-adv-x="356" 
d="M339 452v-84h-44v-68h-89v68h-193v84l135 248h99l-132 -248h91v79h89v-79h44z" />
    <glyph glyph-name="five.numr" horiz-adv-x="337" 
d="M169 550c42.667 0 77 -11.5 103 -34.5s39 -55.833 39 -98.5c0 -41.333 -13.333 -73.333 -40 -96s-62 -34 -106 -34c-74 0 -124 29 -150 87l76 43c14 -32.667 38 -49 72 -49c20 0 35.167 4.5 45.5 13.5s15.5 21.167 15.5 36.5c0 35.333 -20.333 53 -61 53h-126l16 229h239
v-84h-161l-4 -66h42z" />
    <glyph glyph-name="six.numr" horiz-adv-x="339" 
d="M175 570c43.333 -1.33301 78.5 -15.333 105.5 -42s40.5 -60 40.5 -100c0 -40.667 -14.167 -74.334 -42.5 -101.001s-64.833 -40 -109.5 -40c-44 0 -80.167 13.333 -108.5 40s-42.5 60.334 -42.5 101.001c0 26.667 6.33301 51 19 73l126 199h98zM169 367
c20 0 35.833 5.5 47.5 16.5s17.5 25.833 17.5 44.5s-5.83301 33.5 -17.5 44.5s-27.5 16.5 -47.5 16.5c-19.333 0 -34.833 -5.5 -46.5 -16.5s-17.5 -25.833 -17.5 -44.5s5.83301 -33.5 17.5 -44.5s27.167 -16.5 46.5 -16.5z" />
    </font>
</defs>
</svg>
